<svg width="20" height="23" viewBox="0 0 20 23" fill="none" xmlns="http://www.w3.org/2000/svg">
<path d="M12.4583 7.66674H18.7258C18.3912 6.78016 17.8714 5.97516 17.2011 5.30542L13.8623 1.96467C13.1918 1.29511 12.3865 0.775676 11.5 0.440918V6.70842C11.5 7.23764 11.929 7.66674 12.4583 7.66674Z" fill="#16353E"/>
<path d="M19.1436 9.58332H12.4583C10.8705 9.58332 9.58332 8.29613 9.58332 6.70832V0.023C9.42901 0.0124434 9.27475 0 9.11851 0H4.79164C2.14659 0.00318945 0.00314453 2.14664 0 4.79168V18.2084C0.00314453 20.8534 2.14659 22.9969 4.79164 23H14.375C17.02 22.9969 19.1634 20.8534 19.1666 18.2083V10.0481C19.1666 9.89193 19.1542 9.73763 19.1436 9.58332Z" fill="#16353E"/>
<path d="M6.78536 19.036C6.71069 19.036 6.65603 19.0253 6.62136 19.004C6.58669 18.9827 6.56536 18.9533 6.55736 18.916C6.54936 18.876 6.54536 18.8347 6.54536 18.792V16.484C6.54536 16.4413 6.54936 16.4027 6.55736 16.368C6.56803 16.3307 6.59069 16.3013 6.62536 16.28C6.66003 16.256 6.71469 16.244 6.78936 16.244H7.63736C7.75469 16.244 7.86936 16.264 7.98136 16.304C8.09336 16.344 8.19336 16.404 8.28136 16.484C8.37203 16.564 8.44269 16.6627 8.49336 16.78C8.54669 16.8973 8.57336 17.0347 8.57336 17.192C8.57336 17.3467 8.54669 17.4827 8.49336 17.6C8.44269 17.7147 8.37203 17.812 8.28136 17.892C8.19069 17.972 8.08936 18.032 7.97736 18.072C7.86803 18.112 7.75336 18.132 7.63336 18.132H7.02936V18.796C7.02936 18.8387 7.02403 18.8787 7.01336 18.916C7.00536 18.9533 6.98403 18.9827 6.94936 19.004C6.91736 19.0253 6.86269 19.036 6.78536 19.036ZM7.02936 17.644H7.63736C7.72003 17.644 7.79469 17.628 7.86136 17.596C7.93069 17.5613 7.98669 17.5107 8.02936 17.444C8.07203 17.3747 8.09336 17.288 8.09336 17.184C8.09336 17.0907 8.07336 17.0107 8.03336 16.944C7.99603 16.8747 7.94269 16.8213 7.87336 16.784C7.80669 16.7467 7.72669 16.728 7.63336 16.728H7.02936V17.644ZM9.03989 19.036C8.97056 19.036 8.91856 19.024 8.88389 19C8.84922 18.9787 8.82656 18.9493 8.81589 18.912C8.80522 18.8747 8.79989 18.8347 8.79989 18.792V16.48C8.79989 16.4373 8.80389 16.3987 8.81189 16.364C8.82256 16.3267 8.84522 16.2973 8.87989 16.276C8.91456 16.252 8.96922 16.24 9.04389 16.24L9.79589 16.244C9.99056 16.244 10.1692 16.2773 10.3319 16.344C10.4972 16.4107 10.6399 16.5053 10.7599 16.628C10.8799 16.7507 10.9719 16.8973 11.0359 17.068C11.1026 17.236 11.1359 17.4213 11.1359 17.624C11.1359 17.832 11.1026 18.0227 11.0359 18.196C10.9692 18.3693 10.8759 18.5187 10.7559 18.644C10.6359 18.7693 10.4932 18.8667 10.3279 18.936C10.1652 19.0027 9.98389 19.036 9.78389 19.036H9.03989ZM9.28389 18.552H9.79589C9.96656 18.552 10.1159 18.5147 10.2439 18.44C10.3719 18.3627 10.4706 18.256 10.5399 18.12C10.6119 17.984 10.6479 17.8253 10.6479 17.644C10.6479 17.46 10.6119 17.3 10.5399 17.164C10.4706 17.0253 10.3706 16.9187 10.2399 16.844C10.1119 16.7667 9.96256 16.728 9.79189 16.728H9.28389V18.552ZM11.6826 19.04C11.608 19.04 11.5533 19.028 11.5186 19.004C11.484 18.9827 11.4626 18.9533 11.4546 18.916C11.4466 18.8787 11.4426 18.8373 11.4426 18.792V16.484C11.4426 16.3933 11.46 16.3307 11.4946 16.296C11.532 16.2613 11.5986 16.244 11.6946 16.244H13.2546C13.3 16.244 13.34 16.2493 13.3746 16.26C13.4093 16.268 13.4373 16.2893 13.4586 16.324C13.48 16.356 13.4906 16.4107 13.4906 16.488C13.4906 16.5627 13.4786 16.6173 13.4546 16.652C13.4333 16.6867 13.404 16.708 13.3666 16.716C13.332 16.724 13.292 16.728 13.2466 16.728H11.9266V17.4H12.8346C12.88 17.4 12.9186 17.4053 12.9506 17.416C12.9853 17.424 13.0106 17.444 13.0266 17.476C13.0453 17.5053 13.0546 17.5547 13.0546 17.624C13.0546 17.688 13.0453 17.736 13.0266 17.768C13.008 17.7973 12.9813 17.816 12.9466 17.824C12.9146 17.8293 12.876 17.832 12.8306 17.832H11.9266V18.796C11.9266 18.8413 11.9213 18.8827 11.9106 18.92C11.9026 18.9547 11.8813 18.9827 11.8466 19.004C11.812 19.028 11.7573 19.04 11.6826 19.04Z" fill="#DDA853"/>
</svg>
