<svg width="186" height="225" viewBox="0 0 186 225" fill="none" xmlns="http://www.w3.org/2000/svg">
<path d="M100.479 179.024C89.5096 180.589 78.6693 182.951 68.044 186.093L67.9796 186.112C67.3324 186.302 66.6398 186.268 66.0146 186.014C65.3895 185.761 64.8685 185.303 64.5365 184.716C64.2045 184.129 64.0811 183.446 64.1863 182.78C64.2915 182.114 64.6192 181.503 65.1159 181.046C69.4707 177.045 73.7756 172.991 78.0303 168.883C84.537 162.575 90.9149 156.083 96.9256 149.326C100.291 145.541 103.588 141.697 106.816 137.794C110.035 133.883 113.192 129.921 116.286 125.906C116.708 125.36 117.317 124.987 117.996 124.86C118.674 124.732 119.376 124.859 119.968 125.215C120.56 125.571 121 126.132 121.205 126.792C121.411 127.451 121.366 128.163 121.081 128.792L121.072 128.811C117.977 135.622 114.804 142.418 111.343 149.104C107.914 155.861 104.083 162.405 99.8697 168.703L95.5925 164.659C104.752 157.526 113.443 149.81 121.611 141.561C129.783 133.319 137.418 124.563 144.47 115.346C148.912 109.499 152.939 103.416 155.719 96.8733C157.11 93.6476 158.128 90.2731 158.752 86.8157C159.048 85.1067 159.235 83.3804 159.31 81.6474L159.325 80.349L159.333 79.6998L159.305 79.0525L159.252 77.7573L159.124 76.471C158.785 73.0689 157.872 69.7488 156.426 66.651C156.238 66.2744 156.033 65.9079 155.839 65.5349L155.545 64.9768C155.442 64.7941 155.323 64.6221 155.213 64.4439L154.544 63.3809L153.797 62.3769L153.423 61.8743C153.293 61.7124 153.149 61.5618 153.012 61.4046L152.187 60.4672C151.892 60.1718 151.582 59.8903 151.281 59.5996L150.827 59.1656C150.681 59.0155 150.523 58.8771 150.355 58.7516C147.721 56.5807 144.719 54.8998 141.491 53.7886C138.15 52.6547 134.683 51.9297 131.167 51.6294C124.052 50.9423 116.69 51.5571 109.46 52.6817C102.237 53.7867 95.1629 55.7059 88.3721 58.4025C85.017 59.7903 81.7569 61.3973 78.6129 63.2132C75.5086 65.0634 72.5451 67.1403 69.7465 69.4267C68.4125 70.6357 67.0134 71.7783 65.7809 73.0908C64.4972 74.3394 63.2885 75.6629 62.1613 77.0544C59.909 79.8405 57.9532 82.8537 56.3255 86.0451C52.3867 93.7283 50.156 102.468 50.4685 111.005C50.5868 114.416 51.0342 117.807 51.8045 121.132C52.4238 123.846 53.0879 125.944 53.5587 127.607C54.3278 129.987 53.9107 130.306 52.4377 128.598C51.9976 128.058 51.5907 127.492 51.2191 126.902C50.9872 126.556 50.7801 126.16 50.5409 125.741C50.304 125.321 50.0572 124.869 49.8334 124.371C48.6797 121.943 47.8291 119.383 47.3009 116.747C47.0822 115.768 46.9411 114.766 46.7863 113.755C46.6752 112.74 46.5495 111.715 46.504 110.678C46.3792 108.588 46.4042 106.49 46.5788 104.403C46.7491 102.304 47.0503 100.217 47.4807 98.1555C47.9166 96.1214 48.4633 94.1126 49.1183 92.1381C50.6387 87.6595 52.699 83.3829 55.2537 79.4026C56.5345 77.4182 57.9417 75.5184 59.4667 73.7148C61.0023 71.931 62.6312 70.2297 64.3467 68.618C71.2253 62.2063 79.4367 57.4334 88.0615 54.0061C89.1483 53.5973 90.2219 53.148 91.3183 52.7675L94.6152 51.647L97.9509 50.6574C99.0656 50.3384 100.194 50.0736 101.315 49.7788C105.817 48.6857 110.378 47.8547 114.976 47.2899C117.27 47.0161 119.58 46.7551 121.913 46.6442C122.495 46.602 123.078 46.5798 123.663 46.5641C124.247 46.5476 124.831 46.5204 125.416 46.5129C126.589 46.5178 127.761 46.4927 128.938 46.5527C133.716 46.6584 138.458 47.417 143.03 48.8074C145.633 49.6427 148.134 50.7687 150.485 52.164C152.899 53.599 155.088 55.3815 156.983 57.4542C160.689 61.5621 163.199 66.6062 164.242 72.0395L164.405 72.8143L164.526 73.5945C164.603 74.1149 164.692 74.6341 164.758 75.1552C164.849 76.1999 164.988 77.2429 165.005 78.2891C165.1 80.3755 165.044 82.466 164.836 84.5442L164.655 86.0965C164.603 86.6151 164.489 87.1247 164.408 87.639C164.251 88.6694 164.001 89.682 163.773 90.6983C163.273 92.697 162.66 94.6656 161.936 96.5945C159.054 104.298 154.671 111.184 149.943 117.57C148.759 119.171 147.554 120.747 146.329 122.299L144.488 124.625L142.615 126.925C141.374 128.466 140.079 129.96 138.807 131.475C137.505 132.963 136.223 134.468 134.89 135.929C129.617 141.823 124.052 147.45 118.259 152.812C115.172 155.648 112.027 158.425 108.825 161.144C105.612 163.85 102.341 166.495 99.0131 169.081C98.5216 169.463 97.9098 169.656 97.288 169.627C96.6663 169.598 96.0755 169.347 95.6222 168.921C95.1688 168.494 94.8828 167.92 94.8156 167.301C94.7484 166.682 94.9044 166.06 95.2556 165.546L95.2633 165.536C99.3647 159.439 103.095 153.1 106.435 146.555C109.84 139.994 113.048 133.301 116.18 126.566L120.535 129.21L120.417 129.358C112.597 139.32 104.354 148.971 95.6713 158.195C86.9945 167.427 77.8984 176.228 68.6409 184.808L66.5278 181.166C70.4765 179.983 74.4504 178.901 78.4494 177.92C82.4474 176.937 86.4749 176.079 90.5169 175.295C94.5633 174.53 98.6308 173.877 102.72 173.338C106.812 172.83 110.921 172.423 115.049 172.193C120.459 171.867 125.886 171.982 131.277 172.536L130.321 175.639C129.238 175.035 128.115 174.506 126.96 174.056L126.076 173.701L125.176 173.375C124.578 173.154 123.979 172.938 123.371 172.743C120.956 171.93 118.529 171.211 116.125 170.558C113.722 169.901 111.342 169.288 108.99 168.745C106.639 168.197 104.319 167.685 102.022 167.274C98.8773 166.702 97.3472 166.31 97.5848 165.842C97.8125 165.424 99.9018 164.894 103.712 165.079C108.522 165.42 113.305 166.06 118.035 166.997C120.436 167.479 122.843 168.012 125.26 168.686C126.471 169.034 127.682 169.392 128.908 169.829C129.515 170.022 130.144 170.298 130.763 170.54C131.07 170.653 131.392 170.807 131.716 170.965L132.681 171.435C133.326 171.749 133.842 172.276 134.144 172.927C134.446 173.578 134.514 174.313 134.337 175.008C134.16 175.703 133.749 176.316 133.173 176.743C132.597 177.171 131.891 177.386 131.174 177.354L130.862 177.339L127.183 177.168C122.833 177.062 118.391 177.179 113.929 177.472C109.466 177.765 104.98 178.239 100.543 178.917C100.523 178.954 100.502 178.99 100.479 179.024Z" fill="#000000"/>
</svg>
