<svg width="105" height="105" viewBox="0 0 105 105" fill="none" xmlns="http://www.w3.org/2000/svg">
<path d="M35.0906 18.1388C35.4772 17.8868 35.8552 17.6218 36.2491 17.3818L37.4519 16.6964L38.0533 16.3548C38.2542 16.2417 38.467 16.1507 38.6733 16.0477L39.9201 15.4483L40.2319 15.2989L40.5527 15.1697L41.1955 14.9141C41.6244 14.745 42.0513 14.5714 42.4818 14.4075C43.3551 14.1074 44.2343 13.8265 45.1268 13.5998C46.9055 13.1377 48.7178 12.8165 50.5469 12.6393C54.3061 12.2884 58.0966 12.5039 61.7918 13.2786C63.6904 13.6698 65.5568 14.2032 67.3753 14.8745C72.2197 16.6604 76.7322 19.4645 80.256 23.4024C81.1483 24.4099 81.9284 25.5115 82.5825 26.6877C82.9143 27.294 83.2023 27.9232 83.4442 28.5706C83.6841 29.2349 83.8665 29.9187 83.9893 30.6142C84.0276 30.7877 84.0405 30.9673 84.0644 31.1443C84.0824 31.323 84.1149 31.4971 84.1164 31.6806C84.1409 32.0433 84.144 32.4071 84.1257 32.7702L84.0943 33.3138L84.0177 33.8512C83.9646 34.2084 83.8912 34.5623 83.798 34.9112C83.0309 37.7062 81.1989 40.0893 78.6951 41.5493C78.5387 41.6373 78.3877 41.735 78.2262 41.8139L77.7395 42.0465L77.4956 42.1617C77.4128 42.1969 77.3277 42.2268 77.2438 42.2593L76.7377 42.4489C76.3736 42.581 75.9986 42.6807 75.6171 42.7471C75.186 42.8263 74.7465 42.849 74.3096 42.8148C73.7945 42.7743 73.2936 42.627 72.8386 42.3822C72.3841 42.1276 71.9891 41.7792 71.6799 41.3599C71.4472 41.0412 71.2419 40.7034 71.066 40.3501C70.9902 40.2004 70.9232 40.0746 70.8493 39.9515L70.6337 39.5765L70.2045 38.8258C70.0449 38.5849 69.8772 38.3487 69.7148 38.1097L69.4696 37.7518C69.3913 37.63 69.306 37.5129 69.214 37.4011L68.6667 36.7243C65.7109 33.1336 61.5256 30.5442 57.0341 29.2873C55.6534 28.8954 54.2378 28.639 52.8074 28.5218L51.7377 28.4633L51.4703 28.4486L51.2033 28.4552L50.6694 28.4675L50.1355 28.4787C50.0466 28.4815 49.9573 28.4796 49.8688 28.4863L49.6037 28.5139L48.5432 28.6214C47.1314 28.8094 45.7436 29.1471 44.4033 29.6289L43.8981 29.8027C43.732 29.867 43.5705 29.943 43.4063 30.0123L42.425 30.4371L41.4769 30.9331C41.3205 31.0186 41.1566 31.0908 41.0061 31.1866L40.5515 31.4689C38.1089 32.9515 36.0028 34.9279 34.3681 37.2714L33.7922 38.1643L33.6478 38.3872L33.5227 38.6207L33.2715 39.0874C32.9383 39.709 32.6376 40.3475 32.3706 41.0003L32.0277 41.9973C31.9119 42.3076 31.8174 42.6254 31.7448 42.9485C31.7294 43.0191 31.7144 43.0886 31.7069 43.1456C31.6938 43.2114 31.6922 43.256 31.686 43.3029C31.6785 43.381 31.6941 43.4186 31.6709 43.3209C31.649 43.2485 31.6164 43.1797 31.5743 43.1168C31.5461 43.078 31.5171 43.0441 31.4906 43.0134C31.4558 42.982 31.436 42.9615 31.4129 42.9441C31.3201 42.8801 31.3477 42.9112 31.4392 42.9357C31.5691 42.9735 31.701 43.0043 31.8343 43.0279C31.9926 43.0592 32.1764 43.0897 32.36 43.1208C32.7332 43.1829 33.1336 43.2494 33.5354 43.3279C33.9385 43.4064 34.3453 43.4974 34.7499 43.6011C34.9525 43.6521 35.154 43.7088 35.3552 43.7665L35.6557 43.8575C35.7568 43.889 35.8452 43.9131 35.9901 43.9689C36.5667 44.1623 37.095 44.4776 37.539 44.8933C38.0468 45.371 38.4031 45.9874 38.5638 46.6658C38.7072 47.3036 38.6862 47.9673 38.5029 48.5947C38.3454 49.135 38.1006 49.6459 37.778 50.107C37.6258 50.3199 37.4623 50.5245 37.2883 50.72C37.1177 50.9067 36.9596 51.0613 36.8021 51.2105C36.4875 51.5085 36.1801 51.7745 35.8705 52.0358C35.252 52.5548 34.6308 53.041 34.0036 53.517C32.7489 54.4657 31.4738 55.3675 30.1711 56.2377C28.8668 57.1062 27.5407 57.9429 26.1448 58.7228C25.4434 59.1113 24.7299 59.4865 23.9467 59.827C23.5285 60.0124 23.0979 60.1687 22.658 60.2945C22.3757 60.3745 22.0864 60.4276 21.7941 60.453C21.6972 60.461 21.5999 60.4638 21.5027 60.4615L21.3393 60.4547C21.2829 60.451 21.2098 60.4405 21.1461 60.4311C20.9936 60.4078 20.8439 60.3694 20.6991 60.3163C20.6063 60.2807 20.516 60.2389 20.4289 60.1912C20.3867 60.1683 20.3336 60.1386 20.3029 60.1181L20.2311 60.0662C20.1359 59.996 20.043 59.9213 19.9539 59.8439C19.9207 59.8152 19.8892 59.7846 19.8595 59.7523L19.7799 59.669L19.6235 59.5002L19.5059 59.3547C19.3397 59.1539 19.2225 58.9789 19.0886 58.794C18.8481 58.4374 18.6246 58.0855 18.4183 57.7383C18.0025 57.0416 17.6231 56.3477 17.2555 55.6499C16.5255 54.2545 15.8481 52.8475 15.2054 51.4216C14.4179 49.6887 13.7256 47.9142 13.1315 46.1059C12.8141 45.1601 12.5652 44.1926 12.3868 43.2111C12.3621 43.0851 12.3469 42.9394 12.3299 42.7999L12.3055 42.5895L12.2937 42.3524L12.2852 42.1157C12.2883 42.0212 12.2944 41.9228 12.3015 41.8268C12.3137 41.6552 12.3389 41.4847 12.3769 41.3169C12.4503 40.971 12.5696 40.6365 12.7316 40.3222C12.9182 39.9651 13.1733 39.6481 13.4824 39.3896C13.7693 39.1516 14.0984 38.9699 14.4526 38.8538C14.7485 38.7561 15.0559 38.6974 15.3669 38.6791C15.8475 38.6584 16.3287 38.7031 16.7973 38.8118C17.4849 38.9655 18.1581 39.1781 18.8093 39.4471C19.7362 39.8025 20.5999 40.3045 21.3675 40.9339C21.5352 41.0714 21.6805 41.2341 21.7985 41.416C21.8773 41.5533 21.8795 41.6457 21.8353 41.7112C21.7704 41.7835 21.6829 41.8317 21.5871 41.8479C21.5593 41.8554 21.5302 41.8621 21.5006 41.8677C21.4863 41.8702 21.4714 41.8728 21.4558 41.8756L21.3939 41.8769C21.3074 41.8772 21.2117 41.8706 21.1043 41.8601C20.6714 41.8207 20.0438 41.7164 19.2268 41.5817C18.8187 41.5144 18.3623 41.4419 17.866 41.3692C17.3734 41.2997 16.8238 41.2217 16.292 41.1915L16.1669 41.1841L16.0574 41.184C15.9877 41.182 15.9181 41.1842 15.8487 41.1905C15.731 41.1973 15.6141 41.2153 15.4998 41.2443C15.4266 41.2651 15.3567 41.2959 15.2921 41.336C15.2579 41.3617 15.228 41.3926 15.2036 41.4277C15.122 41.5677 15.0714 41.7237 15.0552 41.8849L15.041 41.9768C15.0435 41.9936 15.0446 42.0105 15.0445 42.0275C15.0455 42.0472 15.04 42.054 15.0425 42.0843L15.0517 42.1817L15.0584 42.2793L15.0764 42.3967C15.0904 42.4778 15.0974 42.5527 15.1155 42.6392C15.275 43.3861 15.4792 44.1228 15.7267 44.8454C15.9763 45.5999 16.2515 46.3548 16.534 47.0974C17.1877 48.8077 17.9229 50.5036 18.7078 52.1682C19.101 53.0002 19.5084 53.8249 19.9334 54.6334C20.3586 55.4371 20.8008 56.2437 21.2698 56.9648C21.3865 57.1475 21.5044 57.3134 21.6197 57.4722C21.6736 57.5373 21.734 57.62 21.7807 57.6725C21.802 57.6943 21.8225 57.7166 21.8424 57.7397C21.8525 57.7517 21.8657 57.7672 21.8579 57.756C21.8438 57.7683 21.8944 57.6879 21.7508 57.873C21.7017 57.9376 21.6552 58.0044 21.6112 58.0734L21.5471 58.1783L21.5167 58.2318C21.5268 58.2189 21.2858 58.5979 21.3936 58.4291C21.4155 58.399 21.4317 58.3652 21.4415 58.3293C21.466 58.2775 21.4834 58.2226 21.4934 58.1662C21.4952 58.1433 21.5077 58.1015 21.5155 58.0639C21.5234 58.0259 21.5294 57.988 21.5335 57.9501C21.538 57.9115 21.5389 57.8763 21.5411 57.8354C21.5472 57.7871 21.5516 57.7389 21.5543 57.6909L21.5561 57.6549C21.5567 57.6494 21.5568 57.6439 21.5565 57.6384L21.5562 57.6387C21.5562 57.6387 21.5535 57.6404 21.558 57.6397C21.5769 57.6355 21.5813 57.6412 21.6134 57.6349C21.7663 57.6125 21.917 57.5768 22.0637 57.5283C22.4555 57.3987 22.8386 57.2444 23.2108 57.0663C23.605 56.8818 24.0017 56.6789 24.3968 56.4658C25.9788 55.6061 27.5338 54.6122 29.0519 53.5781C30.5676 52.5398 32.0608 51.4496 33.4677 50.3036C33.818 50.0171 34.1611 49.7261 34.4864 49.4337C34.7825 49.1807 35.0552 48.9015 35.3012 48.5995C35.4884 48.3674 35.6281 48.1007 35.7123 47.8146C35.7719 47.632 35.7704 47.4348 35.7079 47.2531C35.6312 47.0946 35.506 46.9645 35.3505 46.8817C35.3019 46.851 35.2367 46.8283 35.1829 46.7968C35.1225 46.7695 35.0491 46.7503 34.9842 46.7233C34.959 46.7114 34.8972 46.6948 34.8475 46.6799L34.6925 46.6342C34.5896 46.6026 34.485 46.576 34.3811 46.5476C33.5232 46.3274 32.6531 46.1581 31.7752 46.0407C31.5393 46.0038 31.2935 45.9657 31.0169 45.908C30.6778 45.8436 30.3476 45.7385 30.0336 45.5951C29.9251 45.5431 29.82 45.4841 29.7191 45.4187C29.6003 45.3395 29.4886 45.2503 29.3852 45.152C29.1587 44.9341 28.9798 44.6718 28.8596 44.3814C28.7645 44.1413 28.705 43.8885 28.6832 43.6311C28.6664 43.4362 28.6657 43.2403 28.6811 43.0454C28.7065 42.7409 28.7542 42.4387 28.824 42.1412C28.8875 41.8745 28.9491 41.6147 29.0289 41.3789L29.4975 39.9452C30.2812 37.8405 31.3891 35.8713 32.7812 34.1089C34.1477 32.3742 35.7785 30.8653 37.6139 29.6375C39.0335 28.6817 40.5509 27.8801 42.1405 27.2464L42.7327 27.0024C42.9341 26.9311 43.138 26.8667 43.3405 26.7987C43.7474 26.6682 44.149 26.522 44.5599 26.4055C46.2095 25.951 47.9002 25.6622 49.6071 25.5432C50.0334 25.5187 50.4609 25.5241 50.8877 25.5138L51.528 25.5045L52.166 25.5417C52.5908 25.5703 53.0174 25.5854 53.4407 25.6262L54.705 25.7948C55.1288 25.8387 55.5415 25.94 55.9578 26.0226L56.5813 26.1517L56.893 26.2164L57.1993 26.3017L58.4239 26.6446C58.6298 26.6962 58.8273 26.7732 59.0273 26.8428L59.6261 27.055L60.2246 27.268C60.4246 27.3377 60.6149 27.4315 60.8105 27.5123L61.9756 28.017L63.1053 28.5966C63.2922 28.6957 63.484 28.786 63.6667 28.8927L64.2108 29.2201C64.5705 29.4433 64.9422 29.6473 65.291 29.8875L66.332 30.6163L66.5919 30.799L66.84 30.9978L67.3347 31.3976C67.6623 31.6669 68.0013 31.922 68.3039 32.2212L69.2338 33.0915C69.5312 33.3947 69.8142 33.7131 70.1041 34.0239C70.2469 34.1814 70.3946 34.3342 70.5329 34.4958L70.9301 34.9965L71.3261 35.4979C71.4558 35.6668 71.5959 35.8274 71.7093 36.0091L72.421 37.0734C72.4791 37.1628 72.5412 37.2496 72.5958 37.3413L72.7521 37.6215L73.0635 38.1822L73.294 38.5992C73.3707 38.7373 73.4504 38.8802 73.5124 39.0099C73.6146 39.2266 73.7307 39.4366 73.86 39.6385C73.9319 39.7537 74.0238 39.855 74.1315 39.9377C74.2299 40.0008 74.3402 40.043 74.4556 40.0616C74.8591 40.1055 75.2673 40.0617 75.6523 39.9334C75.8833 39.8644 76.1326 39.7608 76.3732 39.6789C76.6097 39.5764 76.8435 39.4656 77.0764 39.354C77.9966 38.8652 78.8196 38.2121 79.5047 37.4271C79.6775 37.2321 79.8401 37.0284 79.9919 36.8167C80.1504 36.6097 80.2759 36.3808 80.4219 36.1652C80.5423 35.9355 80.6733 35.71 80.7822 35.475L80.9358 35.1182L81.0126 34.9397L81.0735 34.756C81.4177 33.7885 81.5611 32.761 81.495 31.7362C81.4003 30.6833 81.1272 29.6543 80.6873 28.6931L80.5194 28.3248L80.3308 27.963C80.2119 27.7191 80.0606 27.4874 79.9265 27.249C79.6347 26.7772 79.3189 26.3206 78.9805 25.881C78.2898 24.986 77.5277 24.1483 76.7018 23.3763C73.686 20.5745 70.1378 18.4074 66.268 17.0039C62.3793 15.5794 58.27 14.8519 54.1287 14.8547C52.061 14.8591 49.9981 15.0542 47.9663 15.4375C47.457 15.5246 46.9563 15.6496 46.4519 15.7594L45.7031 15.954C45.4525 16.016 45.2049 16.0876 44.9587 16.164C44.7123 16.2396 44.4637 16.309 44.2189 16.3896L43.4872 16.6391C43.0004 16.8085 42.5278 17.0186 42.0469 17.2059L41.3282 17.4946C41.0916 17.5978 40.8628 17.7182 40.6296 17.829C40.1666 18.0577 39.6975 18.2754 39.2385 18.5123C38.347 19.0348 37.4299 19.5173 36.5872 20.1204C35.7094 20.6712 34.9087 21.3297 34.0856 21.9584C33.6877 22.2895 33.307 22.6415 32.9163 22.9818C32.724 23.1552 32.5236 23.3204 32.3376 23.5005L31.7903 24.0527C29.5179 26.3254 27.5431 28.8775 25.9134 31.6476C24.4086 34.2285 23.1933 36.9677 22.2896 39.8153C21.9284 41.0396 21.5927 41.6192 21.3938 41.5196L22.3615 41.233C22.3149 41.1722 22.3335 41.1805 22.3786 41.2179L21.3712 41.5162C21.2733 41.4492 21.2116 41.2065 21.2011 40.7851C21.1958 40.5745 21.2032 40.3193 21.2252 40.0197C21.2362 39.8699 21.251 39.709 21.2695 39.5371C21.2794 39.4512 21.2897 39.3625 21.3003 39.2709C21.3178 39.1808 21.3359 39.088 21.3546 38.9923C21.4684 38.4463 21.5829 37.8972 21.698 37.345C21.7486 37.0661 21.8363 36.7974 21.9116 36.5239C21.9897 36.2509 22.068 35.9773 22.1465 35.7032C22.2268 35.4294 22.302 35.1528 22.3885 34.8795C22.4865 34.6102 22.5846 34.3405 22.6829 34.0702C22.7823 33.7999 22.8817 33.529 22.9814 33.2577L23.132 32.8503C23.1876 32.7168 23.2487 32.5857 23.307 32.453C23.5449 31.9237 23.7833 31.3932 24.0223 30.8615C24.2848 30.3415 24.5675 29.8301 24.8423 29.3132C25.1057 28.789 25.4319 28.3021 25.7406 27.8035L26.2092 27.0587L26.3269 26.8727L26.4557 26.6945L26.7136 26.3384C26.9985 25.949 27.2843 25.5585 27.571 25.1667C27.8684 24.7833 28.1934 24.4201 28.5067 24.0461C29.1195 23.2849 29.8318 22.6083 30.5158 21.9044C30.684 21.7253 30.868 21.5625 31.0526 21.4001L31.6036 20.9102L32.1554 20.4209L32.4314 20.1766L32.7224 19.9502C33.5019 19.3506 34.2602 18.7243 35.0871 18.1956C35.0873 18.1766 35.0884 18.1577 35.0906 18.1388Z" fill="black"/>
<path d="M69.5425 88.0357C67.9986 88.9884 66.3795 89.8135 64.7013 90.5028L64.0681 90.7565L63.4114 90.9899L63.0829 91.1054L62.7518 91.2062L62.0898 91.4066C61.2027 91.6407 60.3129 91.8551 59.419 92.0022C57.6468 92.3083 55.8545 92.4835 54.0566 92.5266C52.2787 92.5748 50.4996 92.5314 48.7262 92.3963C44.9786 92.0987 41.264 91.4755 37.6244 90.534C35.1648 89.924 32.7695 89.0789 30.4716 88.0104C29.3744 87.4783 28.2291 86.9253 27.1157 86.2456C25.96 85.5665 24.8995 84.7371 23.9619 83.7792C22.9555 82.7638 22.1941 81.5322 21.7357 80.1781L21.5853 79.6531L21.5122 79.39C21.4917 79.2926 21.4746 79.188 21.4568 79.0871C21.3957 78.7006 21.3694 78.3095 21.3781 77.9184C21.4036 77.2087 21.503 76.5035 21.6747 75.8143C22.0017 74.5224 22.4752 73.272 23.0859 72.0875C23.6801 70.9124 24.3863 69.7974 25.1947 68.7581C26.0301 67.6567 27.0359 66.6957 28.1741 65.9113C28.3314 65.8127 28.4816 65.7101 28.6529 65.6215C28.8203 65.5254 28.9927 65.4383 29.1693 65.3604L29.44 65.241L29.7289 65.1382C29.9354 65.0652 30.147 65.0075 30.3619 64.9656C31.2283 64.8112 32.1204 64.8959 32.9423 65.2107C33.6328 65.4767 34.2862 65.8307 34.8862 66.264C35.4273 66.6476 35.948 67.0594 36.446 67.4975C37.4154 68.34 38.3004 69.1967 39.1872 70.0266C40.9512 71.6891 42.7204 73.2534 44.6456 74.5455C46.5316 75.8433 48.6123 76.8327 50.8094 77.4764C52.1548 77.858 53.5366 78.0969 54.932 78.1894C55.6315 78.2335 56.3344 78.2549 57.0396 78.2293C57.2157 78.228 57.3921 78.2165 57.5684 78.2074C57.7437 78.1951 57.9236 78.196 58.0947 78.172L59.1316 78.0602C59.4759 78.0217 59.818 77.9651 60.1564 77.8908C60.4977 77.8367 60.8357 77.7636 61.1688 77.672L62.1657 77.3984L63.1338 77.0448C64.412 76.5468 65.6216 75.8879 66.7333 75.0841C67.8361 74.2648 68.8371 73.317 69.7153 72.2605C70.5887 71.1878 71.3329 70.0161 71.9325 68.7695L72.1549 68.2991C72.2333 68.1442 72.3031 67.9851 72.3642 67.8226L72.7436 66.8512C72.8535 66.5211 72.9527 66.1869 73.059 65.8554C73.1589 65.564 73.2359 65.2652 73.2892 64.9617C73.3031 64.876 73.311 64.7893 73.3129 64.7024C73.325 64.7458 73.3409 64.7881 73.3604 64.8288C73.4078 64.9213 73.4775 65.0005 73.5632 65.0592C73.5881 65.0723 73.5238 65.0399 73.4241 65.0122C73.1326 64.9373 72.8366 64.8812 72.5379 64.8443L71.4352 64.6973C71.0554 64.6469 70.6692 64.5936 70.2812 64.5333L69.6983 64.438L69.4031 64.3862L69.056 64.3136C68.5337 64.2004 68.0307 64.0119 67.5626 63.7541C67.423 63.6765 67.2893 63.5888 67.1626 63.4916L66.964 63.3364C66.8977 63.2751 66.8323 63.2118 66.7683 63.1475C66.4952 62.8724 66.2768 62.5481 66.1245 62.1916C65.9772 61.8399 65.8943 61.4645 65.8799 61.0834C65.8748 60.9139 65.8799 60.7443 65.8952 60.5755C65.9169 60.424 65.9353 60.2587 65.97 60.12C66.0893 59.6101 66.2775 59.1188 66.5293 58.6597C66.7424 58.263 66.9837 57.8821 67.2513 57.5199C67.5056 57.1715 67.7683 56.8419 68.0392 56.5312C69.1002 55.3356 70.2593 54.2309 71.5042 53.2283C72.7133 52.2379 73.9729 51.3107 75.278 50.4506C75.9309 50.0201 76.5965 49.6054 77.2844 49.2109C77.9868 48.8022 78.7107 48.4318 79.453 48.1013C79.8713 47.9148 80.3032 47.7604 80.7449 47.6394L80.9375 47.5918C81.0053 47.5767 81.0815 47.5634 81.1532 47.5501L81.264 47.5312L81.3932 47.5165C81.486 47.5051 81.5794 47.499 81.673 47.4983C81.8791 47.4956 82.085 47.5137 82.2875 47.5525C82.4587 47.5886 82.627 47.6371 82.7911 47.6976C83.299 47.8937 83.7721 48.17 84.1926 48.5158C84.5423 48.7958 84.873 49.0988 85.1826 49.4227C85.7492 50.0207 86.2758 50.6554 86.7591 51.3226C87.2348 51.9695 87.6727 52.6289 88.0892 53.2974C88.914 54.6295 89.6634 56.0067 90.334 57.4227C91.1677 59.1479 91.8304 60.9507 92.3123 62.8053C92.5758 63.799 92.7188 64.8208 92.7382 65.8487C92.7506 66.4808 92.6435 67.1096 92.4227 67.702C92.2686 68.0982 92.0288 68.4555 91.7203 68.7481C91.4018 69.0412 91.0183 69.2545 90.6013 69.3705C90.2805 69.4588 89.9489 69.5018 89.6161 69.498C89.3447 69.4925 89.0743 69.4635 88.8079 69.4112C88.3692 69.3229 87.9404 69.1906 87.5282 69.0162C86.8817 68.7423 86.2645 68.4038 85.6859 68.006C84.8895 67.4707 84.1632 66.838 83.5237 66.1226C83.3838 65.9712 83.2616 65.8043 83.1594 65.6253C83.143 65.5959 83.1299 65.5647 83.1205 65.5324C83.1085 65.5004 83.0918 65.4703 83.0711 65.443C83.0287 65.3866 82.9804 65.3464 82.9566 65.3099C82.9495 65.3016 82.9444 65.2917 82.9417 65.2811C82.9389 65.2705 82.9387 65.2595 82.941 65.2488C82.9432 65.2381 82.9479 65.228 82.9546 65.2194C82.9614 65.2108 82.9701 65.2039 82.9799 65.1991C83.0356 65.1702 83.0967 65.1532 83.1593 65.1492C83.222 65.1452 83.2848 65.1544 83.3436 65.1762C83.5262 65.1678 83.709 65.1857 83.8865 65.2293C84.5132 65.3889 85.128 65.5922 85.7263 65.8375C86.1117 65.9836 86.5356 66.1474 86.9936 66.3125C87.4702 66.4893 87.9559 66.6404 88.4487 66.7652C88.7394 66.8395 89.037 66.8834 89.3368 66.8963C89.4486 66.9003 89.5605 66.8928 89.6708 66.874C89.7312 66.8629 89.7895 66.8421 89.8432 66.8124C89.8531 66.8104 89.8503 66.7977 89.8568 66.7963C89.8594 66.7948 89.8623 66.7938 89.8652 66.7932H89.8656C89.8994 66.8449 89.7902 66.6776 89.9415 66.909L89.9411 66.9082L89.9402 66.9069L89.9384 66.9043L89.935 66.8999C89.9091 66.8694 89.8801 66.8417 89.8484 66.8172C89.8352 66.8055 89.8363 66.8053 89.8363 66.8053L89.8361 66.8035C89.8362 66.8029 89.8364 66.8024 89.8368 66.802C89.8372 66.8016 89.8377 66.8014 89.8382 66.8014C89.8406 66.7998 89.8419 66.7858 89.8463 66.7804C89.853 66.7699 89.8575 66.7583 89.8598 66.7462C89.8667 66.7312 89.8724 66.7156 89.8766 66.6995C89.9383 66.4568 89.9637 66.2063 89.952 65.9561C89.9195 65.2499 89.8117 64.5491 89.6306 63.8656C89.4519 63.1374 89.2236 62.404 88.9723 61.6851C88.3769 60.0139 87.6597 58.3886 86.8265 56.8224C86.0165 55.2581 85.0706 53.768 83.9999 52.3693C83.7339 52.0331 83.4593 51.7099 83.177 51.4128C82.9151 51.1297 82.6288 50.8701 82.3214 50.6372C82.1993 50.5439 82.0687 50.4623 81.9314 50.3935C81.8661 50.3569 81.7954 50.3309 81.722 50.3164C81.6313 50.3253 81.5416 50.3427 81.4542 50.3684C81.2771 50.4168 81.1028 50.4749 80.932 50.5426C80.1425 50.8665 79.3781 51.2485 78.645 51.6854C77.8832 52.126 77.133 52.6063 76.3975 53.1081C74.9278 54.1085 73.5276 55.2073 72.2066 56.3972C71.561 56.9782 70.9488 57.5953 70.3729 58.2457C69.8354 58.8323 69.3784 59.4878 69.0139 60.195C68.9469 60.3366 68.8909 60.4832 68.8466 60.6335C68.819 60.7347 68.8041 60.839 68.8023 60.9439C68.8247 61.086 68.8041 61.0216 68.8965 61.1172C69.1126 61.2559 69.3529 61.3528 69.6047 61.4028C69.9104 61.4744 70.3969 61.5447 70.8232 61.6049C71.2614 61.6658 71.7033 61.7181 72.1577 61.7705C72.6134 61.8242 73.0762 61.8724 73.5976 61.9602C73.8916 62.0083 74.1818 62.0775 74.4659 62.1671C74.8908 62.2974 75.281 62.5216 75.6076 62.823C75.8161 63.0248 75.9862 63.2627 76.1096 63.5252C76.2187 63.7581 76.2932 64.0056 76.3309 64.2599C76.3805 64.6242 76.3782 64.9936 76.324 65.3572C76.2817 65.6667 76.2212 65.9733 76.143 66.2757C76.0709 66.5538 75.9911 66.803 75.9148 67.069C75.8368 67.3311 75.7587 67.5936 75.6805 67.8565L75.3947 68.6305C75.2947 68.8871 75.212 69.151 75.0961 69.402L74.754 70.1579C74.5397 70.6689 74.2533 71.1459 73.9917 71.6342C72.9169 73.5527 71.4964 75.2559 69.8019 76.6576C68.4785 77.7426 67.0175 78.6482 65.457 79.3508L64.8727 79.6102C64.7749 79.6522 64.679 79.6993 64.5795 79.7368L64.2785 79.843L63.0739 80.2629L61.8433 80.5869L61.5357 80.6673L61.2239 80.7249L60.5998 80.837L59.9757 80.9483C59.7678 80.9855 59.5571 80.995 59.3478 81.0195C58.9291 81.0599 58.5093 81.1059 58.0915 81.1402C57.2615 81.1876 56.4285 81.1966 55.5925 81.1672C53.9151 81.107 52.2489 80.8671 50.6227 80.4516C48.9978 80.03 47.4237 79.4323 45.9287 78.6689C44.4527 77.9115 43.0471 77.0244 41.7283 76.0181C40.4399 75.0293 39.205 73.9729 38.0285 72.8534C36.8613 71.7606 35.7477 70.6368 34.6265 69.6278C33.7991 68.8873 32.9337 68.1931 32.1186 67.8444C31.7757 67.6822 31.3979 67.6077 31.019 67.6275C30.6172 67.6876 30.2315 67.8279 29.8848 68.0399C29.0096 68.5834 28.2311 69.2691 27.5814 70.0688C26.8772 70.9059 26.2555 71.8092 25.725 72.766C25.1878 73.7153 24.7475 74.7163 24.4109 75.7539C24.2492 76.2505 24.1274 76.7591 24.0464 77.275C23.968 77.7334 23.9577 78.2009 24.0159 78.6623L24.0394 78.811C24.0512 78.8648 24.0717 78.9265 24.0871 78.9839L24.184 79.3354C24.213 79.4538 24.2533 79.5691 24.3044 79.6798L24.4402 80.0198C24.5378 80.2442 24.6691 80.456 24.7781 80.6769C24.9192 80.8839 25.0494 81.0969 25.1993 81.3002C25.8465 82.1294 26.6125 82.8584 27.4727 83.4639C28.2791 84.0377 29.1257 84.5527 30.0061 85.0049C30.4552 85.241 30.9132 85.4702 31.3877 85.7099L32.0603 86.0383L32.7447 86.3473C34.6168 87.1417 36.5458 87.795 38.5155 88.3016C42.4867 89.346 46.5597 89.9561 50.6626 90.1214C51.686 90.1599 52.7098 90.1701 53.7302 90.1373C54.7513 90.1133 55.7684 90.0415 56.7786 89.934C58.7859 89.7391 60.7635 89.311 62.6717 88.6583C63.6221 88.3183 64.5517 87.9223 65.4554 87.4725C66.3644 87.0236 67.253 86.5327 68.1211 86C68.9847 85.4628 69.8248 84.8889 70.6416 84.2783C71.4569 83.6676 72.2398 83.014 72.9984 82.3339C75.3439 80.2266 77.4026 77.8206 79.122 75.1775C80.7182 72.7248 81.931 70.0431 82.7186 67.2248C82.7971 66.9119 82.8757 66.6421 82.9526 66.4151C83.0355 66.1948 83.1063 66.0757 83.1423 65.9926C83.2165 65.8338 83.2145 65.8388 83.2776 65.9735C83.3187 66.0676 83.3722 66.1558 83.4367 66.2356C83.5119 66.3246 83.6073 66.3941 83.715 66.4384C83.7308 66.4449 83.7458 66.4532 83.7598 66.4632C83.7647 66.4714 83.7701 66.4632 83.7715 66.4861C83.7723 66.5157 83.773 66.546 83.7737 66.5771C83.7759 66.701 83.7752 66.8359 83.7715 66.9816C83.7679 67.1273 83.7609 67.2838 83.7506 67.4512C83.7325 67.6227 83.7094 67.8062 83.6826 68.0006C83.3567 70.248 82.7043 72.4359 81.7461 74.4948C80.7741 76.5906 79.5585 78.5646 78.1245 80.3759C75.7127 83.374 72.813 85.9443 69.5472 87.979C69.5466 87.998 69.545 88.0169 69.5425 88.0357Z" fill="black"/>
<path d="M23.9391 54.5048C23.7824 54.3697 23.6247 54.2362 23.4765 54.0869C23.4031 54.0047 23.3133 53.9387 23.2129 53.8933C22.932 53.7962 22.6417 53.7144 22.3519 53.6313L21.9198 53.5028C21.7771 53.4637 21.6387 53.4107 21.5065 53.3444C20.8772 53.0072 20.2653 52.6387 19.6729 52.2402C19.582 52.1826 19.5496 52.0298 19.5196 51.8777C19.4915 51.7309 19.6368 51.3755 19.8658 50.9337C20.1995 50.2901 20.661 49.6674 20.8796 49.5908C20.9291 49.5673 20.9858 49.5639 21.0378 49.5812C21.0897 49.5984 21.1331 49.635 21.1587 49.6834C21.2813 49.876 21.4509 50.0343 21.6515 50.1433C21.852 50.2523 22.0771 50.3085 22.3053 50.3067C22.4434 50.3119 22.61 50.2809 22.6553 50.4278C22.8012 50.8951 23.2307 50.9153 23.4541 51.2603C23.6426 51.4733 23.8464 51.6722 24.064 51.8554L24.5876 52.4176C24.7616 52.6057 24.929 52.8044 25.1057 52.9883C25.2456 53.1367 25.3011 53.3983 25.2178 53.8422C25.15 54.0967 25.0013 54.3222 24.7941 54.4848C24.6271 54.5509 24.4499 54.5873 24.2703 54.5923C24.1588 54.5778 24.0522 54.5377 23.9588 54.475L23.9391 54.5048Z" fill="black"/>
<path d="M26.5814 51.7145L25.6203 50.8871C25.4555 50.7354 25.2747 50.602 25.081 50.4895C24.5434 50.2223 24.0226 49.9309 23.4915 49.6543C22.9633 49.3736 22.4375 49.0894 21.9273 48.782C21.2949 48.4096 20.6877 48.0003 20.0844 47.5852L18.2821 46.3288C18.1019 46.1754 17.9594 45.9827 17.8654 45.7655C17.7555 45.5564 17.8583 45.1673 18.0696 44.7109C18.3776 44.0459 18.916 43.4785 19.2638 43.4955C19.365 43.5034 19.4635 43.5316 19.5536 43.5784C19.6437 43.6251 19.7235 43.6895 19.7883 43.7676C20.407 44.4299 21.1839 44.924 22.0461 45.2034C22.2888 45.2842 22.5661 45.332 22.7065 45.5502C23.1553 46.2462 23.8921 46.5311 24.446 47.0762C24.8568 47.4827 25.3435 47.7837 25.7785 48.157C26.1665 48.4897 26.5372 48.8473 26.9177 49.1907L27.4868 49.7078C27.6771 49.8794 27.8703 50.0468 28.0529 50.2295C28.379 50.5554 28.5673 50.9941 28.579 51.455C28.5956 51.707 28.3278 52.0792 28.1061 52.0819C27.8054 52.0839 27.5056 52.05 27.213 51.981C26.9967 51.9126 26.7917 51.8125 26.6047 51.684L26.5814 51.7145Z" fill="black"/>
<path d="M30.9909 49.3639C30.7143 49.1768 30.4446 48.979 30.1738 48.7829C30.0382 48.6682 29.8893 48.5701 29.7303 48.4908C29.2895 48.3058 28.8403 48.1317 28.391 47.9539L28.0548 47.8189C27.9454 47.7696 27.8424 47.7107 27.7367 47.6558C27.5271 47.543 27.321 47.4248 27.1182 47.3012C26.1302 46.6767 25.176 46.0002 24.2597 45.2745C24.121 45.137 24.0233 44.9636 23.9775 44.7736C23.9122 44.5849 24.0576 44.2191 24.3079 43.7861C24.6728 43.1556 25.2214 42.6026 25.5127 42.5953C25.5925 42.594 25.6713 42.6131 25.7417 42.6507C25.812 42.6884 25.8716 42.7434 25.9148 42.8105C26.336 43.3755 26.9394 43.7777 27.623 43.9492C27.8171 44.0017 28.0445 44.0185 28.1367 44.2055C28.4331 44.8036 29.0379 44.9678 29.455 45.3989C29.7579 45.7321 30.1182 45.9848 30.444 46.2893L31.3158 47.11C31.6039 47.39 31.898 47.6626 32.1997 47.9248C32.464 48.1921 32.6165 48.5501 32.6262 48.9259C32.6439 49.1374 32.4388 49.475 32.2565 49.5034C32.0107 49.5407 31.7614 49.5489 31.5137 49.5278C31.3356 49.4945 31.165 49.4291 31.0103 49.3348L30.9909 49.3639Z" fill="black"/>
<path d="M27.2727 39.9606C27.2106 39.8588 27.1538 39.7498 27.0908 39.6491C27.0569 39.5966 27.0263 39.5387 26.9647 39.5245C26.8002 39.4867 26.6194 39.4714 26.4622 39.4237C26.3027 39.3872 26.1471 39.336 25.9972 39.2706C25.6534 39.0977 25.3259 38.8941 25.0189 38.6621C24.9711 38.6295 24.988 38.5066 25.0066 38.3832C25.1305 38.0772 25.2928 37.7883 25.4896 37.5233C25.8866 36.919 26.3654 36.3111 26.5326 36.212C26.639 36.1485 26.6808 36.1822 26.695 36.2491C26.7624 36.555 26.9694 36.666 27.2961 36.6117C27.3865 36.5963 27.5049 36.5466 27.497 36.6645C27.4742 37.0373 27.7475 37.0023 27.8337 37.2248C27.8948 37.3943 28.0429 37.4447 28.1168 37.5969C28.257 37.8569 28.3887 38.1285 28.5374 38.3765C28.5963 38.476 28.5619 38.6944 28.3605 39.1249C28.2285 39.3792 28.0571 39.6111 27.8528 39.8121C27.7346 39.8953 27.6029 39.9576 27.4636 39.9964C27.3775 40.017 27.3488 39.9559 27.2951 39.9305L27.2727 39.9606Z" fill="black"/>
<path d="M29.4966 35.5164C29.4648 35.4454 29.4328 35.3741 29.4013 35.3038C29.3831 35.2682 29.3675 35.2286 29.3273 35.2232C29.2195 35.2093 29.0997 35.2123 28.9957 35.1933C28.892 35.1823 28.7897 35.1599 28.6908 35.1266C28.4719 35.0355 28.2645 34.9189 28.0728 34.7793C28.0429 34.7602 28.0658 34.668 28.0901 34.5752C28.2052 34.3343 28.3435 34.1051 28.5029 33.8909C28.7474 33.507 29.0285 33.1476 29.3422 32.8178C29.4206 32.7612 29.4453 32.783 29.4481 32.832C29.4624 33.0556 29.5916 33.1206 29.8162 33.0544C29.8785 33.0357 29.9627 32.9897 29.9458 33.0781C29.8941 33.3572 30.0809 33.3098 30.1174 33.4681C30.1427 33.5882 30.2359 33.6159 30.2728 33.7203C30.3446 33.8984 30.4097 34.0857 30.4883 34.2544C30.5193 34.3222 30.4769 34.4845 30.3035 34.8156C30.1919 35.0127 30.0566 35.1954 29.9007 35.3597C29.8166 35.4287 29.7227 35.4849 29.6221 35.5266C29.5623 35.5488 29.5483 35.5065 29.5143 35.4924L29.4966 35.5164Z" fill="black"/>
<path d="M31.5568 31.5678L31.4133 31.2445C31.386 31.1895 31.3623 31.1301 31.3047 31.1074C31.1507 31.0471 30.9811 31.0034 30.828 30.9422C30.6738 30.8892 30.5242 30.8233 30.381 30.7453C30.0556 30.5457 29.7484 30.318 29.4628 30.0647C29.4182 30.0288 29.4487 29.912 29.4817 29.7944C29.6429 29.5082 29.8399 29.2437 30.0679 29.0073C30.5388 28.459 31.0912 27.9162 31.2662 27.8415C31.3779 27.7932 31.4129 27.8334 31.4169 27.9024C31.4373 28.2181 31.6225 28.3569 31.9397 28.355C32.0276 28.3541 32.146 28.3245 32.1228 28.4395C32.0527 28.8028 32.316 28.8125 32.3698 29.0443C32.4085 29.2179 32.5378 29.2959 32.5957 29.4494C32.7053 29.7164 32.8057 29.9933 32.9244 30.2503C32.9714 30.3534 32.9171 30.5555 32.6817 30.9349C32.5302 31.157 32.3428 31.3524 32.1272 31.513C32.0047 31.5749 31.8723 31.6146 31.736 31.6304C31.6516 31.6372 31.6301 31.5747 31.5812 31.5426C31.573 31.551 31.5653 31.559 31.5568 31.5678Z" fill="black"/>
<path d="M34.8351 28.2759L34.6566 27.9383C34.6322 27.8773 34.5879 27.8263 34.531 27.7935C34.3646 27.7269 34.1839 27.6763 34.0168 27.6104C33.849 27.552 33.6857 27.481 33.5286 27.3981C33.1673 27.1857 32.8234 26.9451 32.5001 26.6785C32.45 26.6406 32.4726 26.5199 32.4977 26.3984C32.6446 26.1043 32.8318 25.8321 33.054 25.5899C33.5078 25.0272 34.0481 24.472 34.226 24.3984C34.3394 24.3509 34.3791 24.3939 34.3882 24.4664C34.3927 24.5372 34.4114 24.6064 34.4432 24.6697C34.4751 24.7331 34.5194 24.7893 34.5736 24.8351C34.6278 24.8808 34.6907 24.9152 34.7585 24.936C34.8263 24.9568 34.8976 24.9636 34.9681 24.9561C35.0598 24.9579 35.1809 24.9309 35.1655 25.0505C35.12 25.4279 35.3952 25.4465 35.4692 25.6901C35.5235 25.872 35.6633 25.9587 35.7371 26.1192C35.874 26.3991 36.0022 26.6888 36.1481 26.9585C36.2059 27.0666 36.1667 27.2738 35.9543 27.6578C35.8159 27.8819 35.6368 28.0782 35.4263 28.2366C35.3014 28.2973 35.1664 28.3343 35.0281 28.3459C34.9404 28.3504 34.9124 28.2853 34.8585 28.2507L34.8351 28.2759Z" fill="black"/>
<path d="M40.6375 26.4238C40.526 26.2923 40.4263 26.1511 40.3396 26.002C40.299 25.9207 40.239 25.8506 40.1649 25.7979C39.9507 25.6806 39.7263 25.5717 39.5036 25.4584C39.3919 25.4021 39.2823 25.3429 39.1739 25.2822C39.0698 25.2187 38.9696 25.1489 38.8739 25.0733C38.415 24.6966 37.9899 24.2805 37.6035 23.8297C37.5429 23.7638 37.5663 23.6246 37.5938 23.4862C37.6206 23.353 37.8734 23.069 38.2318 22.7256C38.7545 22.2253 39.3782 21.7651 39.5829 21.7328C39.7138 21.7118 39.7586 21.7714 39.7701 21.855C39.7896 22.0312 39.8679 22.1958 39.9925 22.322C40.1171 22.4482 40.2806 22.5287 40.4566 22.5505C40.5643 22.5732 40.706 22.5672 40.6931 22.6988C40.6537 23.1206 40.9902 23.1891 41.087 23.4875C41.1813 23.683 41.2957 23.8681 41.4284 24.0398L41.7185 24.5575C41.8209 24.7253 41.9016 24.9193 42.0055 25.0897C42.0848 25.2297 42.0673 25.4677 41.8954 25.8712C41.7797 26.1035 41.6051 26.3016 41.3891 26.4456C41.2347 26.4994 41.0719 26.5253 40.9085 26.522C40.7957 26.5178 40.7413 26.4426 40.6617 26.3978L40.6375 26.4238Z" fill="black"/>
<path d="M47.1138 24.0646C47.0119 23.9209 46.921 23.7697 46.842 23.6121C46.8074 23.5253 46.7516 23.4486 46.6795 23.3891C46.4709 23.2528 46.2503 23.1283 46.0318 23.0015C45.8128 22.8821 45.6035 22.7455 45.406 22.593C44.9462 22.2086 44.5089 21.7981 44.0963 21.3635C44.0322 21.3 44.0475 21.159 44.0653 21.0185C44.0831 20.8831 44.3165 20.5825 44.6503 20.2146C45.1368 19.6784 45.7295 19.1792 45.941 19.1438C45.9634 19.136 45.9872 19.1332 46.0108 19.1356C46.0344 19.1381 46.0571 19.1458 46.0774 19.1581C46.0976 19.1705 46.1149 19.1871 46.1279 19.207C46.1409 19.2268 46.1493 19.2493 46.1526 19.2727C46.1956 19.4624 46.2937 19.6351 46.4347 19.7691C46.5756 19.9031 46.7531 19.9925 46.9446 20.0258C47.0605 20.0538 47.2105 20.0546 47.2059 20.1943C47.1925 20.6395 47.5501 20.7313 47.6621 21.0568C47.7715 21.2684 47.8981 21.4706 48.0405 21.6615L48.3465 22.2304C48.4462 22.4222 48.5271 22.632 48.6262 22.8243C48.7028 22.9802 48.6689 23.229 48.4547 23.6269C48.313 23.8534 48.1134 24.038 47.8766 24.1618C47.7137 24.1998 47.5454 24.2094 47.3792 24.1901C47.265 24.1751 47.2172 24.093 47.1407 24.04L47.1138 24.0646Z" fill="black"/>
<path d="M53.5643 22.9391L53.2518 22.3612C53.2029 22.2569 53.1345 22.163 53.0502 22.0845C52.809 21.8916 52.5458 21.7175 52.3038 21.5254C52.0581 21.3364 51.8148 21.1453 51.5908 20.9377C51.0375 20.428 50.5393 19.8712 50.0371 19.318C49.9699 19.1987 49.9489 19.0589 49.9783 18.9252C49.9889 18.7764 50.2303 18.4812 50.5802 18.1282C51.0905 17.6135 51.7213 17.1607 51.9515 17.1635C52.0077 17.16 52.0633 17.1775 52.1073 17.2127C52.1512 17.248 52.1804 17.2984 52.1892 17.3541C52.2485 17.5834 52.3609 17.7956 52.5174 17.9735C52.6738 18.1513 52.8699 18.2899 53.0898 18.378C53.2169 18.4346 53.3789 18.4682 53.3817 18.6256C53.3952 19.1249 53.7796 19.3129 53.9309 19.6961C54.0431 19.9812 54.2529 20.1854 54.3855 20.454C54.63 20.9262 54.8641 21.4068 55.1187 21.87C55.2198 22.0553 55.2065 22.3221 54.9884 22.7342C54.887 22.9247 54.5201 23.2291 54.3726 23.233C54.1928 23.2407 54.0132 23.2127 53.8442 23.1506C53.7242 23.1053 53.6728 22.9977 53.5914 22.9173C53.5823 22.9247 53.5737 22.9315 53.5643 22.9391Z" fill="black"/>
<path d="M63.0694 26.4671C62.8321 26.1374 62.6354 25.7769 62.4184 25.4312C62.3122 25.2428 62.1862 25.066 62.0428 24.904C61.6395 24.4895 61.2217 24.0862 60.8052 23.682C60.3972 23.2713 60.0008 22.8516 59.621 22.4189C59.154 21.8856 58.7018 21.3409 58.2568 20.7905C57.8144 20.2382 57.3995 19.6646 56.9716 19.1011C56.8524 18.9049 56.7811 18.6833 56.7635 18.4543C56.7281 18.227 56.9491 17.8925 57.2932 17.5262C57.7945 16.9926 58.4797 16.6165 58.7989 16.7325C58.8903 16.7686 58.9733 16.8233 59.0426 16.893C59.1118 16.9628 59.1658 17.0462 59.2012 17.1379C59.3809 17.5339 59.6126 17.9041 59.8902 18.2388C60.1728 18.572 60.4905 18.8737 60.8378 19.1387C61.0337 19.2878 61.2704 19.4176 61.3283 19.6645C61.5173 20.4497 62.1158 20.9265 62.4565 21.5971C62.7156 22.0907 63.0529 22.5282 63.3306 23.0091L64.0696 24.2982L64.4407 24.9414L64.8017 25.5924C64.907 25.7841 64.9734 25.9947 64.997 26.2121C65.0207 26.4295 65.0011 26.6495 64.9394 26.8593C64.88 27.0952 64.5205 27.3587 64.3207 27.2912C64.0501 27.1985 63.7926 27.0712 63.5546 26.9126C63.3846 26.7761 63.2316 26.6198 63.0988 26.4469C63.089 26.4538 63.0798 26.4601 63.0694 26.4671Z" fill="black"/>
<path d="M73.6034 33.9485C73.2856 33.4274 72.9836 32.8959 72.6706 32.3711C72.504 32.0934 72.3401 31.8119 72.1469 31.5524C71.6195 30.8678 71.078 30.1931 70.5403 29.5157C70.0014 28.8391 69.4777 28.1521 68.9693 27.4547C67.7214 25.7338 66.5386 23.9682 65.3491 22.2073C65.1803 21.9225 65.0606 21.6113 64.995 21.2868C64.9149 20.9749 65.1177 20.6006 65.46 20.222C65.959 19.6703 66.6991 19.385 67.0892 19.6403C67.326 19.8081 67.5107 20.0391 67.6225 20.3069C68.1787 21.4854 68.9346 22.5588 69.8569 23.4794C70.1127 23.7369 70.414 23.9811 70.5254 24.3246C70.8844 25.4198 71.6714 26.2341 72.187 27.2256C72.5702 27.9625 73.0551 28.6358 73.4695 29.3537C73.838 29.9945 74.2111 30.632 74.5496 31.2928C74.8924 31.9508 75.2579 32.5933 75.5925 33.2567C75.7301 33.5178 75.83 33.7971 75.8893 34.0862C75.9377 34.3899 75.9504 34.6981 75.9271 35.0048C75.9204 35.0744 75.8972 35.1414 75.8593 35.2002C75.8215 35.259 75.7701 35.3079 75.7095 35.3429C75.6489 35.3778 75.5809 35.3977 75.511 35.401C75.4412 35.4043 75.3715 35.3908 75.3079 35.3618C75.1235 35.2618 74.9395 35.156 74.7592 35.0452C74.5862 34.9355 74.423 34.8109 74.2717 34.6727C74.0396 34.4432 73.8272 34.1945 73.6368 33.9293L73.6034 33.9485Z" fill="black"/>
<path d="M76.2664 29.9473L75.9483 29.2583C75.8979 29.1345 75.8288 29.0191 75.7434 28.9163C75.2527 28.3936 74.701 27.9119 74.2311 27.3752C73.9428 27.0441 73.6641 26.7065 73.4027 26.3574C73.1614 25.9948 72.9277 25.6272 72.692 25.2609C72.6336 25.1164 72.6238 24.9568 72.664 24.8062C72.6868 24.6416 72.9576 24.3645 73.3426 24.0479C73.9036 23.5866 74.5869 23.2191 74.8366 23.2646C74.9003 23.2732 74.9594 23.3023 75.0051 23.3474C75.0508 23.3925 75.0807 23.4512 75.0902 23.5147C75.153 23.7814 75.27 24.0323 75.434 24.2518C75.598 24.4714 75.8054 24.6548 76.0433 24.7906C76.1752 24.8784 76.3459 24.9474 76.3347 25.1258C76.3051 25.6914 76.7011 25.977 76.8313 26.437C76.9574 26.7564 77.1018 27.0682 77.2639 27.3709C77.5089 27.934 77.7088 28.5267 77.952 29.0908C78.047 29.3172 78.0183 29.6094 77.7774 30.0127C77.6654 30.199 77.2754 30.4516 77.1197 30.4258C76.9233 30.395 76.7341 30.329 76.5611 30.231C76.4339 30.1584 76.3812 30.0319 76.2961 29.929C76.2861 29.9351 76.2768 29.9409 76.2664 29.9473Z" fill="black"/>
<path d="M81.1784 52.8043C81.3758 53.0563 81.5785 53.3029 81.7597 53.5708C81.8512 53.7144 81.9624 53.8445 82.0901 53.9571C82.4492 54.2364 82.8213 54.5031 83.1916 54.7714C83.5673 55.0282 83.9253 55.3099 84.2632 55.6147C85.079 56.3692 85.8371 57.18 86.6014 57.9845C86.7109 58.1363 86.7753 58.3159 86.7872 58.5027C86.8184 58.6927 86.6175 59.0295 86.3051 59.4198C85.8499 59.9885 85.2296 60.4584 84.9429 60.4231C84.8646 60.4132 84.7903 60.383 84.7272 60.3356C84.6642 60.2882 84.6146 60.2251 84.5833 60.1527C84.2628 59.5363 83.7459 59.0443 83.1143 58.7549C82.9349 58.6692 82.7172 58.6102 82.6634 58.4101C82.5748 58.1216 82.4145 57.8602 82.1976 57.6503L81.8973 57.3347C81.8019 57.2227 81.717 57.1021 81.6435 56.9747C81.4261 56.5857 81.1138 56.2852 80.865 55.9252L80.201 54.961L79.5542 53.9806C79.3795 53.7223 79.3224 53.375 79.4581 52.8859C79.5216 52.6599 79.8694 52.3346 80.0526 52.3486C80.2916 52.3664 80.5262 52.4219 80.7479 52.5128C80.8981 52.5962 81.0341 52.7029 81.1508 52.829C81.16 52.8206 81.1688 52.813 81.1784 52.8043Z" fill="black"/>
<path d="M79.1796 55.6651C79.4095 55.9387 79.628 56.2236 79.8552 56.5003C79.9685 56.6527 80.0997 56.7909 80.2459 56.9121C80.4503 57.0639 80.6588 57.2117 80.8675 57.3591L81.4778 57.8174C81.8844 58.123 82.2888 58.431 82.6743 58.7581C82.912 58.9592 83.1466 59.1632 83.3783 59.3703L83.7237 59.6832L84.0538 60.0113L85.3584 61.3397C85.4838 61.5023 85.5648 61.6948 85.5933 61.8983C85.6405 62.1015 85.4536 62.4506 85.1531 62.8515C84.7153 63.4356 84.0953 63.908 83.7885 63.8595C83.7026 63.8444 83.6214 63.8094 83.5515 63.7573C83.4816 63.7051 83.4249 63.6373 83.386 63.5592C82.9963 62.8916 82.4153 62.3563 81.7181 62.0224C81.5184 61.9275 81.2885 61.8509 81.2221 61.6307C81.003 60.9345 80.4145 60.6017 80.0578 60.0413C79.7929 59.6248 79.4316 59.301 79.1416 58.908L77.6168 56.7802C77.5069 56.6143 77.4316 56.428 77.3952 56.2324C77.3588 56.0368 77.362 55.8359 77.4048 55.6416C77.4417 55.4175 77.7504 55.1211 77.9418 55.1471C78.1982 55.1831 78.449 55.252 78.6879 55.3521C78.8573 55.4433 79.0138 55.5567 79.1533 55.6892L79.1796 55.6651Z" fill="black"/>
<path d="M75.1326 57.8894L75.6057 58.6387C75.683 58.7744 75.78 58.898 75.8935 59.0052L76.87 59.8002C77.1962 60.0647 77.5202 60.331 77.824 60.6149C78.0113 60.7894 78.1955 60.9667 78.3765 61.1467C78.5476 61.3353 78.715 61.5271 78.8811 61.72L79.8656 62.888C79.9564 63.0378 80.0007 63.2112 79.9927 63.3862C80.004 63.5682 79.7783 63.8869 79.4407 64.2549C78.9488 64.791 78.3078 65.2304 78.0349 65.1936C77.9622 65.1845 77.8935 65.1552 77.8368 65.1089C77.78 65.0626 77.7375 65.0013 77.714 64.9319C77.4644 64.3413 77.0078 63.862 76.4299 63.5843C76.2649 63.5009 76.0598 63.4428 76.0274 63.2513C75.9372 62.628 75.4559 62.3372 75.22 61.8383C75.0181 61.4929 74.7987 61.1581 74.5627 60.8352C74.3766 60.5292 74.204 60.2117 74.0235 59.901C73.8486 59.5855 73.6542 59.2869 73.4863 58.9653C73.3505 58.7103 73.3332 58.3746 73.4867 57.9307C73.5583 57.7255 73.8924 57.447 74.0663 57.4636C74.2934 57.4854 74.5164 57.5383 74.7291 57.6207C74.8721 57.6922 74.9995 57.7913 75.1039 57.9122C75.1137 57.9044 75.1226 57.8973 75.1326 57.8894Z" fill="black"/>
<path d="M77.4116 68.1466L77.5101 68.5186C77.5204 68.5841 77.5519 68.6445 77.5997 68.6904C77.7464 68.7964 77.9101 68.8906 78.059 68.9951C78.21 69.0929 78.3537 69.2015 78.4889 69.3202C78.7951 69.614 79.078 69.9311 79.3351 70.2687C79.3757 70.3177 79.3263 70.4298 79.2739 70.5422C79.0628 70.7939 78.817 71.0144 78.5439 71.197C77.9702 71.6369 77.3136 72.0484 77.1236 72.0765C77.002 72.0952 76.9738 72.0431 76.9819 71.9698C76.9942 71.8994 76.9924 71.8272 76.9764 71.7575C76.9605 71.6878 76.9308 71.6219 76.8891 71.5639C76.8474 71.5058 76.7945 71.4566 76.7336 71.4192C76.6726 71.3818 76.6048 71.357 76.5341 71.3461C76.4457 71.3215 76.3223 71.3176 76.3651 71.2045C76.4967 70.8467 76.2346 70.7596 76.2193 70.5031C76.2083 70.3121 76.0938 70.1917 76.0582 70.0174C75.9884 69.7108 75.9291 69.3972 75.8481 69.0986C75.8163 68.9791 75.9004 68.7875 76.1909 68.4677C76.3744 68.2848 76.5914 68.1388 76.8299 68.0377C76.965 68.0101 77.104 68.0078 77.2399 68.031C77.3258 68.0484 77.3386 68.1185 77.3834 68.1654L77.4116 68.1466Z" fill="black"/>
<path d="M74.1047 72.7805C74.1374 72.8794 74.1663 72.9815 74.2011 73.0788C74.2135 73.131 74.2406 73.1785 74.2792 73.2157C74.8211 73.5391 75.2928 73.9678 75.6664 74.4764C75.7 74.5154 75.6774 74.5998 75.6533 74.6841C75.5363 74.8667 75.3888 75.0278 75.2173 75.1604C74.8669 75.477 74.4549 75.77 74.322 75.788C74.2374 75.7999 74.2097 75.761 74.2054 75.7067C74.1992 75.594 74.1554 75.4867 74.081 75.4019C74.0067 75.317 73.906 75.2595 73.7951 75.2386C73.7273 75.2197 73.6361 75.2164 73.6523 75.1323C73.7016 74.8654 73.4978 74.7995 73.4535 74.6071C73.4029 74.481 73.3425 74.3591 73.2729 74.2424C73.1815 74.0129 73.0993 73.7762 73.0047 73.5494C72.9674 73.4586 73.0119 73.3092 73.2092 73.0502C73.3351 72.9017 73.4905 72.781 73.6655 72.6957C73.7658 72.6717 73.87 72.6688 73.9715 72.6873C74.0361 72.7012 74.0494 72.7579 74.0852 72.7957L74.1047 72.7805Z" fill="black"/>
<path d="M70.5006 77.1345C70.5337 77.2314 70.5668 77.3286 70.5997 77.4252C70.6137 77.477 70.6388 77.5251 70.6732 77.5663C70.7755 77.668 70.8898 77.762 70.9847 77.8685C71.0842 77.9704 71.1781 78.0777 71.2659 78.19C71.4775 78.4663 71.6576 78.7627 71.8413 79.0569C71.8621 79.1183 71.8605 79.1852 71.8368 79.2456C71.8204 79.3147 71.6886 79.4365 71.5039 79.5775C71.2349 79.783 70.9149 79.9521 70.806 79.9382C70.7796 79.9372 70.7546 79.9265 70.7357 79.908C70.7169 79.8896 70.7056 79.8648 70.704 79.8385C70.6887 79.729 70.6469 79.6249 70.5822 79.5353C70.5175 79.4457 70.4319 79.3733 70.3328 79.3243C70.2745 79.2924 70.1969 79.27 70.2061 79.1971C70.234 78.965 70.0578 78.8614 70.0111 78.6764C69.9791 78.5371 69.8848 78.4368 69.8455 78.3018C69.7689 78.0654 69.6983 77.8253 69.6159 77.5926C69.5834 77.4996 69.6163 77.3715 69.7665 77.1806C69.8623 77.0746 69.9868 76.9988 70.1249 76.9624C70.2136 76.9648 70.3009 76.985 70.3816 77.0218C70.4371 77.0482 70.4522 77.1021 70.4849 77.1439L70.5006 77.1345Z" fill="black"/>
<path d="M66.5106 80.5913L66.5942 80.9323C66.6027 80.9922 66.6303 81.0477 66.6728 81.0907C66.8016 81.192 66.953 81.2781 67.0807 81.3801C67.2123 81.4751 67.3366 81.5798 67.4526 81.6934C67.7159 81.9751 67.9577 82.2762 68.1759 82.5941C68.2105 82.6405 68.167 82.7398 68.1213 82.839C67.9395 83.0548 67.7264 83.2422 67.4892 83.395C66.9934 83.764 66.4254 84.1039 66.2578 84.1223C66.1509 84.1345 66.1244 84.0877 66.1299 84.023C66.1467 83.8937 66.1133 83.7628 66.0364 83.6574C65.9596 83.552 65.8452 83.4802 65.7169 83.4567C65.6371 83.4324 65.526 83.426 65.5622 83.3266C65.6743 83.0116 65.4371 82.9277 65.4196 82.6986C65.4074 82.5277 65.3019 82.4182 65.2722 82.2586C65.2108 81.9796 65.1593 81.6942 65.0883 81.4219C65.0605 81.3129 65.1381 81.1409 65.4046 80.8563C65.5727 80.6939 65.7707 80.5657 65.9876 80.4788C66.1101 80.4566 66.2356 80.4577 66.3576 80.4819C66.4347 80.4998 66.4452 80.564 66.4849 80.6079L66.5106 80.5913Z" fill="black"/>
<path d="M61.5165 83.0438L61.5426 83.3927C61.5408 83.4528 61.5593 83.5118 61.595 83.5603C61.7102 83.6773 61.844 83.7858 61.9572 83.9037C62.0748 84.0153 62.1836 84.1358 62.2827 84.2642C62.5028 84.578 62.6979 84.9086 62.8663 85.2529C62.8937 85.3035 62.8316 85.396 62.7673 85.4881C62.5421 85.6784 62.2909 85.8356 62.0213 85.955C61.4478 86.2546 60.8056 86.5157 60.6317 86.5112C60.5205 86.5088 60.5023 86.4585 60.5198 86.3949C60.5405 86.3335 60.5488 86.2686 60.5441 86.204C60.5394 86.1394 60.5219 86.0764 60.4926 86.0186C60.4633 85.9609 60.4228 85.9095 60.3735 85.8676C60.3241 85.8256 60.2669 85.794 60.2051 85.7744C60.1287 85.7393 60.0173 85.7175 60.0723 85.6236C60.2436 85.3259 60.0186 85.2096 60.0427 84.9794C60.0622 84.8075 59.9735 84.6848 59.9709 84.5228C59.9583 84.2376 59.9568 83.9474 59.9331 83.6675C59.9242 83.5556 60.0329 83.3961 60.3515 83.1517C60.5497 83.0144 60.7718 82.9154 61.0063 82.8597C61.1333 82.8547 61.2601 82.8732 61.3803 82.9143C61.4555 82.9426 61.4552 83.0075 61.4878 83.0564C61.4974 83.0522 61.5064 83.0482 61.5165 83.0438Z" fill="black"/>
<path d="M54.0507 82.1758L54.2219 82.6761C54.2461 82.7654 54.2893 82.8483 54.3486 82.9193C54.5252 83.0947 54.7182 83.2597 54.8959 83.4343C55.0775 83.6032 55.2505 83.7812 55.414 83.9677C55.7959 84.4301 56.1541 84.9116 56.4871 85.4104C56.5393 85.4841 56.5063 85.6125 56.4703 85.7405C56.4351 85.8635 56.1735 86.0941 55.8069 86.3661C55.2723 86.7626 54.644 87.1001 54.445 87.0826C54.422 87.0835 54.399 87.0796 54.3776 87.0711C54.3561 87.0626 54.3367 87.0497 54.3206 87.0333C54.3044 87.0168 54.2918 86.9972 54.2837 86.9757C54.2755 86.9541 54.272 86.9311 54.2732 86.9081C54.2645 86.7164 54.2047 86.5305 54.0999 86.3697C53.9951 86.209 53.8491 86.0792 53.6772 85.9939C53.5776 85.9382 53.444 85.8992 53.4693 85.7678C53.5456 85.351 53.2475 85.1682 53.1842 84.8389C53.1095 84.6141 53.0222 84.3937 52.9228 84.1787C52.7928 83.7703 52.6731 83.3557 52.5326 82.9541C52.4771 82.7936 52.5338 82.5734 52.791 82.247C52.955 82.0662 53.1684 81.9374 53.4048 81.8765C53.5573 81.8816 53.7071 81.9172 53.8456 81.9812C53.9412 82.0271 53.9672 82.1198 54.0236 82.1919L54.0507 82.1758Z" fill="black"/>
<path d="M45.2404 79.0605C45.378 79.3339 45.5105 79.6097 45.6381 79.8881C45.696 80.0396 45.7735 80.1829 45.8684 80.3144C46.4194 80.9842 47.0219 81.6332 47.5246 82.3463C47.6805 82.5638 47.823 82.7907 47.9513 83.0256C48.084 83.2574 48.2105 83.4926 48.3343 83.7291C48.5807 84.2029 48.8144 84.6834 49.0402 85.1674C49.0939 85.34 49.0944 85.5248 49.0417 85.6978C49.0065 85.881 48.7033 86.1259 48.276 86.3838C47.6532 86.7591 46.9116 86.9958 46.6639 86.8848C46.5976 86.8554 46.5409 86.8079 46.5003 86.7479C46.4597 86.6878 46.4368 86.6175 46.4342 86.545C46.3626 85.912 46.0524 85.3301 45.5668 84.9178C45.431 84.7968 45.2512 84.6924 45.2636 84.5006C45.2899 83.8924 44.9059 83.4946 44.7745 82.9631C44.6487 82.5842 44.499 82.2137 44.3261 81.8538C44.1985 81.5196 44.0698 81.1845 43.9359 80.8512C43.8113 80.5121 43.6788 80.1762 43.5359 79.8453C43.4233 79.5805 43.4302 79.2567 43.6395 78.8264C43.7369 78.6278 44.1138 78.3812 44.2808 78.4263C44.4997 78.4844 44.7073 78.5786 44.8953 78.7049C45.0193 78.8119 45.1257 78.9377 45.2105 79.0778L45.2404 79.0605Z" fill="black"/>
<path d="M34.8987 72.2768C35.1304 72.7398 35.3321 73.2185 35.5474 73.6898C35.6532 73.9436 35.7788 74.1887 35.923 74.4229L36.5463 75.3349C36.7547 75.639 36.9432 75.9537 37.1414 76.2637C37.5324 76.8864 37.9127 77.516 38.2658 78.16C38.6959 78.9551 39.1126 79.7581 39.4952 80.5771C39.8717 81.3989 40.2355 82.2263 40.5865 83.0595C40.6796 83.3293 40.718 83.6151 40.6994 83.8999C40.6988 84.1802 40.4151 84.4812 39.9983 84.7682C39.3908 85.1861 38.6199 85.3473 38.312 85.0905C38.1311 84.9273 38.0097 84.7086 37.9672 84.4688C37.7227 83.4085 37.2443 82.4163 36.5669 81.5649C36.3834 81.3234 36.1525 81.0918 36.1238 80.7872C36.0293 79.8134 35.4534 79.0604 35.1641 78.1744C34.9532 77.5125 34.602 76.9165 34.3577 76.268C34.1404 75.6891 33.9212 75.11 33.6933 74.5344C33.4676 73.9577 33.2283 73.3872 32.997 72.811C32.7957 72.3292 32.7625 71.7936 32.903 71.2906C32.9728 71.0314 33.3594 70.8231 33.5722 70.9577C33.8674 71.1465 34.1409 71.3671 34.3881 71.6155C34.5686 71.8253 34.7286 72.0518 34.866 72.2921C34.8771 72.287 34.8873 72.2821 34.8987 72.2768Z" fill="black"/>
<path d="M30.8717 74.6431C31.0119 74.9854 31.1463 75.3304 31.2813 75.6755C31.3422 75.8625 31.4242 76.0419 31.5258 76.2102C32.1122 77.0815 32.7663 77.9178 33.3329 78.7993C33.6721 79.3471 33.9674 79.9174 34.2694 80.4844L35.1512 82.1976C35.2259 82.3946 35.249 82.6073 35.2182 82.8157C35.2053 83.0282 34.9232 83.3057 34.5154 83.597C33.921 84.0214 33.1837 84.2774 32.9055 84.1276C32.8274 84.0833 32.7603 84.0218 32.7093 83.9477C32.6584 83.8737 32.625 83.7891 32.6116 83.7002C32.4387 82.9211 32.047 82.2076 31.4826 81.6434C31.3248 81.482 31.123 81.3331 31.1167 81.1008C31.0917 80.7557 30.997 80.4193 30.8384 80.1119C30.6879 79.8092 30.5622 79.4948 30.4625 79.1719C30.3344 78.6773 30.0948 78.2366 29.9297 77.7597L29.4889 76.4837C29.3506 76.054 29.2091 75.626 29.0605 75.2016C28.9972 75.0076 28.976 74.8022 28.9984 74.5993C29.0207 74.3965 29.0861 74.2007 29.1901 74.025C29.2989 73.8155 29.7063 73.6172 29.8808 73.7066C30.1142 73.8268 30.3289 73.9803 30.5181 74.1623C30.6465 74.3126 30.7547 74.479 30.8399 74.6574L30.8717 74.6431Z" fill="black"/>
<path d="M27.1471 76.9656C27.2275 77.1572 27.3112 77.3467 27.376 77.5479C27.4047 77.6547 27.4552 77.7545 27.5243 77.8409C27.7304 78.0557 27.9516 78.2613 28.1712 78.4678L28.4967 78.7799L28.6538 78.9395C28.7027 78.9949 28.7462 79.0534 28.7906 79.1115C29.2241 79.6858 29.5911 80.3008 29.9647 80.9117C30.0055 81.0403 29.9982 81.1794 29.9443 81.3031C29.9051 81.4465 29.6171 81.6992 29.215 81.9919C28.629 82.4185 27.9374 82.7689 27.7091 82.7384C27.6543 82.7365 27.6023 82.7137 27.5639 82.6745C27.5256 82.6353 27.5038 82.5829 27.5031 82.528C27.4809 82.3004 27.402 82.0819 27.2735 81.8927C27.1449 81.7036 26.971 81.5497 26.7675 81.4452C26.6482 81.3772 26.4882 81.3281 26.513 81.1762C26.5928 80.6905 26.2179 80.4786 26.1654 80.0726C26.0887 79.7982 25.9925 79.5296 25.8775 79.269L25.6536 78.533C25.58 78.2871 25.5191 78.0335 25.4422 77.7895C25.3827 77.5937 25.4481 77.3353 25.7166 76.9774C25.8883 76.7814 26.12 76.6476 26.3755 76.5967C26.5539 76.6135 26.7279 76.6613 26.8899 76.7378C27.0054 76.7936 27.0444 76.8992 27.1166 76.9831L27.1471 76.9656Z" fill="black"/>
</svg>
