<svg width="308" height="372" viewBox="0 0 308 372" fill="none" xmlns="http://www.w3.org/2000/svg">
<path d="M160.01 210.244C170.126 201.588 181.936 196.268 194.275 194.808C197.356 194.459 200.452 194.345 203.544 194.466C206.86 194.583 210.141 195.321 213.269 196.655C214.962 197.419 216.553 198.482 217.988 199.81C219.586 201.273 220.867 203.182 221.721 205.373C222.593 207.637 222.97 210.133 222.816 212.623C222.645 215.032 222.027 217.364 221.007 219.445C220.092 221.327 218.955 223.038 217.631 224.523C216.406 225.909 215.087 227.17 213.689 228.292C212.332 229.363 210.925 230.338 209.474 231.211L208.388 231.841L207.345 232.391L205.262 233.481C203.873 234.204 202.486 234.937 201.061 235.552L196.812 237.476C193.935 238.602 191.08 239.813 188.153 240.736C185.256 241.788 182.296 242.543 179.358 243.393C176.387 244.065 173.432 244.842 170.434 245.309C167.451 245.904 164.441 246.23 161.437 246.612C159.93 246.743 158.421 246.833 156.914 246.945C156.16 246.991 155.407 247.067 154.652 247.088L152.387 247.133L149.986 247.181L148.785 247.201L147.584 247.164L142.779 247.014C139.582 246.75 136.38 246.545 133.198 246.049C126.821 245.198 120.502 243.802 114.288 241.871C111.079 240.981 107.937 239.763 104.897 238.232C103.316 237.427 101.788 236.477 100.326 235.391C98.7985 234.277 97.3819 232.955 96.1044 231.45C94.7773 229.885 93.6413 228.101 92.7307 226.149C91.8174 224.163 91.1749 222.011 90.8279 219.778C90.2103 215.46 90.4862 211.024 91.6309 206.866C92.3185 204.208 93.2457 201.65 94.396 199.237C94.9509 198.042 95.5646 196.888 96.2339 195.781L98.2336 192.539C101.073 188.4 104.321 184.695 107.905 181.508C111.503 178.463 115.335 175.84 119.346 173.677C123.325 171.606 127.416 169.863 131.59 168.459C135.745 167.102 139.94 166.029 144.149 165.17C148.361 164.359 152.578 163.717 156.801 163.242C165.197 162.309 173.739 161.766 182.36 162.535C186.699 162.922 191.006 163.719 195.241 164.919C197.373 165.513 199.48 166.281 201.565 167.127C202.608 167.559 203.642 168.068 204.68 168.54C205.691 169.091 206.719 169.604 207.715 170.194C211.725 172.544 215.481 175.479 218.899 178.933C222.375 182.41 225.398 186.5 227.864 191.065C232.992 200.406 235.028 211.732 233.567 222.8C232.854 228.186 231.512 233.422 229.58 238.351C227.649 243.213 225.241 247.777 222.407 251.943C219.571 256.022 216.412 259.756 212.975 263.093C209.585 266.368 206.008 269.35 202.271 272.017C198.567 274.67 194.775 277.08 190.942 279.293C189.025 280.403 187.108 281.485 185.163 282.49C183.219 283.5 181.295 284.562 179.336 285.527C171.515 289.463 163.525 292.887 155.4 295.787C147.266 298.712 138.991 301.03 130.621 302.728C122.232 304.396 113.759 305.381 105.26 305.677C96.7466 305.998 88.2252 305.488 79.7795 304.15C78.7192 304.03 77.6704 303.797 76.6187 303.593L73.4651 302.97C71.3622 302.6 69.264 302.026 67.168 301.502C62.9835 300.336 58.8557 298.89 54.8034 297.173C50.7407 295.41 46.7846 293.307 42.9639 290.88C39.1186 288.416 35.4721 285.524 32.0719 282.242C27.8277 278.166 24.1177 273.34 21.0675 267.926L19.974 265.846C19.5942 265.164 19.248 264.456 18.9372 263.726L17.9985 261.535C17.6704 260.815 17.3729 260.075 17.1071 259.318C16.0007 256.313 15.1085 253.199 14.4402 250.01C13.1315 243.661 12.6374 237.107 12.975 230.577C13.3282 224.107 14.3696 217.719 16.0735 211.57C17.7596 205.439 20.0186 199.56 22.8067 194.047C25.6045 188.593 28.8366 183.481 32.4569 178.786C39.6405 169.379 48.0302 161.548 56.8388 154.785C65.648 148.014 74.8955 142.113 84.4911 137.14C94.1161 132.136 104.117 128.26 114.355 125.565C124.661 122.834 135.212 121.691 145.756 122.163C151.054 122.408 156.326 123.17 161.522 124.441C164.118 125.101 166.704 125.838 169.252 126.742C170.524 127.203 171.803 127.636 173.055 128.177L174.941 128.952C175.573 129.226 176.236 129.521 176.867 129.841C179.416 131.101 181.868 132.633 184.191 134.419C186.545 136.215 188.739 138.3 190.737 140.642C192.818 143.062 194.578 145.856 195.954 148.925C197.413 152.198 198.184 155.854 198.197 159.571C198.143 163.325 197.275 166.997 195.679 170.22C194.169 173.158 192.315 175.817 190.176 178.115C189.175 179.238 188.167 180.28 187.135 181.273L184.057 184.296L180.857 187.123C180.319 187.586 179.8 188.083 179.246 188.516L177.589 189.829C168.77 196.875 159.151 202.34 149.033 206.051L145.233 207.372C143.966 207.812 142.671 208.124 141.392 208.505L139.468 209.052C138.825 209.225 138.173 209.349 137.526 209.5L133.637 210.355C128.425 211.308 123.166 211.844 117.894 211.959C116.577 211.998 115.259 211.921 113.942 211.907L111.966 211.862C111.308 211.823 110.651 211.756 109.993 211.704C108.678 211.586 107.365 211.497 106.048 211.353C104.728 211.162 103.405 211.013 102.093 210.741C99.4572 210.261 96.8452 209.608 94.2685 208.785C92.9869 208.319 91.6906 207.929 90.4292 207.368C89.7959 207.101 89.1593 206.849 88.5293 206.569L86.6574 205.656C86.0294 205.367 85.4167 205.024 84.8077 204.669C84.1979 204.316 83.5831 203.98 82.9793 203.612C81.7975 202.803 80.5789 202.087 79.4496 201.152C77.1197 199.394 74.9569 197.331 73.0003 195.002L71.5715 193.182C71.0891 192.583 70.6945 191.882 70.254 191.235C69.3973 189.909 68.6114 188.519 67.9008 187.073C67.5581 186.341 67.2612 185.577 66.9418 184.829L66.4729 183.701C66.3285 183.318 66.2071 182.924 66.0737 182.536L65.6853 181.367L65.3561 180.17C65.122 179.377 64.9461 178.563 64.7748 177.747C64.1017 174.49 63.7871 171.139 63.8391 167.783C63.9029 164.468 64.2743 161.172 64.9461 157.957C66.3138 151.661 68.4796 145.658 71.3668 140.162C74.181 134.734 77.4409 129.663 81.0972 125.026C82.9131 122.714 84.7914 120.469 86.7625 118.358L92.7222 112.228C102.538 102.621 113.253 94.4406 124.649 87.8536C135.958 81.3006 147.823 76.2531 160.036 72.8003C169.672 70.0098 179.522 68.4315 189.428 68.0908C191.431 68.0789 193.323 68.0826 195.103 68.102L196.419 68.1189C196.851 68.1328 197.277 68.1813 197.696 68.2114L200.131 68.4246C201.701 68.5707 203.17 68.7234 204.536 68.8829C205.904 69.0557 207.168 69.3559 208.342 69.5854C215.171 71.0205 215 71.9984 209.121 72.2493C203.257 72.4841 191.568 72.1972 175.31 75.0566C174.026 75.2848 172.73 75.4827 171.435 75.7353C170.145 76.0347 168.85 76.3356 167.548 76.6381C166.246 76.9376 164.938 77.2386 163.624 77.5409L159.71 78.6764C158.394 79.0293 157.09 79.4576 155.772 79.8377C154.463 80.2595 153.17 80.7686 151.863 81.23C150.559 81.7015 149.251 82.1741 147.942 82.6477C146.634 83.1272 145.358 83.7316 144.061 84.267C133.739 88.6071 123.788 94.1396 114.346 100.788L110.357 103.658C109.684 104.12 109.044 104.645 108.402 105.167L106.473 106.725L102.613 109.842L98.8962 113.199L97.0372 114.878C96.4163 115.436 95.7915 115.988 95.2085 116.603L91.6452 120.196C89.2551 122.532 86.9831 125.04 84.8416 127.705C82.7006 130.348 80.6895 133.139 78.8186 136.066C76.9466 138.969 75.2466 142.028 73.7313 145.22C72.2173 148.377 70.9504 151.697 69.9471 155.137C68.9443 158.527 68.3026 162.058 68.0375 165.643C67.4852 172.754 68.9693 179.879 72.2419 185.828C73.8698 188.788 75.8644 191.428 78.156 193.656C80.4999 195.884 83.0422 197.79 85.7359 199.337C88.4601 200.908 91.296 202.179 94.2091 203.134C97.1343 204.131 100.115 204.872 103.128 205.352C103.879 205.499 104.638 205.583 105.395 205.68C106.152 205.78 106.908 205.882 107.677 205.92C109.208 206.024 110.737 206.159 112.269 206.238L116.869 206.283C118.402 206.254 119.934 206.137 121.465 206.069C127.589 205.62 133.67 204.544 139.643 202.851L141.875 202.185C142.618 201.962 143.366 201.757 144.096 201.472L148.497 199.869L152.829 198.017C154.264 197.372 155.667 196.628 157.088 195.94C162.715 193.03 168.134 189.562 173.287 185.571C174.551 184.534 175.856 183.567 177.087 182.475L180.771 179.181C183.152 176.933 185.436 174.541 187.616 172.013C189.661 169.509 191.339 166.774 192.123 163.807C192.924 160.811 192.871 157.577 191.973 154.621C190.988 151.494 189.461 148.658 187.493 146.305C185.452 143.804 183.155 141.629 180.659 139.831C178.144 137.987 175.469 136.484 172.682 135.349C171.241 134.773 169.806 134.177 168.34 133.696C166.889 133.158 165.411 132.738 163.939 132.293C160.979 131.48 157.996 130.768 154.98 130.309C153.477 130.038 151.961 129.875 150.451 129.673C149.694 129.582 148.934 129.533 148.176 129.461C147.417 129.393 146.659 129.319 145.897 129.296C132.457 128.511 118.646 130.95 105.458 135.516C92.4362 140.117 79.8799 146.458 68.0222 154.422C58.755 160.586 49.8533 167.584 42.0159 176.021C38.105 180.22 34.5058 184.825 31.2593 189.782C28.0337 194.714 25.2974 200.085 23.1064 205.785C18.7759 217.162 16.8296 229.953 18.1168 242.268C18.7672 248.405 20.3531 254.343 22.7942 259.782C25.2597 265.215 28.467 270.106 32.2811 274.249C36.1372 278.43 40.4184 281.999 45.0213 284.873C49.6614 287.785 54.5142 290.173 59.5178 292.007C64.5444 293.874 69.6814 295.275 74.8843 296.199L78.8027 296.913C80.109 297.147 81.4302 297.255 82.7427 297.432L86.6859 297.908L90.6451 298.168C101.217 298.794 111.815 298.227 122.3 296.476C132.789 294.672 143.153 291.926 153.305 288.26C157.092 286.958 160.82 285.407 164.553 283.876L170.104 281.403C171.951 280.569 173.769 279.634 175.603 278.755C177.443 277.89 179.244 276.91 181.053 275.954C182.865 275.003 184.673 274.042 186.46 273.033C190.03 271.019 193.537 268.894 196.935 266.582C203.708 261.95 210.072 256.523 215.271 249.807C216.564 248.147 217.782 246.403 218.92 244.584C220.039 242.754 221.071 240.85 222.013 238.881C223.903 234.978 225.356 230.788 226.332 226.421C227.302 222.127 227.693 217.672 227.49 213.227C227.246 208.833 226.351 204.527 224.848 200.514C223.316 196.449 221.253 192.709 218.737 189.437C216.196 186.103 213.316 183.171 210.166 180.71C207.002 178.224 203.612 176.185 200.063 174.632C196.459 173.079 192.746 171.928 188.969 171.191C181.373 169.66 173.533 169.526 165.679 170.019C162.182 170.246 158.641 170.569 155.151 171.007C153.398 171.192 151.663 171.481 149.92 171.725C148.184 172.009 146.452 172.31 144.727 172.648C137.87 173.939 131.137 176.058 124.63 178.971C123.044 179.756 121.434 180.49 119.913 181.423C119.15 181.88 118.355 182.277 117.615 182.78L115.389 184.28C114.628 184.747 113.94 185.341 113.228 185.892C112.527 186.46 111.793 186.98 111.116 187.585C109.753 188.776 108.444 190.053 107.194 191.413C106.581 192.103 105.933 192.755 105.345 193.473L103.643 195.704C103.366 196.081 103.06 196.431 102.804 196.831L102.045 198.036L100.525 200.445C98.6575 203.643 97.298 207.233 96.5151 211.031C95.7341 214.578 95.918 218.334 97.0397 221.745C98.2013 225.012 100.443 227.663 103.179 229.682C108.688 233.752 115.758 235.432 122.579 237.148C136.354 240.364 150.457 240.999 164.392 239.031C171.353 238.087 178.247 236.516 185.015 234.332C186.696 233.742 188.395 233.222 190.062 232.577L195.051 230.592L199.964 228.351C201.59 227.568 203.186 226.699 204.803 225.887C205.201 225.678 205.618 225.477 206.002 225.263L207.133 224.612C207.88 224.161 208.609 223.678 209.326 223.175C210.73 222.185 212.052 221.032 213.271 219.732C214.415 218.538 215.384 217.12 216.139 215.537C216.809 214.132 217.115 212.517 217.018 210.901C216.913 209.307 216.415 207.788 215.589 206.54C214.666 205.165 213.506 204.051 212.189 203.276C210.748 202.408 209.226 201.756 207.654 201.335C207.252 201.223 206.846 201.148 206.446 201.002C206.034 200.937 205.625 200.85 205.212 200.799C204.38 200.687 203.564 200.609 202.711 200.582C188.736 200.089 174.988 204.931 163.424 214.421C162.001 215.62 160.579 216.849 159.304 218.161C158.022 219.499 156.822 220.947 155.712 222.493C154.628 224.041 153.651 225.694 152.791 227.436C151.979 229.154 151.334 230.98 150.871 232.878C150.458 234.709 150.331 236.618 150.499 238.505C150.569 238.959 150.59 239.428 150.691 239.873L151.022 241.2C151.149 241.635 151.342 242.042 151.495 242.468C151.65 242.893 151.836 243.301 152.048 243.688C153.735 246.827 156.627 249.036 159.757 250.609C161.014 251.24 162.301 251.816 163.637 252.312C164.972 252.797 166.285 253.359 167.63 253.781C170.306 254.682 172.999 255.449 175.709 256.082C181.091 257.319 186.543 258.055 192.018 258.283C202.722 258.638 213.425 257.532 223.923 254.985C244.575 250.068 263.682 241.624 281.366 233.021C289.491 229.008 293.339 227.248 292.922 228.01C292.486 228.723 287.822 232.035 278.585 237.365C275.307 239.227 271.993 241.068 268.634 242.855C266.96 243.766 265.249 244.585 263.538 245.423C261.832 246.272 260.101 247.067 258.373 247.883C251.439 251.082 244.336 254.042 237.049 256.495C233.394 257.675 229.72 258.829 225.987 259.755C224.131 260.268 222.245 260.644 220.373 261.093C218.484 261.448 216.607 261.886 214.704 262.167C210.915 262.85 207.083 263.243 203.247 263.557C199.404 263.785 195.55 263.898 191.695 263.717C185.303 263.477 178.943 262.525 172.696 260.87C171.127 260.441 169.554 260.03 168.006 259.484L165.673 258.713L163.367 257.824C160.128 256.703 157.016 255.105 154.101 253.065C152.517 251.932 151.074 250.533 149.814 248.91C149.166 248.048 148.586 247.115 148.081 246.123C147.823 245.625 147.596 245.105 147.399 244.568C147.175 244.046 146.98 243.507 146.813 242.955C146.163 240.738 145.861 238.394 145.921 236.043C146.031 233.8 146.401 231.587 147.02 229.469C147.621 227.454 148.396 225.52 149.332 223.7C150.233 221.923 151.248 220.235 152.367 218.65C152.941 217.889 153.485 217.09 154.098 216.378L154.998 215.286L155.942 214.251C156.559 213.544 157.245 212.928 157.897 212.268L159.872 210.497C159.913 210.416 159.954 210.339 160.01 210.244Z" fill="black"/>
</svg>
