<svg width="16" height="16" viewBox="0 0 16 16" fill="none" xmlns="http://www.w3.org/2000/svg">
<g clip-path="url(#clip0_2349_28037)">
<path d="M14 8H12C11.2647 8 10.6667 8.598 10.6667 9.33333C10.6667 10.0687 10.0687 10.6667 9.33333 10.6667H6.66667C5.93133 10.6667 5.33333 10.0687 5.33333 9.33333C5.33333 8.598 4.73533 8 4 8H2C0.897333 8 0 8.89733 0 10V12.6667C0 14.5047 1.49533 16 3.33333 16H12.6667C14.5047 16 16 14.5047 16 12.6667V10C16 8.89733 15.1027 8 14 8ZM14.6667 12.6667C14.6667 13.7693 13.7693 14.6667 12.6667 14.6667H3.33333C2.23067 14.6667 1.33333 13.7693 1.33333 12.6667V10C1.33333 9.632 1.632 9.33333 2 9.33333L4 9.332V9.33333C4 10.804 5.196 12 6.66667 12H9.33333C10.804 12 12 10.804 12 9.33333H14C14.368 9.33333 14.6667 9.632 14.6667 10V12.6667ZM4.862 3.52867C4.60133 3.268 4.60133 2.84667 4.862 2.586L7.05733 0.390667C7.31467 0.133333 7.65267 0.004 7.99067 0.002L8 0L8.00933 0.002C8.348 0.004 8.68533 0.133333 8.94267 0.390667L11.138 2.586C11.3987 2.84667 11.3987 3.268 11.138 3.52867C11.008 3.65867 10.8373 3.724 10.6667 3.724C10.496 3.724 10.3253 3.65867 10.1953 3.52867L8.66667 2V6.66667C8.66667 7.03533 8.36867 7.33333 8 7.33333C7.63133 7.33333 7.33333 7.03533 7.33333 6.66667V2L5.80467 3.52867C5.544 3.78933 5.12267 3.78933 4.862 3.52867Z" fill="#16353E"/>
</g>
<defs>
<clipPath id="clip0_2349_28037">
<rect width="16" height="16" fill="white"/>
</clipPath>
</defs>
</svg>
