<svg width="20" height="23" viewBox="0 0 20 23" fill="none" xmlns="http://www.w3.org/2000/svg">
<path d="M12.4583 7.66674H18.7258C18.3912 6.78016 17.8714 5.97516 17.2011 5.30542L13.8623 1.96467C13.1918 1.29511 12.3865 0.775676 11.5 0.440918V6.70842C11.5 7.23764 11.929 7.66674 12.4583 7.66674Z" fill="#27548A"/>
<path d="M19.1436 9.58332H12.4583C10.8705 9.58332 9.58332 8.29613 9.58332 6.70832V0.023C9.42901 0.0124434 9.27475 0 9.11851 0H4.79164C2.14659 0.00318945 0.00314453 2.14664 0 4.79168V18.2084C0.00314453 20.8534 2.14659 22.9969 4.79164 23H14.375C17.02 22.9969 19.1634 20.8534 19.1666 18.2083V10.0481C19.1666 9.89193 19.1542 9.73763 19.1436 9.58332Z" fill="#27548A"/>
</svg>
