<svg width="24" height="24" viewBox="0 0 24 24" fill="none" xmlns="http://www.w3.org/2000/svg">
<g clip-path="url(#clip0_2319_654)">
<path d="M22.5876 8.81042L15.7517 1.97453C13.6781 -0.0937226 10.3218 -0.0937226 8.24821 1.97453L1.41231 8.81042C0.777054 9.44229 0.420988 10.302 0.423475 11.1981V21.2097C0.4256 22.5166 1.48503 23.5751 2.79185 23.5762H21.208C22.5149 23.5751 23.5742 22.5166 23.5764 21.2097V11.1981C23.5789 10.302 23.2228 9.44229 22.5876 8.81042ZM20.6823 20.6821H15.8588V17.6124C15.8588 15.5782 14.2097 13.9291 12.1755 13.9291H11.8244C9.79018 13.9291 8.14112 15.5782 8.14112 17.6124V20.6821H3.31759V11.1981C3.3179 11.0701 3.36846 10.9475 3.45845 10.8566L10.2943 4.02066C11.2361 3.07868 12.7631 3.0785 13.7051 4.02021C13.7052 4.02035 13.7054 4.02053 13.7056 4.02066L20.5414 10.8566C20.6314 10.9475 20.682 11.0701 20.6823 11.1981V20.6821H20.6823Z" fill="#525252"/>
</g>
<defs>
<clipPath id="clip0_2319_654">
<rect width="23.1529" height="23.1529" fill="white" transform="translate(0.423462 0.42334)"/>
</clipPath>
</defs>
</svg>
