<svg width="24" height="24" viewBox="0 0 24 24" fill="none" xmlns="http://www.w3.org/2000/svg">
<g clip-path="url(#clip0_2617_1215)">
<path d="M22.2341 9.16397L22.2351 9.16492C22.7757 9.7026 23.0787 10.4342 23.0765 11.1966V11.1981V21.2089C23.0748 22.2401 22.2389 23.0754 21.2078 23.0762H2.79239C1.76134 23.0753 0.925479 22.2403 0.923597 21.2093L0.923599 11.1981L0.923595 11.1967C0.921479 10.4342 1.22447 9.7026 1.76504 9.16492L1.76599 9.16397L8.60143 2.32854C8.6015 2.32846 8.60158 2.32839 8.60165 2.32831C10.48 0.455031 13.5201 0.455016 15.3984 2.32827C15.3985 2.32836 15.3986 2.32845 15.3987 2.32854L22.2341 9.16397ZM15.3589 20.6821V21.1821H15.8589H20.6824H20.6824H21.1824V20.6821L21.1824 11.1981L21.1824 11.1968C21.1818 10.9376 21.0793 10.6892 20.8971 10.5049L20.8951 10.503L14.0595 3.66742L14.0592 3.66711L14.0591 3.66697L14.0587 3.66661C12.9215 2.52968 11.0779 2.52987 9.94091 3.66711C9.94089 3.66713 9.94088 3.66715 9.94086 3.66716L3.10501 10.503L3.10317 10.5049C2.92077 10.6892 2.81835 10.9377 2.81771 11.1968V11.1981V20.6821V21.1821H3.31771H8.14125H8.64124V20.6821V17.6124C8.64124 15.8543 10.0664 14.4291 11.8245 14.4291H12.1756C13.9337 14.4291 15.3589 15.8543 15.3589 17.6124V20.6821Z" fill="#27548A" stroke="#F5EEDC"/>
</g>
<defs>
<clipPath id="clip0_2617_1215">
<rect width="23.1529" height="23.1529" fill="white" transform="translate(0.423584 0.42334)"/>
</clipPath>
</defs>
</svg>
