<svg width="63" height="15" viewBox="0 0 63 15" fill="none" xmlns="http://www.w3.org/2000/svg">
<path d="M2.29148 14.16C1.69148 14.16 1.26482 14.0733 1.01148 13.9C0.758151 13.7133 0.604818 13.48 0.551484 13.2C0.498151 12.9067 0.471484 12.6133 0.471484 12.32V2C0.471484 1.70667 0.498151 1.42 0.551484 1.14C0.604818 0.859999 0.758151 0.633333 1.01148 0.459999C1.26482 0.273332 1.69815 0.179999 2.31148 0.179999H6.29148C6.79815 0.179999 7.34482 0.286666 7.93148 0.5C8.51815 0.7 9.07148 1.01333 9.59148 1.44C10.1248 1.86667 10.5582 2.4 10.8915 3.04C11.2248 3.68 11.3915 4.44 11.3915 5.32C11.3915 6.18667 11.2248 6.94 10.8915 7.58C10.5582 8.22 10.1248 8.75333 9.59148 9.18C9.07148 9.59333 8.51815 9.90667 7.93148 10.12C7.34482 10.32 6.79148 10.42 6.27148 10.42H4.13148V12.34C4.13148 12.6333 4.10482 12.92 4.05148 13.2C3.99815 13.48 3.84482 13.7133 3.59148 13.9C3.33815 14.0733 2.90482 14.16 2.29148 14.16ZM4.13148 6.76H6.29148C6.46482 6.76 6.66482 6.72 6.89148 6.64C7.11815 6.54667 7.31815 6.39333 7.49148 6.18C7.66482 5.96667 7.75148 5.67333 7.75148 5.3C7.75148 5.02 7.68482 4.77333 7.55148 4.56C7.41815 4.33333 7.23815 4.16 7.01148 4.04C6.79815 3.90667 6.55148 3.84 6.27148 3.84H4.13148V6.76ZM14.186 14.16C13.586 14.16 13.1593 14.0733 12.906 13.9C12.6527 13.7133 12.4993 13.48 12.446 13.2C12.3927 12.9067 12.366 12.6133 12.366 12.32V2C12.366 1.70667 12.3927 1.42 12.446 1.14C12.4993 0.859999 12.6527 0.633333 12.906 0.459999C13.1593 0.273332 13.5927 0.179999 14.206 0.179999H18.226C18.7327 0.179999 19.2793 0.286666 19.866 0.5C20.4527 0.7 21.006 1.01333 21.526 1.44C22.046 1.86667 22.4727 2.4 22.806 3.04C23.1393 3.68 23.306 4.44 23.306 5.32C23.306 5.93333 23.2127 6.50667 23.026 7.04C22.8527 7.57333 22.586 8.06 22.226 8.5C21.8793 8.92667 21.4527 9.30667 20.946 9.64C20.4527 9.96 19.886 10.2133 19.246 10.4H16.026V12.34C16.026 12.6333 15.9993 12.92 15.946 13.2C15.8927 13.48 15.7393 13.7133 15.486 13.9C15.2327 14.0733 14.7993 14.16 14.186 14.16ZM22.566 13.68C21.966 14.1333 21.4927 14.3133 21.146 14.22C20.7993 14.14 20.426 13.8333 20.026 13.3L16.346 8.3L20.506 7.78L22.986 11.12C23.2527 11.5067 23.4193 11.8333 23.486 12.1C23.566 12.3667 23.5327 12.62 23.386 12.86C23.2393 13.1 22.966 13.3733 22.566 13.68ZM16.026 6.76H18.226C18.346 6.76 18.486 6.74 18.646 6.7C18.8193 6.64667 18.9793 6.56667 19.126 6.46C19.2727 6.34 19.3927 6.18667 19.486 6C19.5927 5.81333 19.646 5.58 19.646 5.3C19.646 5.02 19.5793 4.77333 19.446 4.56C19.3127 4.33333 19.1327 4.16 18.906 4.04C18.6927 3.90667 18.4527 3.84 18.186 3.84H16.026V6.76ZM30.841 14.4C29.8677 14.4 28.9543 14.22 28.101 13.86C27.261 13.4867 26.521 12.9733 25.881 12.32C25.241 11.6667 24.7343 10.9133 24.361 10.06C24.001 9.19333 23.821 8.27333 23.821 7.3C23.821 6.28667 23.9943 5.34 24.341 4.46C24.701 3.58 25.1943 2.80667 25.821 2.14C26.4477 1.47333 27.1743 0.953333 28.001 0.58C28.841 0.206666 29.7343 0.0199988 30.681 0.0199988C31.6543 0.0199988 32.561 0.206666 33.401 0.58C34.2543 0.939999 35.001 1.44667 35.641 2.1C36.281 2.75333 36.781 3.52 37.141 4.4C37.501 5.26667 37.681 6.20667 37.681 7.22C37.681 8.20667 37.501 9.13333 37.141 10C36.7943 10.8667 36.301 11.6333 35.661 12.3C35.0343 12.9533 34.3077 13.4667 33.481 13.84C32.6677 14.2133 31.7877 14.4 30.841 14.4ZM30.741 10.74C31.1943 10.74 31.621 10.6533 32.021 10.48C32.421 10.2933 32.7677 10.0467 33.061 9.74C33.3677 9.42 33.601 9.04667 33.761 8.62C33.9343 8.18 34.021 7.71333 34.021 7.22C34.021 6.72667 33.9343 6.26667 33.761 5.84C33.5877 5.41333 33.3477 5.04 33.041 4.72C32.7477 4.38667 32.401 4.13333 32.001 3.96C31.6143 3.77333 31.201 3.68 30.761 3.68C30.3077 3.68 29.881 3.77333 29.481 3.96C29.0943 4.13333 28.7477 4.38667 28.441 4.72C28.1477 5.04 27.9143 5.41333 27.741 5.84C27.5677 6.26667 27.481 6.72667 27.481 7.22C27.481 7.7 27.5677 8.15333 27.741 8.58C27.9143 9.00667 28.1477 9.38667 28.441 9.72C28.7477 10.04 29.0943 10.2933 29.481 10.48C29.881 10.6533 30.301 10.74 30.741 10.74ZM50.759 11.64C50.959 12.04 51.0657 12.38 51.079 12.66C51.0923 12.94 51.0057 13.1867 50.819 13.4C50.6323 13.6133 50.3323 13.8267 49.919 14.04C49.279 14.3467 48.7857 14.44 48.439 14.32C48.0923 14.2133 47.7657 13.8333 47.459 13.18L44.059 6.22L40.699 13.2C40.379 13.8267 40.0457 14.1933 39.699 14.3C39.3523 14.42 38.8657 14.3267 38.239 14.02C37.8257 13.82 37.519 13.6133 37.319 13.4C37.1323 13.1867 37.0457 12.94 37.059 12.66C37.0723 12.38 37.179 12.04 37.379 11.64L42.399 1.24C42.559 0.919999 42.7923 0.666665 43.099 0.479999C43.419 0.279999 43.7457 0.179999 44.079 0.179999C44.319 0.179999 44.539 0.226666 44.739 0.32C44.9523 0.399999 45.1457 0.52 45.319 0.68C45.4923 0.839999 45.6323 1.03333 45.739 1.26L50.759 11.64ZM40.899 11.28L42.419 8.16H45.719L47.239 11.28H40.899ZM53.7577 14.18C53.1577 14.18 52.7311 14.0933 52.4777 13.92C52.2244 13.7333 52.0711 13.5 52.0177 13.22C51.9644 12.9267 51.9377 12.6333 51.9377 12.34V2C51.9377 1.30667 52.0711 0.833333 52.3377 0.58C52.6177 0.313333 53.1111 0.179999 53.8177 0.179999H61.1377C61.4444 0.179999 61.7311 0.206666 61.9977 0.259999C62.2777 0.313333 62.5044 0.466666 62.6777 0.719999C62.8644 0.973333 62.9577 1.40667 62.9577 2.02C62.9577 2.62 62.8644 3.04667 62.6777 3.3C62.5044 3.55333 62.2777 3.70667 61.9977 3.76C61.7177 3.81333 61.4244 3.84 61.1177 3.84H55.5977V5.62H59.2977C59.6044 5.62 59.8777 5.64667 60.1177 5.7C60.3577 5.74 60.5511 5.86667 60.6977 6.08C60.8444 6.29333 60.9177 6.66667 60.9177 7.2C60.9177 7.70667 60.8444 8.07333 60.6977 8.3C60.5511 8.51333 60.3511 8.64 60.0977 8.68C59.8444 8.72 59.5644 8.74 59.2577 8.74H55.5977V10.52H61.1377C61.4444 10.52 61.7311 10.5467 61.9977 10.6C62.2777 10.6533 62.5044 10.8067 62.6777 11.06C62.8644 11.3133 62.9577 11.7467 62.9577 12.36C62.9577 12.96 62.8644 13.3867 62.6777 13.64C62.5044 13.8933 62.2777 14.0467 61.9977 14.1C61.7177 14.1533 61.4244 14.18 61.1177 14.18H53.7577Z" fill="#183B4E"/>
</svg>
