<svg width="28" height="28" viewBox="0 0 28 28" fill="none" xmlns="http://www.w3.org/2000/svg">
<path d="M14.0001 8.90967C11.1888 8.90967 8.90991 11.1886 8.90991 13.9998C8.90991 16.811 11.1888 19.09 14.0001 19.09C16.8113 19.09 19.0902 16.811 19.0902 13.9998C19.087 11.1899 16.81 8.91284 14.0001 8.90967ZM14.0001 15.59C13.1218 15.59 12.4099 14.878 12.4099 13.9998C12.4099 13.1216 13.1218 12.4097 14.0001 12.4097C14.8783 12.4097 15.5902 13.1216 15.5902 13.9998C15.5896 14.8778 14.878 15.5894 14.0001 15.59Z" fill="#27548A"/>
<path d="M25.6667 14C25.665 12.2123 25.2493 10.4493 24.4522 8.84915L25.0519 8.43265C25.8446 7.88009 26.0394 6.78951 25.487 5.99665C24.9344 5.2039 23.8439 5.0091 23.051 5.5615L22.4502 5.97915C20.6688 4.09899 18.3108 2.86721 15.75 2.47915V1.75C15.75 0.783508 14.9665 0 14 0C13.0335 0 12.25 0.783508 12.25 1.75V2.47915C9.68921 2.86721 7.3312 4.09899 5.54986 5.97915L4.94901 5.5615C4.15615 5.0091 3.06557 5.20395 2.51301 5.99665C1.96061 6.78951 2.15546 7.88009 2.94816 8.43265L3.54781 8.84915C1.92851 12.0921 1.92851 15.9078 3.54781 19.1508L2.94816 19.5673C2.15541 20.1199 1.96061 21.2104 2.51301 22.0033C3.06557 22.796 4.15615 22.9908 4.94901 22.4384L5.54986 22.0208C7.33125 23.901 9.68921 25.1327 12.25 25.5208V26.25C12.25 27.2165 13.0335 28 14 28C14.9665 28 15.75 27.2165 15.75 26.25V25.5209C18.3108 25.1328 20.6688 23.901 22.4502 22.0209L23.051 22.4385C23.8439 22.9909 24.9344 22.796 25.487 22.0034C26.0394 21.2105 25.8446 20.1199 25.0519 19.5674L24.4522 19.1509C25.2493 17.5507 25.665 15.7877 25.6667 14ZM14.0001 22.1666C9.48971 22.1666 5.83342 18.5103 5.83342 14C5.83342 9.4897 9.48971 5.83335 14.0001 5.83335C18.5104 5.83335 22.1667 9.48965 22.1667 14C22.161 18.5079 18.508 22.1609 14.0001 22.1666Z" fill="#27548A"/>
</svg>
