<svg width="64" height="63" viewBox="0 0 64 63" fill="none" xmlns="http://www.w3.org/2000/svg">
<g clip-path="url(#clip0_2342_894)">
<path d="M61.556 26.2046C60.3703 24.8362 58.7538 23.9613 56.9988 23.6505C60.4382 15.7948 61.6448 8.55017 60.0987 4.35593C59.2474 2.03944 57.7561 0.984348 56.654 0.506424C49.8795 -2.43686 40.9609 7.46636 35.5549 17.918C35.5549 17.918 34.5389 19.8767 33.9905 20.9658C33.7084 19.8637 33.3585 18.7746 32.8936 17.7221L30.5536 12.4127C29.8172 10.7413 29.4437 8.97064 29.4437 7.14513V5.22299C30.8879 5.22299 32.0553 4.0556 32.0553 2.61138C32.0553 1.16716 30.8879 -0.000228003 29.4437 -0.000228003H11.1624C9.71822 -0.000228003 8.55084 1.16716 8.55084 2.61138C8.55084 4.0556 9.71822 5.22299 11.1624 5.22299V7.14513C11.1624 8.96803 10.789 10.7413 10.0525 12.4127L7.71251 17.7221C6.82979 19.7174 6.27613 21.8093 6.05153 23.9587C4.74834 24.4 3.55483 25.1417 2.63293 26.2046C1.14432 27.9205 0.473135 30.1952 0.804809 32.5038L3.56528 49.2233C4.66215 56.8936 11.3322 62.6757 19.0782 62.6757H45.1133C52.8594 62.6757 59.5294 56.891 60.6184 49.2782L63.3972 32.4464C63.7184 30.1952 63.0472 27.9205 61.5586 26.202L61.556 26.2046ZM40.1931 20.3155C40.9974 18.7616 41.8175 17.3487 42.6428 16.0481L46.5549 18.0042C46.931 18.1896 47.328 18.2784 47.7197 18.2784C48.6782 18.2784 49.6001 17.7509 50.0597 16.8342C50.7048 15.5441 50.1825 13.9745 48.8923 13.3294L45.7114 11.7389C49.7359 6.76645 53.3373 4.76857 54.5726 5.2935C54.8181 5.40058 55.027 5.69046 55.1994 6.15794C56.1422 8.71732 55.3273 15.181 51.329 23.5016H38.5556C39.1328 22.3499 40.1931 20.3155 40.1931 20.3155ZM12.4918 19.8271L14.8317 14.5177C15.8633 12.1777 16.3857 9.69667 16.3857 7.14513V5.22299H24.2205V7.14513C24.2205 9.69928 24.7428 12.1777 25.7744 14.5177L28.1144 19.8271C28.6367 21.0102 28.9867 22.2428 29.2034 23.5016H11.4079C11.6221 22.2428 11.9747 21.0102 12.497 19.8271H12.4918ZM55.4527 48.4843C54.7214 53.5978 50.2765 57.4551 45.1107 57.4551H19.0756C13.9072 57.4551 9.46229 53.5978 8.7232 48.4294L5.96273 31.7099C5.85305 30.9499 6.07242 30.2108 6.57385 29.6285C7.05961 29.0696 7.73079 28.7666 8.46465 28.7457C8.49338 28.7457 55.6329 28.7274 55.6329 28.7274C56.4007 28.7274 57.1006 29.0461 57.6073 29.6285C58.1087 30.2108 58.3281 30.9499 58.2288 31.6524L55.4527 48.4843ZM21.6063 36.5623V49.6203C21.6063 51.0645 20.4389 52.2319 18.9947 52.2319C17.5504 52.2319 16.383 51.0645 16.383 49.6203V36.5623C16.383 35.118 17.5504 33.9507 18.9947 33.9507C20.4389 33.9507 21.6063 35.118 21.6063 36.5623ZM34.6643 36.5623V49.6203C34.6643 51.0645 33.4969 52.2319 32.0527 52.2319C30.6085 52.2319 29.4411 51.0645 29.4411 49.6203V36.5623C29.4411 35.118 30.6085 33.9507 32.0527 33.9507C33.4969 33.9507 34.6643 35.118 34.6643 36.5623ZM47.7223 36.5623V49.6203C47.7223 51.0645 46.5549 52.2319 45.1107 52.2319C43.6665 52.2319 42.4991 51.0645 42.4991 49.6203V36.5623C42.4991 35.118 43.6665 33.9507 45.1107 33.9507C46.5549 33.9507 47.7223 35.118 47.7223 36.5623Z" fill="#16353E"/>
</g>
<defs>
<clipPath id="clip0_2342_894">
<rect width="62.6786" height="62.6786" fill="white" transform="translate(0.713867)"/>
</clipPath>
</defs>
</svg>
