<svg width="65" height="64" viewBox="0 0 65 64" fill="none" xmlns="http://www.w3.org/2000/svg">
<g clip-path="url(#clip0_2342_919)">
<path d="M38.2393 34.6056H43.5632V39.9296H38.2393V34.6056ZM48.8872 39.9296H54.2111V34.6056H48.8872V39.9296ZM38.2393 50.5775H43.5632V45.2535H38.2393V50.5775ZM48.8872 50.5775H54.2111V45.2535H48.8872V50.5775ZM38.2393 18.6338H43.5632V13.3099H38.2393V18.6338ZM48.8872 18.6338H54.2111V13.3099H48.8872V18.6338ZM38.2393 29.2817H43.5632V23.9577H38.2393V29.2817ZM48.8872 29.2817H54.2111V23.9577H48.8872V29.2817ZM64.859 7.98592V63.8873H0.97168V23.5026C0.97168 21.3703 1.80221 19.3632 3.31155 17.8538L10.5175 10.6479C13.9488 7.21394 19.9382 7.21394 23.3695 10.6479L27.5914 14.8698V7.98592C27.5914 3.58301 31.1744 0 35.5773 0H56.8731C61.276 0 64.859 3.58301 64.859 7.98592ZM27.5914 23.5026C27.5914 22.7918 27.3146 22.121 26.8114 21.6179L19.6055 14.4119C18.2053 13.0117 15.6817 13.0117 14.2815 14.4119L7.07558 21.6179C6.57247 22.121 6.29562 22.7891 6.29562 23.5026V58.5634H27.5914V23.5026ZM59.5351 7.98592C59.5351 6.51917 58.3398 5.32394 56.8731 5.32394H35.5773C34.1106 5.32394 32.9153 6.51917 32.9153 7.98592V58.5634H59.5351V7.98592ZM14.2815 39.9296H19.6055V34.6056H14.2815V39.9296ZM14.2815 29.2817H19.6055V23.9577H14.2815V29.2817ZM14.2815 50.5775H19.6055V45.2535H14.2815V50.5775Z" fill="#16353E"/>
</g>
<defs>
<clipPath id="clip0_2342_919">
<rect width="63.8873" height="63.8873" fill="white" transform="translate(0.97168)"/>
</clipPath>
</defs>
</svg>
