<svg width="47" height="46" viewBox="0 0 47 46" fill="none" xmlns="http://www.w3.org/2000/svg">
<g clip-path="url(#clip0_2342_909)">
<path d="M15.532 7.03418C15.532 4.27158 17.7801 2.04245 20.5237 2.04245H21.2477C21.2477 0.994566 22.105 0.137207 23.1529 0.137207C24.2008 0.137207 25.0582 0.994566 25.0582 2.04245H25.5726C27.6112 2.04245 29.4974 3.12844 30.5262 4.90031C31.0597 5.81483 30.7358 6.97703 29.8403 7.51049C28.9258 8.04396 27.7636 7.72007 27.2301 6.82461C26.8872 6.23398 26.2585 5.87199 25.5726 5.87199H20.5427C19.895 5.87199 19.3615 6.40545 19.3615 7.05324C19.3615 7.64386 19.7806 8.13922 20.3522 8.23449L26.6014 9.28237C29.0211 9.68247 30.7739 11.7592 30.7739 14.2169C30.7739 16.9795 28.5257 19.2087 25.7822 19.2087H25.0582C25.0582 20.2566 24.2008 21.1139 23.1529 21.1139C22.105 21.1139 21.2477 20.2566 21.2477 19.2087H20.7333C18.6947 19.2087 16.8085 18.1227 15.7796 16.3508C15.2462 15.4363 15.5701 14.2741 16.4655 13.7406C17.38 13.2072 18.5422 13.5311 19.0757 14.4265C19.4186 15.0171 20.0474 15.3791 20.7333 15.3791H25.7631C26.4109 15.3791 26.9444 14.8457 26.9444 14.1979C26.9444 13.6073 26.5252 13.1119 25.9536 13.0166L19.7044 11.9688C17.2848 11.5687 15.532 9.49195 15.532 7.03418ZM39.157 5.9482C36.4515 6.48166 34.5844 9.01564 34.5844 11.7782V21.3997C34.089 21.2282 33.5555 21.1139 33.003 21.0758C31.4979 20.9996 30.0118 21.514 28.8687 22.5429L23.1529 27.8013C23.0005 27.6489 22.829 27.4774 22.6766 27.325L17.4563 22.5238C16.3131 21.495 14.827 20.9806 13.3409 21.0758C12.7884 21.1139 12.2549 21.2092 11.7596 21.3997V11.5687C11.7596 8.04396 8.55877 5.26231 4.90071 5.96725C2.19526 6.50072 0.328125 9.03469 0.328125 11.7973V30.8116C0.328125 34.8507 1.92853 38.7374 4.78639 41.5953L8.50161 45.3105C8.88266 45.6915 9.35897 45.863 9.85434 45.863C10.3497 45.863 10.826 45.6725 11.2071 45.3105C11.9501 44.5675 11.9501 43.3671 11.2071 42.6241L7.49184 38.9089C5.33891 36.756 4.13861 33.86 4.13861 30.8307V11.5687C4.13861 10.5208 4.99597 9.66342 6.04385 9.66342C7.09173 9.66342 7.94909 10.5208 7.94909 11.5687C7.94909 11.5687 7.94909 27.0583 7.9872 27.1726C8.06341 28.3729 8.52067 29.5732 9.37803 30.5639L14.3698 35.7462C15.0938 36.5083 16.2941 36.5273 17.0562 35.8033C17.8182 35.0793 17.8373 33.86 17.1133 33.1169L12.2168 28.03C11.6072 27.306 11.6262 26.239 12.2549 25.5341C12.5979 25.153 13.0551 24.9244 13.5696 24.9054C14.084 24.8863 14.5603 25.0578 14.9223 25.3817L20.1236 30.1829C22.086 31.9929 23.191 34.5268 23.191 37.1942V43.9768C23.191 45.0247 24.0484 45.8821 25.0963 45.8821C26.1442 45.8821 27.0015 45.0247 27.0015 43.9768V37.1942C27.0015 35.0031 26.449 32.8502 25.4392 30.945L31.2883 25.4769C32.0314 24.791 33.1554 24.791 33.9175 25.4579C34.7368 26.2009 34.7749 27.4584 34.0128 28.2395L29.4402 32.9645C28.7162 33.7266 28.7353 34.9269 29.4974 35.6509C29.8594 36.0129 30.3357 36.1844 30.812 36.1844C31.3074 36.1844 31.8027 35.9939 32.1838 35.5938L37.0993 30.4877C37.9376 29.497 38.3758 28.2776 38.4139 27.0583C38.4139 26.9821 38.4139 11.5877 38.4139 11.5877C38.4139 10.5398 39.2713 9.68247 40.3192 9.68247C41.367 9.68247 42.2244 10.5398 42.2244 11.5877V30.8307C42.2244 33.86 41.0241 36.775 38.8712 38.9089L35.1559 42.6241C34.4129 43.3671 34.4129 44.5675 35.1559 45.3105C35.537 45.6915 36.0133 45.863 36.5087 45.863C37.004 45.863 37.4803 45.6725 37.8614 45.3105L41.5766 41.5953C44.4345 38.7374 46.0349 34.8698 46.0349 30.8116V11.5687C46.0349 8.04396 42.8341 5.26231 39.176 5.96725L39.157 5.9482Z" fill="#FFE8B1"/>
</g>
<defs>
<clipPath id="clip0_2342_909">
<rect width="45.7258" height="45.7258" fill="white" transform="translate(0.290039 0.137207)"/>
</clipPath>
</defs>
</svg>
