<svg width="60" height="60" viewBox="0 0 60 60" fill="none" xmlns="http://www.w3.org/2000/svg">
<g clip-path="url(#clip0_2342_904)">
<path d="M55 25.0003V14.1153C54.9842 11.3919 54.0865 8.74691 52.4415 6.57642C50.7966 4.40593 48.4927 2.82671 45.875 2.07527C35.4719 -0.687198 24.5281 -0.687198 14.125 2.07527C11.5073 2.82671 9.20345 4.40593 7.55845 6.57642C5.91346 8.74691 5.01584 11.3919 5 14.1153V25.0003C3.67392 25.0003 2.40215 25.5271 1.46447 26.4647C0.526784 27.4024 0 28.6742 0 30.0003L0 32.5003C0 33.8264 0.526784 35.0981 1.46447 36.0358C2.40215 36.9735 3.67392 37.5003 5 37.5003V42.5003C4.99883 44.441 5.45014 46.3554 6.31807 48.0912C7.18601 49.8271 8.44669 51.3367 10 52.5003V53.7503C9.99844 55.3002 10.5729 56.7954 11.6117 57.9457C12.6506 59.0959 14.0798 59.8191 15.6219 59.9749C17.164 60.1307 18.7089 59.7079 19.9568 58.7886C21.2048 57.8694 22.0666 56.5192 22.375 55.0003H37.625C37.9334 56.5192 38.7953 57.8694 40.0432 58.7886C41.2911 59.7079 42.836 60.1307 44.3781 59.9749C45.9202 59.8191 47.3494 59.0959 48.3883 57.9457C49.4272 56.7954 50.0016 55.3002 50 53.7503V52.5003C51.5533 51.3367 52.814 49.8271 53.6819 48.0912C54.5499 46.3554 55.0012 44.441 55 42.5003V37.5003C56.3261 37.5003 57.5979 36.9735 58.5355 36.0358C59.4732 35.0981 60 33.8264 60 32.5003V30.0003C60 28.6742 59.4732 27.4024 58.5355 26.4647C57.5979 25.5271 56.3261 25.0003 55 25.0003ZM32.5 32.5003V17.5003H50V32.5003H32.5ZM10 32.5003V17.5003H27.5V32.5003H10ZM15.5 6.88027C25.0043 4.37439 34.9957 4.37439 44.5 6.88027C45.8153 7.24376 47.0064 7.95919 47.9452 8.94951C48.8839 9.93982 49.5348 11.1675 49.8275 12.5003H10.1725C10.4652 11.1675 11.116 9.93982 12.0548 8.94951C12.9936 7.95919 14.1847 7.24376 15.5 6.88027ZM42.5 50.0003H17.5C15.5109 50.0003 13.6032 49.2101 12.1967 47.8036C10.7902 46.397 10 44.4894 10 42.5003V37.5003H15V40.0003C15 40.6633 15.2634 41.2992 15.7322 41.768C16.2011 42.2369 16.837 42.5003 17.5 42.5003C18.163 42.5003 18.7989 42.2369 19.2678 41.768C19.7366 41.2992 20 40.6633 20 40.0003V37.5003H40V40.0003C40 40.6633 40.2634 41.2992 40.7322 41.768C41.2011 42.2369 41.837 42.5003 42.5 42.5003C43.163 42.5003 43.7989 42.2369 44.2678 41.768C44.7366 41.2992 45 40.6633 45 40.0003V37.5003H50V42.5003C50 44.4894 49.2098 46.397 47.8033 47.8036C46.3968 49.2101 44.4891 50.0003 42.5 50.0003Z" fill="#FFE8B1"/>
</g>
<defs>
<clipPath id="clip0_2342_904">
<rect width="60" height="60" fill="white"/>
</clipPath>
</defs>
</svg>
