<svg width="54" height="48" viewBox="0 0 54 48" fill="none" xmlns="http://www.w3.org/2000/svg">
<g clip-path="url(#clip0_2342_899)">
<path d="M0.682744 18.2899C-0.067899 17.4199 0.101601 16.1639 1.05917 15.4819L19.8472 2.12388C23.8404 -0.714121 29.4185 -0.716121 33.4117 2.12388L52.1997 15.4819C53.1573 16.1619 53.3268 17.4199 52.5762 18.2899C52.1425 18.7939 51.4953 19.0579 50.8415 19.0579C50.3683 19.0579 49.8884 18.9199 49.4877 18.6339L30.6997 5.27588C28.3046 3.57188 24.9565 3.57188 22.5615 5.27588L3.77117 18.6319C2.8114 19.3119 1.43119 19.1559 0.682744 18.2899ZM10.3575 36.4099C10.9012 36.7879 11.2226 37.3759 11.2226 37.9999V45.9999C11.2226 47.1059 10.2386 47.9999 9.02126 47.9999H2.41517C1.19785 47.9999 0.213867 47.1059 0.213867 45.9999C0.213867 41.4279 3.67211 37.2519 8.44012 36.0699C9.09831 35.9099 9.81153 36.0319 10.3575 36.4099ZM53.0472 45.9999C53.0472 47.1059 52.0633 47.9999 50.8459 47.9999H44.242C43.0247 47.9999 42.0407 47.1059 42.0407 45.9999V37.9999C42.0407 37.3759 42.3621 36.7899 42.9059 36.4099C43.454 36.0339 44.1672 35.9099 44.821 36.0699C49.589 37.2519 53.0472 41.4279 53.0472 45.9999ZM10.1197 21.9999C7.07972 21.9999 4.61646 24.2379 4.61646 26.9999C4.61646 29.7619 7.07972 31.9999 10.1197 31.9999C13.1597 31.9999 15.623 29.7619 15.623 26.9999C15.623 24.2379 13.1597 21.9999 10.1197 21.9999ZM48.6424 26.9999C48.6424 24.2379 46.1792 21.9999 43.1392 21.9999C40.0992 21.9999 37.6359 24.2379 37.6359 26.9999C37.6359 29.7619 40.0992 31.9999 43.1392 31.9999C46.1792 31.9999 48.6424 29.7619 48.6424 26.9999ZM26.6295 15.9999C23.5895 15.9999 21.1262 18.2379 21.1262 20.9999C21.1262 23.7619 23.5895 25.9999 26.6295 25.9999C29.6694 25.9999 32.1327 23.7619 32.1327 20.9999C32.1327 18.2379 29.6694 15.9999 26.6295 15.9999ZM37.6359 39.9999V45.9999C37.6359 47.1059 36.652 47.9999 35.4346 47.9999H17.8243C16.6069 47.9999 15.623 47.1059 15.623 45.9999V39.9999C15.623 34.4859 20.5605 29.9999 26.6295 29.9999C32.6984 29.9999 37.6359 34.4859 37.6359 39.9999Z" fill="#16353E"/>
</g>
<defs>
<clipPath id="clip0_2342_899">
<rect width="52.8312" height="48" fill="white" transform="translate(0.213867)"/>
</clipPath>
</defs>
</svg>
