<svg width="67" height="66" viewBox="0 0 67 66" fill="none" xmlns="http://www.w3.org/2000/svg">
<g clip-path="url(#clip0_2342_914)">
<path d="M63.4259 47.0896V59.3675C63.4259 61.2826 61.1116 62.2414 59.7589 60.886L55.7061 56.8332C49.7301 62.38 41.8446 65.5934 33.5461 65.5934C17.4273 65.5961 3.55768 53.5817 1.27866 37.6503C0.960851 35.4229 2.50917 33.3585 4.73657 33.0407C6.94224 32.7202 9.02568 34.2712 9.34621 36.4986C11.0521 48.4397 21.4557 57.4471 33.5434 57.4471C39.6661 57.4471 45.4953 55.1219 49.9529 51.0854L46.3999 47.5324C45.0471 46.1797 46.006 43.8653 47.9183 43.8653H60.1962C61.9781 43.8653 63.4205 45.3077 63.4205 47.0896H63.4259ZM65.8136 28.3496C63.5346 12.4182 49.6649 0.403809 33.5461 0.403809C25.2477 0.403809 17.3621 3.61725 11.3862 9.16402L7.33611 5.11395C5.98337 3.76121 3.66905 4.72008 3.66905 6.63239V18.9103C3.66905 20.6922 5.11143 22.1346 6.89335 22.1346H19.1685C21.0835 22.1346 22.0424 19.8202 20.687 18.4675L17.1367 14.9145C21.5915 10.878 27.4235 8.55285 33.5461 8.55285C45.6339 8.55285 56.0375 17.5575 57.7433 29.5013C58.034 31.5331 59.7779 33 61.7717 33C61.9618 33 62.1601 32.9864 62.353 32.9592C64.5804 32.6414 66.1341 30.577 65.8136 28.3496ZM37.0801 14.6157C35.1868 13.4151 32.6633 13.9774 31.46 15.8843C31.46 15.8843 23.0339 29.3166 22.9279 29.6697C22.4037 31.4028 22.7378 33.3015 23.8135 34.7574C24.8919 36.2107 26.6167 37.0772 28.4258 37.0772H34.2605L28.7464 45.7559C27.543 47.6546 28.1026 50.1754 30.0013 51.3815C30.6804 51.8107 31.4355 52.0144 32.1852 52.0144C33.5326 52.0144 34.85 51.3462 35.6296 50.1265L43.4581 37.797C44.6234 36.0396 44.7266 33.7931 43.7297 31.9379C42.7355 30.0799 40.8042 28.9282 38.6963 28.9282H32.8616L38.3514 20.2386C39.552 18.3344 38.9843 15.8164 37.0801 14.6157Z" fill="#FFE8B1"/>
</g>
<defs>
<clipPath id="clip0_2342_914">
<rect width="65.1923" height="65.1923" fill="white" transform="translate(0.950195 0.403809)"/>
</clipPath>
</defs>
</svg>
