<svg width="22" height="22" viewBox="0 0 22 22" fill="none" xmlns="http://www.w3.org/2000/svg">
<path d="M3.66665 0H6.41665C8.44168 0 10.0833 1.64162 10.0833 3.66665V6.41665C10.0833 8.44168 8.44168 10.0833 6.41665 10.0833H3.66665C1.64162 10.0833 0 8.44173 0 6.41665V3.66665C0 1.64162 1.64162 0 3.66665 0Z" fill="#27548A"/>
<path d="M3.66665 11.9165H6.41665C8.44168 11.9165 10.0833 13.5581 10.0833 15.5832V18.3332C10.0833 20.3582 8.44168 21.9998 6.41665 21.9998H3.66665C1.64162 21.9999 0 20.3582 0 18.3332V15.5832C0 13.5581 1.64162 11.9165 3.66665 11.9165Z" fill="#27548A"/>
<path d="M15.5834 11.9165H18.3334C20.3584 11.9165 22.0001 13.5581 22.0001 15.5832V18.3332C22.0001 20.3582 20.3584 21.9999 18.3334 21.9999H15.5834C13.5584 21.9999 11.9167 20.3582 11.9167 18.3332V15.5832C11.9167 13.5581 13.5583 11.9165 15.5834 11.9165Z" fill="#27548A"/>
<path d="M15.3137 0H18.0637C20.0888 0 21.7304 1.64162 21.7304 3.66665V6.41665C21.7304 8.44173 20.0888 10.0833 18.0637 10.0833H15.3137C13.2887 10.0833 11.6471 8.44173 11.6471 6.41669V3.66669C11.6471 1.64162 13.2887 0 15.3137 0Z" fill="#27548A"/>
</svg>
