<svg width="24" height="24" viewBox="0 0 24 24" fill="none" xmlns="http://www.w3.org/2000/svg">
<g clip-path="url(#clip0_2617_1215)">
<path d="M0.923584 11.1968C0.921732 10.5296 1.15383 9.88616 1.57397 9.37549L1.76538 9.16455L8.60132 2.32861C10.4211 0.513482 13.3316 0.456837 15.2195 2.15869L15.3992 2.32861L22.2351 9.16455C22.7081 9.63505 22.9993 10.2544 23.0632 10.9126L23.0769 11.1968V21.2095C23.0749 22.2404 22.2387 23.0758 21.2078 23.0767H2.79272C1.82601 23.0759 1.03038 22.3413 0.93335 21.3999L0.923584 21.2085V11.1968ZM21.1824 11.1968C21.1818 10.9699 21.1034 10.7512 20.9617 10.5767L20.8972 10.5054L14.0593 3.66748V3.6665H14.0583C12.9566 2.56533 11.1924 2.53114 10.0496 3.56396L9.94116 3.66748L3.10522 10.5034L3.10327 10.5044C2.94372 10.6656 2.84556 10.8765 2.823 11.1001L2.81812 11.1968V21.1821H8.64136V17.6128C8.64136 15.8547 10.0669 14.4292 11.825 14.4292H12.1755C13.9336 14.4292 15.3591 15.8547 15.3591 17.6128V21.1821H21.1824V11.1968Z" fill="#27548A" stroke="#F5EEDC"/>
</g>
<defs>
<clipPath id="clip0_2617_1215">
<rect width="23.1529" height="23.1529" fill="white" transform="translate(0.423584 0.42334)"/>
</clipPath>
</defs>
</svg>
