<svg width="23" height="24" viewBox="0 0 23 24" fill="none" xmlns="http://www.w3.org/2000/svg">
<path d="M10.4375 2.59961C10.9689 2.59961 11.4004 3.03112 11.4004 3.5625C11.4004 4.09385 10.9689 4.52539 10.4375 4.52539H3.52539V19.4746H10.4375C10.9688 19.4746 11.4005 19.906 11.4004 20.4375L11.3945 20.5361C11.3451 21.0211 10.9356 21.4004 10.4375 21.4004H2.5625C2.03117 21.4004 1.59965 20.9689 1.59961 20.4375V3.5625C1.59961 3.03105 2.03114 2.59961 2.5625 2.59961H10.4375Z" fill="#525252" stroke="#525252" stroke-width="0.8"/>
<path d="M14.8757 7.38867C15.228 7.03286 15.7878 7.01002 16.1667 7.32227L16.24 7.38867V7.38965L20.1218 11.3262H20.1208C20.4963 11.7027 20.4883 12.3183 20.1199 12.6904L20.1208 12.6914L16.24 16.6279V16.6289C15.8638 17.0096 15.2519 17.0089 14.8757 16.6289V16.6279C14.525 16.2736 14.5035 15.7154 14.8103 15.3359L14.8757 15.2627L17.1296 12.9766H6.50171C5.9667 12.9766 5.53882 12.5399 5.53882 12.0088C5.53888 11.4777 5.96667 11.041 6.50171 11.041H17.1296L14.8757 8.75391V8.75293C14.5028 8.3755 14.5023 7.7668 14.8757 7.38965V7.38867Z" fill="#525252" stroke="#525252" stroke-width="0.8"/>
</svg>
