<svg width="24" height="28" viewBox="0 0 24 28" fill="none" xmlns="http://www.w3.org/2000/svg">
<path d="M12.0001 8.90967C9.18885 8.90967 6.90991 11.1886 6.90991 13.9998C6.90991 16.811 9.18885 19.09 12.0001 19.09C14.8113 19.09 17.0902 16.811 17.0902 13.9998C17.087 11.1899 14.81 8.91284 12.0001 8.90967ZM12.0001 15.59C11.1218 15.59 10.4099 14.878 10.4099 13.9998C10.4099 13.1216 11.1218 12.4097 12.0001 12.4097C12.8783 12.4097 13.5902 13.1216 13.5902 13.9998C13.5896 14.8778 12.878 15.5894 12.0001 15.59Z" fill="#27548A"/>
<path d="M23.6667 14C23.665 12.2123 23.2493 10.4493 22.4522 8.84915L23.0519 8.43265C23.8446 7.88009 24.0394 6.78951 23.487 5.99665C22.9344 5.2039 21.8439 5.0091 21.051 5.5615L20.4502 5.97915C18.6688 4.09899 16.3108 2.86721 13.75 2.47915V1.75C13.75 0.783508 12.9665 0 12 0C11.0335 0 10.25 0.783508 10.25 1.75V2.47915C7.68921 2.86721 5.3312 4.09899 3.54986 5.97915L2.94901 5.5615C2.15615 5.0091 1.06557 5.20395 0.513009 5.99665C-0.0393894 6.78951 0.155462 7.88009 0.948157 8.43265L1.54781 8.84915C-0.0714909 12.0921 -0.0714909 15.9078 1.54781 19.1508L0.948157 19.5673C0.155407 20.1199 -0.0393894 21.2104 0.513009 22.0033C1.06557 22.796 2.15615 22.9908 2.94901 22.4384L3.54986 22.0208C5.33125 23.901 7.68921 25.1327 10.25 25.5208V26.25C10.25 27.2165 11.0335 28 12 28C12.9665 28 13.75 27.2165 13.75 26.25V25.5209C16.3108 25.1328 18.6688 23.901 20.4502 22.0209L21.051 22.4385C21.8439 22.9909 22.9344 22.796 23.487 22.0034C24.0394 21.2105 23.8446 20.1199 23.0519 19.5674L22.4522 19.1509C23.2493 17.5507 23.665 15.7877 23.6667 14ZM12.0001 22.1666C7.48971 22.1666 3.83342 18.5103 3.83342 14C3.83342 9.4897 7.48971 5.83335 12.0001 5.83335C16.5104 5.83335 20.1667 9.48965 20.1667 14C20.161 18.5079 16.508 22.1609 12.0001 22.1666Z" fill="#27548A"/>
</svg>
