<svg width="28" height="28" viewBox="0 0 28 28" fill="none" xmlns="http://www.w3.org/2000/svg">
<path d="M13.9999 8.90967C11.1887 8.90967 8.90979 11.1886 8.90979 13.9998C8.90979 16.811 11.1887 19.09 13.9999 19.09C16.8111 19.09 19.0901 16.811 19.0901 13.9998C19.0869 11.1899 16.8098 8.91284 13.9999 8.90967ZM13.9999 15.59C13.1217 15.59 12.4098 14.878 12.4098 13.9998C12.4098 13.1216 13.1217 12.4097 13.9999 12.4097C14.8782 12.4097 15.5901 13.1216 15.5901 13.9998C15.5895 14.8778 14.8779 15.5894 13.9999 15.59Z" fill="#525252"/>
<path d="M25.6666 14C25.6648 12.2123 25.2492 10.4493 24.4521 8.84915L25.0517 8.43265C25.8445 7.88009 26.0393 6.78951 25.4869 5.99665C24.9343 5.2039 23.8437 5.0091 23.0509 5.5615L22.45 5.97915C20.6686 4.09899 18.3107 2.86721 15.7499 2.47915V1.75C15.7499 0.783508 14.9664 0 13.9999 0C13.0334 0 12.2499 0.783508 12.2499 1.75V2.47915C9.68909 2.86721 7.33107 4.09899 5.54974 5.97915L4.94889 5.5615C4.15603 5.0091 3.06545 5.20395 2.51289 5.99665C1.96049 6.78951 2.15534 7.88009 2.94804 8.43265L3.54768 8.84915C1.92839 12.0921 1.92839 15.9078 3.54768 19.1508L2.94804 19.5673C2.15529 20.1199 1.96049 21.2104 2.51289 22.0033C3.06545 22.796 4.15603 22.9908 4.94889 22.4384L5.54974 22.0208C7.33113 23.901 9.68909 25.1327 12.2499 25.5208V26.25C12.2499 27.2165 13.0334 28 13.9999 28C14.9664 28 15.7499 27.2165 15.7499 26.25V25.5209C18.3107 25.1328 20.6687 23.901 22.45 22.0209L23.0509 22.4385C23.8437 22.9909 24.9343 22.796 25.4869 22.0034C26.0393 21.2105 25.8444 20.1199 25.0517 19.5674L24.4521 19.1509C25.2492 17.5507 25.6648 15.7877 25.6666 14ZM13.9999 22.1666C9.48959 22.1666 5.83329 18.5103 5.83329 14C5.83329 9.4897 9.48959 5.83335 13.9999 5.83335C18.5103 5.83335 22.1666 9.48965 22.1666 14C22.1608 18.5079 18.5079 22.1609 13.9999 22.1666Z" fill="#525252"/>
</svg>
