<svg width="73" height="97" viewBox="0 0 73 97" fill="none" xmlns="http://www.w3.org/2000/svg">
<path d="M46.4284 17.64C46.3286 16.4635 46.3702 15.1838 46.7594 13.9059L46.9354 13.4336L47.0259 13.1985C47.0606 13.1216 47.1007 13.0463 47.1385 12.9704L47.3721 12.518C47.4574 12.3715 47.5566 12.2329 47.65 12.0912C47.8332 11.8087 48.0509 11.534 48.2872 11.2876C48.4016 11.1594 48.5289 11.0475 48.6506 10.9282C48.7789 10.8192 48.9038 10.7033 49.0376 10.6032C49.5662 10.1898 50.1388 9.85712 50.7321 9.60419C51.3247 9.34739 51.9371 9.16486 52.5581 9.04776C53.8007 8.81847 55.0679 8.83193 56.2809 9.08285C57.4966 9.32285 58.6561 9.79741 59.7068 10.4543C60.7481 11.1212 61.6878 11.9919 62.3996 13.0122C63.8315 15.041 64.4828 17.5667 64.1592 20.0396C63.9955 21.2895 63.6031 22.3583 63.3226 23.3283C63.0336 24.2974 62.8463 25.1731 62.9352 25.9283C63.0026 26.6638 63.3655 27.4005 63.9086 27.9981C64.4512 28.5948 65.1748 29.0594 65.9408 29.2624C66.6977 29.4692 67.5548 29.4475 68.3659 29.2147C69.1803 28.9815 69.9522 28.5365 70.5839 27.9556C70.7436 27.8116 70.8892 27.6544 71.03 27.4943L71.2316 27.2454L71.4271 26.9729C71.6837 26.5946 71.9255 26.1692 72.1705 25.7167C72.6665 24.8158 73.1469 23.7843 73.9626 22.7913C74.3925 22.2702 74.9364 21.769 75.5821 21.4026C76.2289 21.0188 76.9445 20.8169 77.6176 20.716C78.9527 20.5234 80.2911 20.6736 81.5359 21.088C82.7782 21.5033 83.9069 22.1773 84.8649 23.015C85.8247 23.8528 86.633 24.8435 87.2609 25.9378C87.8863 27.033 88.3396 28.23 88.5743 29.4837C88.6883 30.111 88.7467 30.7515 88.7423 31.3952C88.7443 31.5561 88.7395 31.7171 88.7272 31.8782C88.7177 32.0393 88.7109 32.2016 88.6856 32.3567C88.6417 32.6698 88.6061 32.9849 88.5512 33.2957C88.3182 34.5397 87.8616 35.7264 87.2611 36.815C86.6582 37.9041 85.9043 38.8953 85.0455 39.7735C83.8932 40.9396 82.5557 41.9087 81.0968 42.6475C79.6424 43.381 78.0132 43.8527 76.4492 44.0823C74.8765 44.3268 73.3419 44.3927 71.8603 44.4949C70.3808 44.5938 68.9496 44.7247 67.607 45.0438C64.9456 45.6877 62.468 47.1611 60.6106 49.1959C59.6707 50.2032 58.9013 51.3586 58.3109 52.5893C58.0245 53.1783 57.8263 53.7866 57.7253 54.3829C57.6795 54.6784 57.6533 54.9697 57.6659 55.2387C57.6801 55.5065 57.7249 55.7519 57.7977 55.964C57.8673 56.1795 57.9797 56.3461 58.1127 56.4996C58.1728 56.582 58.2635 56.6384 58.337 56.7115C58.3778 56.7427 58.4241 56.7643 58.4653 56.7939L58.5284 56.8368L58.6001 56.8674C58.9617 57.054 59.4854 57.1003 60.0682 57.0302C60.6544 56.9501 61.2826 56.7703 61.9039 56.5142C62.2158 56.3922 62.5247 56.2436 62.8341 56.0936L63.818 55.5916C65.1246 54.9119 66.4096 54.1908 67.6703 53.4299C68.3007 53.0495 68.9251 52.6591 69.5431 52.2589L71.4271 51.0199C72.0807 50.6 72.7696 50.1832 73.5194 49.8196C73.8948 49.6388 74.2851 49.4721 74.6902 49.3275C75.0953 49.1836 75.5207 49.064 75.946 48.973C77.6579 48.6018 79.4392 48.7424 81.0624 49.226C82.693 49.711 84.1768 50.5435 85.4715 51.5835C86.7652 52.6275 87.8756 53.8925 88.7277 55.3323C89.1506 56.0482 89.5225 56.8227 89.79 57.6045C89.925 57.9931 90.0656 58.3804 90.1617 58.7794L90.3209 59.3741C90.3652 59.5739 90.4022 59.775 90.4428 59.9754C90.7586 61.5813 90.8365 63.2148 90.7337 64.8171C90.5132 68.0272 89.6079 71.0965 88.3534 73.9608C88.0453 74.6749 87.6909 75.4166 87.228 76.1521C86.7624 76.8823 86.1651 77.6248 85.3384 78.208C84.9262 78.4988 84.4668 78.7355 83.9629 78.9064C83.4616 79.0669 82.9443 79.1473 82.436 79.1584C81.9262 79.1725 81.4292 79.1049 80.9529 78.9888C80.4763 78.872 80.0184 78.7036 79.5906 78.4812C79.1625 78.2598 78.7547 77.9997 78.3837 77.6872C78.014 77.3775 77.6681 77.0105 77.3853 76.6414C76.8164 75.8883 76.4054 75.0449 76.1472 74.1868C75.8817 73.3278 75.7594 72.4537 75.7304 71.5891C75.7175 71.1609 75.7352 70.7095 75.7594 70.3315L75.8273 69.2253C75.863 68.5266 75.8539 67.8715 75.7417 67.3909C75.6835 67.1565 75.6051 66.9784 75.5218 66.8542C75.4975 66.8275 75.4793 66.7955 75.4577 66.7674C75.4303 66.7459 75.4062 66.7223 75.3841 66.6958C75.3609 66.67 75.3234 66.6561 75.2971 66.6316C75.2701 66.6039 75.2386 66.5916 75.2092 66.5769C75.0923 66.5158 74.9714 66.4835 74.8009 66.4807C74.6325 66.4785 74.4202 66.5145 74.1906 66.5929C73.7282 66.7488 73.2205 67.0741 72.7913 67.4596C72.7378 67.5108 72.6868 67.5539 72.6304 67.6108L72.4599 67.7849C72.3432 67.898 72.239 68.0237 72.1289 68.1435C72.0195 68.264 71.9208 68.3943 71.8155 68.5186L71.5218 68.9104C71.144 69.4435 70.8172 70.0142 70.5475 70.6105C70.2775 71.2065 70.0644 71.8284 69.9201 72.4641C69.7707 73.1096 69.703 73.7096 69.6518 74.4676C69.6244 74.8374 69.5962 75.2328 69.5489 75.646C69.504 76.057 69.437 76.4948 69.3204 76.9528C69.268 77.1792 69.186 77.4177 69.1041 77.6523L68.9514 78.0106C68.9016 78.1293 68.8283 78.2495 68.7655 78.3678C68.4954 78.838 68.1286 79.2991 67.6796 79.6491C67.5724 79.7439 67.4531 79.8129 67.3384 79.8935C67.2232 79.9712 67.106 80.048 66.9788 80.113C66.7289 80.2461 66.471 80.3521 66.2119 80.4343C65.9526 80.5169 65.6923 80.5751 65.4337 80.6145C65.1677 80.6566 64.9388 80.6593 64.6957 80.6743C63.7301 80.7123 62.7702 80.5173 61.9161 80.1877C61.0572 79.8591 60.2918 79.4066 59.603 78.9057C58.9161 78.4014 58.3017 77.847 57.7307 77.2745C57.1554 76.6963 56.646 76.1172 56.1484 75.5633C55.6511 75.0087 55.167 74.4744 54.6744 73.9888C54.3711 73.6911 54.0638 73.4138 53.7522 73.1573C53.4397 72.9039 53.1201 72.6804 52.7954 72.4817C52.6317 72.3868 52.4682 72.2929 52.3007 72.2147L52.1769 72.1531L52.0619 72.1075C51.9842 72.079 51.9127 72.0397 51.831 72.0171C51.5148 71.9053 51.1729 71.8426 50.8308 71.8028C50.4861 71.7713 50.1411 71.7849 49.8079 71.8259C49.4775 71.8774 49.1677 71.9693 48.8904 72.0888C48.6159 72.2132 48.394 72.3773 48.2131 72.5547C48.0253 72.729 47.9172 72.9441 47.8219 73.1765C47.7351 73.4141 47.6965 73.6697 47.708 73.9532C47.7197 74.2358 47.783 74.5437 47.8955 74.8575C48.1247 75.4864 48.5372 76.1245 49.0417 76.6674C49.1075 76.7342 49.167 76.8002 49.2371 76.8689L49.4546 77.0767C49.6052 77.214 49.7595 77.351 49.9212 77.4867C50.2448 77.7588 50.5916 78.0287 50.9531 78.3061C51.6748 78.8622 52.4615 79.4427 53.2213 80.1639C53.4104 80.3457 53.5979 80.5327 53.7801 80.732C53.9619 80.9321 54.157 81.1589 54.3217 81.3864C54.6616 81.8438 54.9538 82.3339 55.1933 82.8593C55.4332 83.3838 55.6158 83.9489 55.7187 84.5529C55.8204 85.1556 55.8391 85.8039 55.7189 86.4622C55.7036 86.5444 55.6905 86.6264 55.6717 86.7083L55.6026 86.9536L55.5294 87.1976L55.4326 87.4362L55.3313 87.6731C55.295 87.7508 55.2505 87.8248 55.2095 87.9003L55.0814 88.1242L55.0488 88.1798L55.0204 88.2223L54.9639 88.3057C54.672 88.7529 54.3304 89.1872 53.9445 89.5974C53.5576 90.0069 53.1178 90.391 52.622 90.7186C52.1272 91.0465 51.5764 91.3145 51.0006 91.4982C49.8432 91.8723 48.6314 91.8868 47.5492 91.7107C46.4587 91.5346 45.466 91.1904 44.5373 90.7904C42.6833 89.979 41.0606 88.9397 39.4932 87.9046L37.1911 86.3579C36.436 85.8566 35.6847 85.3701 34.9522 84.9723C34.5876 84.775 34.227 84.6026 33.8977 84.4793C33.737 84.4233 33.5801 84.3729 33.451 84.3473C33.2778 84.3197 33.0783 84.2761 32.8938 84.2591C32.1409 84.1662 31.3971 84.202 30.638 84.3626C29.8788 84.5178 29.1019 84.8047 28.2774 85.143C27.4494 85.4811 26.5762 85.8784 25.5897 86.1995C25.098 86.3593 24.5811 86.4991 24.0423 86.5974C23.5018 86.6924 22.942 86.7425 22.3806 86.7402C21.8179 86.7432 21.2585 86.6717 20.7149 86.569L20.31 86.4815C20.1767 86.4487 20.0465 86.4097 19.9147 86.3734L19.7178 86.3176L19.5446 86.2639L19.2034 86.1552C18.2876 85.8566 17.2987 85.5065 16.3284 84.9142C15.8452 84.6198 15.373 84.2579 14.9495 83.8319C14.5271 83.407 14.1628 82.9191 13.8701 82.3985C13.2815 81.3533 12.9983 80.1924 12.9394 79.0749C12.8778 77.952 13.036 76.8625 13.3272 75.8302C13.6189 74.7962 14.0599 73.8195 14.6214 72.911C14.9019 72.4565 15.2163 72.0206 15.5662 71.6086C15.912 71.1954 16.3104 70.8017 16.6874 70.4694C18.2252 69.092 19.9763 68.0825 21.7001 67.2509C23.4271 66.413 25.1507 65.718 26.7671 64.9536C27.5829 64.5692 28.3357 64.1793 29.0683 63.7311C29.7982 63.2858 30.4965 62.7974 31.1303 62.256C32.3982 61.1804 33.4528 59.9069 33.9844 58.505L34.1563 57.9754C34.21 57.7983 34.2347 57.6163 34.2787 57.4378C34.288 57.3929 34.3001 57.3483 34.3076 57.3032L34.3211 57.1665L34.3506 56.8936C34.3775 56.7071 34.3811 56.5406 34.3781 56.3733C34.3716 56.0403 34.3189 55.729 34.2342 55.4796C34.1455 55.2319 34.0344 55.0553 33.9084 54.94C33.7645 54.8149 33.625 54.7378 33.423 54.694C33.2226 54.6504 32.9535 54.651 32.6505 54.7084C32.0413 54.8201 31.3361 55.1448 30.7134 55.5727C30.634 55.6245 30.5565 55.6789 30.4818 55.737C30.4058 55.794 30.3334 55.8456 30.2418 55.9198L29.7106 56.3435C29.3489 56.634 28.9669 56.9386 28.5547 57.2374C28.1418 57.5361 27.697 57.8322 27.195 58.0966C26.6937 58.359 26.1308 58.5941 25.4987 58.7239C25.3404 58.7542 25.178 58.7771 25.0174 58.8007C24.8551 58.8197 24.6876 58.8237 24.5227 58.8322C24.1907 58.8335 23.8595 58.8136 23.5171 58.743C22.8403 58.6136 22.1979 58.3296 21.6563 57.9505C21.1146 57.5691 20.6766 57.0994 20.3189 56.5969C19.9628 56.0925 19.6839 55.5514 19.4921 54.9845C19.2974 54.4184 19.1742 53.8298 19.1295 53.2259C19.118 52.9216 19.1094 52.6174 19.1393 52.308C19.1469 52.1497 19.1674 52.007 19.1892 51.8655C19.21 51.7226 19.2299 51.5793 19.2628 51.4401C19.4854 50.3077 19.962 49.2902 20.5112 48.3867C21.6267 46.5861 23.0989 45.2181 24.3576 43.941C24.9904 43.2987 25.5834 42.6683 26.0838 42.0178C26.5752 41.376 27.02 40.6673 27.2139 40.0721C27.316 39.7685 27.3628 39.4843 27.3577 39.2328C27.3551 38.9795 27.2981 38.7585 27.1903 38.5413C26.9863 38.1092 26.5106 37.6765 25.8972 37.3791C25.5933 37.2287 25.2598 37.1082 24.9203 37.0298C24.5821 36.9486 24.2356 36.9074 23.9275 36.9139C23.5777 36.9265 23.1897 36.9655 22.8113 37.0389C22.4281 37.115 22.0383 37.217 21.6423 37.3402C20.8481 37.5932 20.0309 37.9294 19.1725 38.2835C18.7434 38.4605 18.3006 38.6402 17.8453 38.8137C17.3966 38.9871 16.8936 39.1561 16.4017 39.2957C15.4065 39.5729 14.357 39.7608 13.2426 39.7557C12.6881 39.7588 12.1122 39.6922 11.5379 39.5652C10.9633 39.4405 10.3843 39.2269 9.84518 38.926C8.75412 38.3437 7.87317 37.3659 7.33569 36.2866C7.25926 36.1538 7.21122 36.015 7.15277 35.8781C7.09822 35.7406 7.03786 35.6031 6.99078 35.4647L6.86592 35.0478L6.8053 34.8389L6.76163 34.6307L6.6778 34.2136C6.65174 34.0747 6.64067 33.9378 6.6222 33.7996C6.58221 33.5224 6.57019 33.2507 6.55901 32.9785C6.51922 31.8907 6.65174 30.8454 6.88175 29.8366C6.93916 29.5842 6.99997 29.3328 7.07433 29.086C7.14111 28.8367 7.2221 28.592 7.3051 28.3479C7.38307 28.0963 7.48073 27.8808 7.56853 27.6467L7.83955 26.9576C8.75802 24.7588 10.0228 22.72 11.4948 20.8716C11.6711 20.6337 11.8734 20.4184 12.0633 20.1923C12.2574 19.97 12.4461 19.7425 12.6452 19.5252L13.2549 18.8854L13.5602 18.566L13.8787 18.261L14.5178 17.6533C14.7317 17.4519 14.9589 17.2662 15.179 17.0722C15.4031 16.8831 15.6176 16.6822 15.8497 16.5036L16.5393 15.9598C18.3865 14.5208 20.3966 13.3196 22.4824 12.3131C23.5175 11.8053 24.6087 11.3441 25.7814 11.0007C26.9501 10.6613 28.2223 10.4563 29.5245 10.558C29.6809 10.5742 29.8322 10.5838 29.99 10.6073C30.1483 10.6335 30.307 10.6556 30.4617 10.6878C30.6151 10.7239 30.7681 10.7588 30.9186 10.798C31.0667 10.8445 31.2139 10.8906 31.3604 10.9365C31.9383 11.1404 32.4751 11.4116 32.9638 11.7397C33.4522 12.068 33.8929 12.4543 34.2697 12.8926C34.6465 13.3308 34.9499 13.8311 35.1655 14.3579C35.2198 14.4897 35.2736 14.6203 35.3098 14.7582C35.3476 14.8948 35.394 15.0275 35.4197 15.1654C35.444 15.3032 35.4682 15.4403 35.4922 15.5764C35.5098 15.7159 35.5161 15.8613 35.5255 16.0017C35.5398 16.5622 35.4507 17.0638 35.3329 17.5155C35.0892 18.4187 34.7275 19.1368 34.3872 19.7964C33.6894 21.0962 33.0164 22.1358 32.5339 23.09C32.0482 24.0376 31.7466 24.8873 31.7465 25.6504C31.7413 25.7901 31.7599 25.9178 31.7648 26.0432C31.788 26.1625 31.7999 26.2804 31.8246 26.3863C31.8524 26.4937 31.8779 26.5922 31.9011 26.6821C31.9336 26.7694 31.9621 26.8512 31.9863 26.9268C32.0928 27.2229 32.154 27.4024 32.1016 27.4802C32.0538 27.5548 31.9088 27.516 31.6557 27.342C31.4246 27.1544 31.0716 26.8066 30.8348 26.1938C30.7786 26.0417 30.7188 25.8771 30.6853 25.6995C30.6389 25.5208 30.6196 25.3341 30.5991 25.1349C30.5736 24.7421 30.5874 24.3096 30.6619 23.8695C30.8041 22.9842 31.132 22.045 31.5452 21.065C31.951 20.0841 32.4643 19.0415 32.8421 17.9535C33.031 17.4128 33.1605 16.8612 33.1731 16.3805C33.1681 16.2652 33.1698 16.1476 33.15 16.0446L33.141 15.964L33.119 15.8774L33.079 15.7027C33.0001 15.4744 32.9105 15.2431 32.767 15.023C32.4139 14.464 31.8378 13.973 31.1584 13.643C30.8178 13.4802 30.4542 13.3561 30.0851 13.2781C29.9928 13.2568 29.9004 13.2379 29.8075 13.2283C29.7142 13.2163 29.625 13.1988 29.5226 13.1948C29.3246 13.1761 29.1233 13.172 28.9206 13.1724C28.1086 13.1798 27.2612 13.3537 26.4094 13.6262C25.5575 13.9021 24.6968 14.2695 23.8383 14.7018C20.3984 16.3873 17.2258 18.6988 14.7127 21.4569C13.2756 23.0503 12.0375 24.8134 11.0619 26.7064C10.9441 26.9448 10.8353 27.1875 10.7211 27.4276C10.6099 27.669 10.4879 27.9062 10.397 28.1558C10.2027 28.6491 9.99177 29.1465 9.84485 29.6241C9.54807 30.5961 9.36014 31.6055 9.35294 32.5794C9.35153 33.0639 9.3807 33.5442 9.48168 33.9871C9.57651 34.4315 9.71215 34.8553 9.9234 35.2133C10.132 35.5722 10.3722 35.9028 10.6968 36.1515C11.0064 36.4141 11.3665 36.61 11.767 36.747C12.5686 37.0216 13.5353 37.0407 14.5116 36.8848C15.0007 36.8057 15.494 36.6857 15.983 36.5345C16.466 36.3855 16.9671 36.1941 17.4777 35.9909C18.4977 35.5854 19.5526 35.1173 20.7076 34.7459C21.2847 34.5609 21.8873 34.4012 22.5154 34.2955C22.6714 34.2666 22.8297 34.2436 22.9906 34.227C23.15 34.2067 23.3102 34.189 23.4733 34.1815C23.7835 34.1546 24.1626 34.1535 24.4998 34.1828C25.1861 34.2416 25.8397 34.3945 26.4701 34.6334C26.7855 34.7509 27.0939 34.893 27.3941 35.0597C27.6951 35.2236 27.9866 35.4164 28.2647 35.6378C28.5436 35.8563 28.8075 36.1093 29.0456 36.3954C29.2854 36.6784 29.4989 36.9986 29.6658 37.3487C29.8358 37.6957 29.9633 38.0719 30.0303 38.4554C30.0723 38.6467 30.083 38.8392 30.1014 39.0316C30.1022 39.2211 30.1142 39.4156 30.0935 39.6002C30.0386 40.3499 29.8247 41.0396 29.5395 41.6466C29.4652 41.7951 29.391 41.9466 29.3145 42.0916L29.078 42.5034C28.9138 42.7723 28.7417 43.0334 28.5623 43.286C27.8407 44.2945 27.0166 45.157 26.2149 45.9691C25.4108 46.7828 24.6231 47.5435 23.9484 48.3425C23.271 49.1413 22.689 49.9825 22.3155 50.8598C22.1287 51.2978 21.9952 51.7428 21.9243 52.1897C21.8872 52.4217 21.8713 52.617 21.8738 52.8284C21.8745 53.0379 21.8953 53.2514 21.9338 53.4624C22.0819 54.3071 22.5289 55.1273 23.1251 55.5969C23.4219 55.833 23.7444 55.9803 24.0818 56.0357C24.428 56.094 24.8026 56.0682 25.1888 55.9489C25.9729 55.7075 26.8066 55.1127 27.6545 54.433L28.3086 53.907L28.6522 53.6348C28.7816 53.539 28.9082 53.439 29.0407 53.3478C29.5676 52.9789 30.1289 52.6572 30.7411 52.3978C31.3533 52.1411 32.0195 51.9412 32.7629 51.8841C32.9444 51.8632 33.143 51.8756 33.3324 51.8746C33.5272 51.8877 33.7259 51.9101 33.9234 51.9435C34.3206 52.028 34.7269 52.1542 35.0922 52.3711C35.1835 52.4242 35.2774 52.4746 35.3642 52.5335L35.6132 52.7247C35.7791 52.85 35.9337 52.9994 36.0718 53.1566C36.3505 53.4713 36.5676 53.8235 36.7284 54.1798C37.0496 54.8969 37.1645 55.6182 37.1846 56.3069C37.1891 56.4797 37.1867 56.6511 37.179 56.8215C37.1677 56.9885 37.1478 57.1499 37.1315 57.3143C37.1125 57.4777 37.0999 57.6423 37.0739 57.8044L36.9733 58.2869C36.8404 58.9311 36.6136 59.5473 36.3511 60.1378C35.816 61.3187 35.0559 62.3471 34.21 63.2446C33.3609 64.1433 32.4181 64.9165 31.429 65.5974L31.0572 65.8516L30.6776 66.0907L30.2969 66.3279L29.9093 66.551C29.6525 66.7032 29.3896 66.8422 29.126 66.9801C28.8619 67.1234 28.6023 67.2476 28.3415 67.3769C27.2989 67.8871 26.2555 68.3458 25.2341 68.8029C23.1953 69.7138 21.2299 70.6349 19.5869 71.8719C19.174 72.1776 18.7897 72.5085 18.4242 72.8541C18.0673 73.1881 17.7659 73.5396 17.4809 73.9312C16.9178 74.7085 16.4847 75.5982 16.2155 76.5179C16.0676 77.0257 15.9691 77.544 15.9275 78.0572C15.8907 78.57 15.9129 79.076 15.9979 79.5547C16.087 80.032 16.244 80.4774 16.4615 80.8761C16.6867 81.2701 16.9709 81.6184 17.3178 81.914C18.0154 82.5069 19.025 82.9107 20.1779 83.2684L20.614 83.4031L20.9892 83.5053L21.3636 83.5842C21.4881 83.6068 21.6125 83.62 21.7367 83.6399C22.2338 83.6992 22.7268 83.6925 23.2282 83.6193C24.2313 83.4797 25.2693 83.0708 26.4171 82.5807C27.5605 82.0997 28.8348 81.5507 30.2701 81.2922C30.9829 81.1616 31.7244 81.1054 32.4566 81.1367C32.8232 81.15 33.1863 81.1893 33.5441 81.2423C33.7257 81.2742 33.8916 81.2993 34.085 81.3389C34.2983 81.3849 34.4964 81.4411 34.6859 81.5022C35.4336 81.7525 36.0417 82.0719 36.62 82.3973C37.1969 82.7243 37.7286 83.0671 38.2489 83.4102C39.8977 84.5083 41.436 85.6334 43.0189 86.611C43.8078 87.0992 44.6037 87.553 45.4074 87.9297C46.2096 88.306 47.0226 88.6082 47.8117 88.7658C48.601 88.9239 49.3555 88.9316 50.0219 88.7363C50.6899 88.547 51.2944 88.1581 51.8303 87.5956C52.0971 87.3148 52.3489 87 52.5769 86.652C52.6121 86.6044 52.6219 86.5792 52.6391 86.549L52.6903 86.4611C52.7287 86.4046 52.7429 86.3359 52.7748 86.2757C52.8239 86.1478 52.86 86.0116 52.8828 85.866C52.9757 85.2836 52.8173 84.5459 52.4781 83.8694C51.8478 82.517 50.3692 81.4837 48.7964 80.2593C48.4029 79.9497 48.0022 79.6227 47.6087 79.2631C47.2212 78.9112 46.8133 78.4925 46.466 78.0464C45.7711 77.1523 45.1998 76.1159 44.9557 74.8844C44.8374 74.2717 44.8149 73.6064 44.9401 72.9455C44.9777 72.7815 45.0152 72.6172 45.0598 72.4551C45.1147 72.2957 45.1714 72.1366 45.2316 71.9791C45.3057 71.8257 45.3825 71.6731 45.4617 71.5221C45.4986 71.4451 45.5434 71.3728 45.5935 71.3032L45.7394 71.0925C46.14 70.5405 46.6569 70.0864 47.2144 69.7611C47.7741 69.4403 48.3649 69.2295 48.9576 69.0984C50.145 68.8534 51.3415 68.9104 52.4857 69.2531C52.6282 69.2999 52.7722 69.3374 52.9124 69.3944L53.3323 69.567C53.5925 69.6916 53.8461 69.8136 54.0872 69.9578C54.5742 70.2369 55.0307 70.5526 55.4496 70.8916C57.1345 72.2474 58.345 73.8624 59.613 75.1619C59.9282 75.4873 60.2538 75.7909 60.5843 76.081C60.9171 76.3656 61.2584 76.6279 61.6065 76.864C61.9569 77.0912 62.3127 77.2953 62.6739 77.4551C63.0359 77.6076 63.3999 77.7277 63.7639 77.796C64.1281 77.8543 64.4911 77.8792 64.8532 77.8462C65.1871 77.822 65.4711 77.7333 65.7009 77.6042C65.9437 77.4585 66.1274 77.2904 66.2775 77.0548C66.429 76.8207 66.5473 76.5044 66.6308 76.1278C66.8033 75.3698 66.8225 74.4353 66.9262 73.3976C67.0382 72.3251 67.288 71.261 67.6675 70.2531C68.0469 69.244 68.5506 68.2826 69.1703 67.3994C69.4805 66.9584 69.8142 66.5323 70.1818 66.1352C70.3609 65.9306 70.5534 65.7463 70.7495 65.55C70.9619 65.3503 71.1803 65.1587 71.4139 64.984C71.8783 64.6319 72.3852 64.3235 72.958 64.0842C73.5317 63.8505 74.1863 63.6841 74.9127 63.7027C75.6353 63.7104 76.4238 63.9896 77.0083 64.4474C77.1619 64.5534 77.2972 64.6865 77.4295 64.823C77.5688 64.954 77.6753 65.1075 77.7869 65.2583C78.0027 65.5631 78.1559 65.8886 78.2744 66.2079C78.5026 66.8489 78.5711 67.4531 78.5981 68.0125C78.6224 68.5732 78.5987 69.0981 78.5688 69.5993C78.539 70.0957 78.497 70.5858 78.4818 71.0114C78.4673 71.4303 78.4838 71.8483 78.5333 72.257C78.6319 73.0739 78.8655 73.8544 79.2434 74.5147C79.6254 75.1853 80.1231 75.691 80.7697 76.0372C81.0065 76.164 81.2558 76.262 81.5076 76.3373C81.7603 76.4104 82.0158 76.4451 82.2648 76.4572C82.5154 76.4718 82.7543 76.4357 82.9822 76.3828C83.2096 76.3306 83.4207 76.2372 83.635 76.1104C84.0557 75.8589 84.4484 75.4696 84.7941 74.9749C85.1419 74.4831 85.4478 73.9093 85.7335 73.2922C86.8939 70.7887 87.7377 68.1255 88.0392 65.4305C88.1885 64.0845 88.1978 62.7323 88.0317 61.4118L87.9689 60.9168L87.8741 60.4289C87.841 60.2667 87.8149 60.1025 87.7766 59.9417L87.6492 59.463C87.6034 59.3046 87.5728 59.141 87.5154 58.9865L87.3553 58.519C87.2525 58.2017 87.1342 57.9087 86.9989 57.6158C85.9259 55.2767 83.9609 53.2838 81.6317 52.1833C80.4675 51.6364 79.2104 51.3219 77.9676 51.318C77.3466 51.3155 76.7303 51.3896 76.1344 51.5434C75.543 51.6964 74.9534 51.9393 74.3694 52.235C73.1999 52.8313 72.0484 53.6606 70.8019 54.4545C69.5685 55.2446 68.3112 55.9969 67.0322 56.7101C66.3927 57.0667 65.7477 57.4135 65.0977 57.7504L64.1188 58.2482C63.7941 58.4125 63.4273 58.5843 63.0712 58.7359C62.3457 59.0367 61.5856 59.2977 60.7532 59.4444C60.5414 59.4748 60.3349 59.5135 60.1136 59.5255C60.004 59.533 59.8967 59.5449 59.785 59.5474L59.4468 59.5473C58.9929 59.5324 58.5179 59.4764 58.0457 59.3135C57.8085 59.2473 57.5802 59.1291 57.353 59.0199C57.2421 58.9587 57.1362 58.8861 57.0291 58.8174L56.87 58.7114C56.8201 58.6725 56.7727 58.6307 56.7243 58.59C56.3254 58.2804 56.0028 57.8647 55.7541 57.4265C55.5028 56.9841 55.3555 56.5061 55.2764 56.0438C55.1942 55.5791 55.1798 55.1235 55.2124 54.6889C55.2408 54.2519 55.3098 53.8309 55.4105 53.4264C55.507 53.0195 55.6335 52.6278 55.7834 52.2478C55.8552 52.0562 55.9397 51.8708 56.0223 51.6843L56.2838 51.1616C56.4504 50.8094 56.6585 50.4809 56.8501 50.1431C58.2934 47.7776 60.3412 45.8176 62.7239 44.4338C63.9196 43.7474 65.2046 43.2126 66.541 42.8512C67.8794 42.4813 69.2286 42.3213 70.5392 42.2111C71.8512 42.1063 73.1321 42.0565 74.376 41.9537C75.615 41.8458 76.8302 41.6934 77.9565 41.3644C80.2111 40.728 82.3024 39.4153 83.8583 37.6587C84.6355 36.7806 85.2769 35.7892 85.7258 34.7254C85.8524 34.4643 85.9336 34.1881 86.0256 33.9156C86.1296 33.6459 86.18 33.3632 86.2487 33.0851C86.3286 32.8083 86.3471 32.522 86.3915 32.2396C86.4122 32.098 86.4343 31.9561 86.4377 31.8173C86.4469 31.6779 86.4567 31.5383 86.4537 31.3978C86.477 29.149 85.4794 26.8597 83.8757 25.2249C83.0742 24.4068 82.1165 23.7507 81.0747 23.3546C80.5542 23.1567 80.014 23.0229 79.4672 22.9643C78.9252 22.9063 78.3548 22.9171 77.8401 23.0065C77.5827 23.051 77.3391 23.1177 77.114 23.2055C76.889 23.2907 76.6882 23.4121 76.4868 23.5481C76.0919 23.8269 75.7405 24.2149 75.4191 24.6786C74.7697 25.6079 74.2724 26.7991 73.5261 27.9796C73.1565 28.5685 72.6841 29.1684 72.1433 29.6626C71.6028 30.1609 70.9977 30.5864 70.3406 30.9155C69.0329 31.5747 67.5086 31.8796 66.0062 31.6494C64.4861 31.4114 63.122 30.6155 62.1226 29.4955C61.6249 28.9321 61.2104 28.2818 60.9428 27.5586C60.6704 26.8418 60.5531 26.0382 60.5825 25.2944C60.6077 24.5441 60.7591 23.843 60.9304 23.1854C61.1065 22.5313 61.3089 21.9147 61.4798 21.3219C61.6484 20.7292 61.792 20.1599 61.85 19.6046C61.9111 19.0426 61.9055 18.4705 61.8362 17.9045C61.6978 16.7724 61.3041 15.6651 60.6934 14.7039C60.0849 13.74 59.2538 12.9384 58.2691 12.3539C57.2876 11.769 56.168 11.4023 55.0302 11.2958C53.8938 11.1881 52.7324 11.3417 51.7085 11.7805C51.1966 11.9961 50.7256 12.2863 50.3251 12.6381C50.1269 12.8157 49.94 13.0042 49.7815 13.2123C49.7018 13.3171 49.6333 13.4327 49.5572 13.5413C49.5213 13.5973 49.4788 13.6493 49.4477 13.708L49.3578 13.8864C49.2233 14.1165 49.142 14.375 49.0441 14.6258C48.9779 14.8913 48.8979 15.1519 48.8651 15.4323C48.7793 15.9845 48.7593 16.564 48.8036 17.1566C48.8404 17.7478 48.923 18.3488 49.04 18.9546C49.1512 19.5597 49.2935 20.1692 49.4448 20.7844L49.9109 22.6545C50.0675 23.2933 50.2004 23.9399 50.3157 24.5908C50.7721 27.1882 50.8837 29.9148 50.3013 32.5698C50.2708 32.7013 50.2465 32.8349 50.2106 32.9644L50.1001 33.3515L49.8779 34.1243C49.8138 34.3838 49.7008 34.632 49.608 34.8843L49.3161 35.6372L48.9549 36.3653L48.7727 36.7278C48.7145 36.8497 48.6318 36.9605 48.5625 37.0771L48.1259 37.7666C47.9659 37.9873 47.7912 38.199 47.6239 38.4143C46.929 39.2561 46.1056 40.0045 45.1679 40.575C44.229 41.1412 43.1968 41.5409 42.1272 41.7354C41.5927 41.8381 41.0504 41.8853 40.4888 41.8774C40.2084 41.8684 39.9064 41.8443 39.6187 41.7783C39.3284 41.7221 39.0518 41.6268 38.7823 41.5211C37.7161 41.0717 36.8294 40.2994 36.2555 39.3153C35.9675 38.8251 35.7612 38.2751 35.6838 37.6918C35.638 37.4021 35.6409 37.1033 35.6611 36.8082C35.697 36.5138 35.7518 36.2194 35.8554 35.9424C36.0515 35.384 36.38 34.8902 36.7681 34.4914C37.1569 34.0903 37.6007 33.7776 38.0569 33.5209C38.2957 33.3861 38.493 33.2862 38.7 33.1777C38.9077 33.0724 39.1084 32.9576 39.3115 32.8464C39.7161 32.6219 40.1096 32.3839 40.4968 32.1396C41.2621 31.6416 41.9987 31.1074 42.6394 30.4957C43.2796 29.889 43.8466 29.2068 44.1734 28.4464C44.5086 27.6938 44.5558 26.854 44.1929 26.1524C43.8398 25.4477 43.1306 24.9232 42.3434 24.6659C41.5536 24.4059 40.6748 24.3874 39.8749 24.6371C39.4735 24.7579 39.096 24.9516 38.7526 25.1939C38.4112 25.4397 38.1111 25.7434 37.8573 26.0829C37.7292 26.252 37.6162 26.4326 37.5119 26.6183C37.3975 26.806 37.2833 26.9934 37.1694 27.1804C36.9002 27.5258 36.6166 27.8689 36.2388 28.0878C36.1976 28.1153 36.1567 28.1424 36.1163 28.1693C36.0719 28.1894 36.0277 28.2094 35.9841 28.2291C35.8964 28.267 35.8123 28.3086 35.7268 28.3406C35.5474 28.3822 35.3813 28.4436 35.2104 28.4462C34.8753 28.4918 34.5649 28.4314 34.293 28.3734C33.7495 28.2233 33.3575 27.9704 33.0892 27.749C32.8252 27.5193 32.671 27.3264 32.6135 27.1922C32.5526 27.0608 32.5628 26.9963 32.6364 26.9932C32.7127 26.9876 32.8324 27.0474 33.0405 27.1433C33.2465 27.2359 33.5325 27.377 33.9034 27.481C34.2709 27.5855 34.721 27.6352 35.1345 27.5255C35.1881 27.5168 35.2341 27.4852 35.286 27.469C35.3367 27.4502 35.3901 27.4357 35.4364 27.3998C35.4848 27.3698 35.5345 27.3417 35.5863 27.3153C35.6337 27.2762 35.6806 27.234 35.7305 27.1956C35.7551 27.1756 35.7812 27.1583 35.8062 27.1369L35.8756 27.0573C35.9237 27.0057 35.9726 26.9533 36.0223 26.9001C36.0668 26.8346 36.112 26.7681 36.1579 26.7006L36.2296 26.601C36.2531 26.5662 36.2711 26.5224 36.2926 26.4834L36.4805 26.1278C36.5662 25.9518 36.6574 25.7776 36.762 25.6079C36.9691 25.2684 37.2141 24.9435 37.4981 24.6481C38.0643 24.0547 38.7943 23.5969 39.583 23.3365C40.373 23.0745 41.2167 23.0028 42.0399 23.1171C42.8623 23.2318 43.6753 23.5319 44.3895 24.0575C44.7452 24.3204 45.0741 24.6421 45.347 25.0217C45.6183 25.4022 45.8287 25.8418 45.9518 26.3051C46.0761 26.7682 46.1115 27.2506 46.0722 27.7089C46.0336 28.1684 45.9239 28.6031 45.775 29.0041C45.4747 29.8087 45.0275 30.4831 44.5394 31.0748C44.049 31.6677 43.5109 32.1852 42.9511 32.6555C41.8283 33.5916 40.6239 34.3538 39.3931 35.0362C38.3222 35.5894 37.7711 36.2745 37.7299 36.9901C37.7086 37.353 37.8148 37.7593 38.0334 38.1496C38.2604 38.5346 38.5879 38.8986 38.9768 39.1605C39.17 39.2923 39.3745 39.4025 39.5826 39.487C39.7918 39.5674 40.0031 39.6197 40.2094 39.6454C40.4052 39.6752 40.6721 39.6626 40.9343 39.6505L41.3396 39.6044L41.7473 39.5287C42.6417 39.3373 43.5009 38.9578 44.2586 38.4319C45.0188 37.9049 45.6751 37.2197 46.2298 36.4336L46.6145 35.8144C46.6465 35.7627 46.6803 35.7124 46.7111 35.6596L46.7923 35.4926L46.9561 35.1591C47.1958 34.7283 47.3488 34.2389 47.5362 33.7711C47.5861 33.6556 47.6207 33.5317 47.6542 33.4072L47.759 33.0359C47.827 32.7882 47.9052 32.5414 47.9668 32.2933C48.0802 31.7974 48.1723 31.2941 48.2345 30.7834C48.4852 28.7387 48.3263 26.6055 47.9101 24.4971C47.8092 23.9678 47.6869 23.4459 47.5562 22.914L47.1406 21.263C46.8632 20.1433 46.607 18.9689 46.4815 17.7243C46.4639 17.6982 46.4474 17.6732 46.4286 17.6401L46.4284 17.64Z" fill="#DDA853"/>
</svg>
