<svg width="127" height="127" viewBox="0 0 127 127" fill="none" xmlns="http://www.w3.org/2000/svg">
<path d="M86.6123 20.535C88.8639 21.7823 91.0281 23.1956 93.0695 24.7808C95.1069 26.3668 97.0372 28.1213 98.7591 30.0665C102.189 33.9136 104.975 38.2579 107.149 42.8655C109.459 47.7534 111.046 52.9797 111.955 58.3049C112.245 60.0846 112.459 61.8798 112.571 63.6871C112.671 65.4953 112.677 67.3126 112.576 69.1307C112.472 70.949 112.236 72.7656 111.889 74.5666C111.793 75.0154 111.717 75.4679 111.603 75.9138L111.266 77.2526L110.869 78.5783C110.744 79.0224 110.569 79.4527 110.42 79.8904C110.341 80.1078 110.269 80.3276 110.184 80.5429L109.919 81.1863C109.742 81.6147 109.568 82.0506 109.375 82.4496L108.811 83.6729C108.617 84.0779 108.411 84.4781 108.212 84.881L107.91 85.4842L107.589 86.0786C107.374 86.4739 107.165 86.8725 106.944 87.265C106.489 88.0433 106.045 88.8281 105.554 89.5866C105.085 90.3579 104.566 91.0984 104.063 91.8489C103.531 92.5805 103.011 93.3215 102.445 94.0293C101.334 95.4594 100.151 96.8391 98.8827 98.1402C97.6174 99.4434 96.2911 100.693 94.8851 101.851C93.4791 103.008 92.0096 104.091 90.4829 105.089C87.429 107.085 84.1311 108.707 80.7024 109.958C77.2668 111.194 73.694 112.036 70.0762 112.491C66.4563 112.932 62.7941 112.981 59.1675 112.659C50.237 111.841 41.5391 108.749 34.0943 103.743C30.3728 101.241 26.9638 98.2662 23.9882 94.9028L23.4312 94.2714L22.8857 93.6107C22.5162 93.1741 22.1712 92.7179 21.8277 92.2604C21.1375 91.3479 20.5043 90.3939 19.8951 89.4258C18.696 87.4772 17.6782 85.4206 16.8379 83.3002C15.1461 79.0579 14.2372 74.5518 13.9481 70.0498C13.6791 65.542 14.0393 61.0278 14.928 56.6411C16.7228 47.8676 20.5479 39.5718 26.0267 32.4986C29.3403 28.2349 33.4637 24.5235 37.9855 21.6773C40.1587 20.3225 42.1111 19.4789 43.7638 18.9765C44.5874 18.7172 45.3484 18.5659 46.0224 18.4522C46.708 18.3652 47.3056 18.3099 47.8425 18.3299C49.4009 18.3789 49.5442 18.9543 48.5867 19.8101C48.4669 19.9175 48.3292 20.0278 48.1755 20.1448C48.0236 20.2666 47.855 20.3929 47.67 20.5234C47.4851 20.6539 47.2837 20.7883 47.0665 20.9267C46.8526 21.0735 46.623 21.2245 46.3777 21.3793C45.3985 22.0018 44.1888 22.7293 42.8029 23.6211C39.2848 25.8555 35.7215 28.7302 32.7188 31.8617C29.2495 35.4515 26.3292 39.6006 24.0487 44.0731C21.7609 48.5425 20.1075 53.3433 19.2012 58.2666C18.7403 60.7271 18.4882 63.2195 18.4208 65.7087C18.3743 68.1977 18.5144 70.6855 18.902 73.1273C19.6592 78.0104 21.3563 82.7158 23.9844 86.8117C24.7154 87.9375 25.5182 89.0291 26.3794 90.0771C27.2416 91.1086 28.2056 92.1358 29.1689 93.1186C31.1259 95.0705 33.1971 96.8733 35.2982 98.4997C36.9718 99.8042 38.7435 100.993 40.5925 102.055C42.4435 103.115 44.3733 104.043 46.3579 104.84C50.3272 106.435 54.5217 107.494 58.7793 107.96C67.293 108.923 76.0456 107.509 83.7345 103.835C89.4622 101.125 94.5534 97.0632 98.6051 92.1171C99.6111 90.8743 100.577 89.5957 101.467 88.2616C102.349 86.9229 103.201 85.5606 103.96 84.1422L104.252 83.6146L104.528 83.078L105.078 82.0037L105.596 80.912L105.855 80.3661L106.085 79.8273C106.231 79.4661 106.402 79.1157 106.531 78.746L106.936 77.646C107.171 76.899 107.42 76.1562 107.606 75.3918C107.8 74.719 107.927 74.0265 108.082 73.3417L108.263 72.3015L108.353 71.781L108.421 71.2561C108.627 69.8602 108.706 68.4429 108.762 67.0261C108.82 64.188 108.63 61.329 108.154 58.5065C107.938 57.0918 107.619 55.6932 107.287 54.2988C106.919 52.9128 106.535 51.5285 106.058 50.1733C105.14 47.4512 103.982 44.8097 102.631 42.2739C99.9144 37.2193 96.3959 32.5449 92.0084 28.9075C87.6162 25.2391 82.4453 22.4758 76.9944 20.591C72.635 19.097 68.2301 18.1496 63.9433 17.6975C59.6544 17.2465 55.4814 17.2937 51.5276 17.8198C51.0745 17.8863 50.6714 17.9138 50.3312 17.9468C49.9907 17.9786 49.7047 17.9862 49.4749 17.9721C49.0156 17.9439 48.7814 17.8289 48.7915 17.644C48.8015 17.4592 49.0563 17.2042 49.5736 16.8979C49.8321 16.7451 50.1548 16.5737 50.5514 16.4221C50.9475 16.2693 51.4066 16.0871 51.9412 15.9415C53.45 15.4992 55.0089 15.1789 56.5926 14.9197C58.1785 14.6839 59.7905 14.5336 61.4146 14.4697C64.6618 14.3639 67.9513 14.5962 71.1727 15.1614C76.4825 16.0652 81.7152 18.0149 86.5361 20.5741C86.5608 20.5602 86.584 20.5476 86.6123 20.535Z" fill="#DDA853"/>
<path d="M33.67 52.1575C34.4578 51.761 35.2511 51.3729 36.0309 50.9639C36.4434 50.7458 36.8627 50.5335 37.2253 50.2452C38.1851 49.4816 39.18 48.6384 40.3598 47.8705C41.5318 47.1095 42.9369 46.4068 44.576 46.1375C45.5782 45.984 46.6143 45.9678 47.5955 46.1261C48.5764 46.28 49.5008 46.5658 50.3545 46.9219C51.2129 47.2764 51.9883 47.7113 52.7201 48.1682C53.4515 48.6264 54.1345 49.1149 54.7789 49.6131C55.1713 49.9125 55.4457 50.3575 55.6964 50.7923C55.9396 51.2109 55.7738 51.8553 55.4113 52.5697C54.8789 53.6096 53.8999 54.3832 53.2558 54.2263C52.8477 54.1319 52.5313 53.8766 52.2737 53.5898C51.6793 52.9296 51.0161 52.3744 50.2985 51.9643C49.5834 51.5546 48.8106 51.2928 48.063 51.2374C47.6452 51.1981 47.2374 51.2899 46.9266 51.065C46.4189 50.7163 45.835 50.6569 45.2801 50.7149C44.7214 50.7771 44.1638 50.9797 43.5336 51.1384C42.5848 51.3805 41.6931 52.0012 40.7134 52.5664C38.8956 53.6342 37.0784 54.7016 35.2611 55.769C34.5342 56.1985 33.6785 56.3606 32.5594 55.9953C32.0429 55.8249 31.4554 54.9523 31.6279 54.5429C31.8709 53.9618 32.2043 53.4643 32.5835 53.0369C32.8946 52.6845 33.3282 52.485 33.7076 52.2182C33.6949 52.1978 33.6832 52.1788 33.67 52.1575Z" fill="#DDA853"/>
<path d="M90.3417 54.0508C89.7162 53.3961 89.0671 52.7551 88.3749 52.16C88.0083 51.8449 87.6343 51.5289 87.2073 51.3061C86.0704 50.7073 84.8885 50.2095 83.6953 49.7768C82.508 49.3424 81.4028 49.053 80.5285 49.0274C80.2595 49.019 80.0128 49.0348 79.7837 49.073C79.6834 49.0971 79.619 49.1225 79.5287 49.1366C79.42 49.1844 79.3156 49.2168 79.1996 49.2617C78.7171 49.4648 78.1318 49.8249 77.5604 50.2418C76.4047 51.0788 75.2502 52.1462 74.1611 53.2756C73.8336 53.6188 73.3765 53.8518 72.9275 54.0898C72.4958 54.3146 71.8516 54.1523 71.129 53.7926C70.0756 53.2717 69.3159 52.2763 69.5674 51.5436C69.7243 51.0831 70.0561 50.7141 70.4241 50.4185C71.2715 49.7367 72.0706 49.0225 72.8599 48.2697C73.653 47.5175 74.424 46.7259 75.3039 45.8992C75.5594 45.6752 75.7896 45.4223 76.0937 45.2172C76.2402 45.113 76.3916 45.0166 76.5486 44.9353C76.7176 44.8576 76.8971 44.7968 77.0783 44.7581C77.3559 44.6917 77.6777 44.6373 77.9819 44.5765L78.2097 44.5304C78.2882 44.5162 78.377 44.5069 78.4598 44.4951L78.9619 44.4289C79.596 44.3656 80.1825 44.3663 80.765 44.4036C81.9215 44.4838 82.9825 44.7411 83.8905 45.1703C84.5327 45.4779 85.1764 45.7862 85.8205 46.0948C86.4437 46.3971 87.0614 46.7113 87.6488 47.0755C89.7479 48.3689 91.667 49.9011 93.424 51.5651C94.1245 52.229 94.5731 53.1101 94.4874 54.3324C94.4481 54.8949 93.6936 55.629 93.2446 55.5302C92.6083 55.3864 92.0323 55.1624 91.5117 54.8884C91.083 54.6652 90.7656 54.2926 90.389 53.9975C90.3731 54.0154 90.3583 54.032 90.3417 54.0508Z" fill="#DDA853"/>
<path d="M86.621 78.3465C85.3129 80.0939 83.8288 81.7104 82.1901 83.1593C81.7489 83.5368 81.3016 83.9086 80.8515 84.2751L80.1638 84.8119L79.8257 85.0863L79.4779 85.3498C78.2689 86.3222 76.9383 87.1604 75.5434 87.8859C74.1486 88.6145 72.6648 89.1992 71.1449 89.6139C68.1025 90.4521 64.9176 90.684 61.8081 90.3668C59.8934 90.166 58.0055 89.7653 56.1745 89.1869C54.3391 88.607 52.5776 87.847 50.902 86.9525C47.5428 85.1628 44.5525 82.8161 41.9157 80.1879C41.1128 79.3985 40.4771 78.4396 39.8864 77.4996C39.3274 76.5899 39.3677 75.6822 39.7242 74.8773C39.9829 74.2908 40.4509 73.931 40.9846 73.821C41.5227 73.7084 42.109 73.8582 42.6644 74.2782C43.0126 74.5478 43.3401 74.8573 43.6569 75.1803C43.9667 75.5103 44.2688 75.8499 44.5498 76.1941C45.845 77.7781 47.3421 79.1816 48.9714 80.3841C50.6139 81.5643 52.39 82.5514 54.2648 83.2174C55.2974 83.603 56.4016 83.8407 57.3348 84.3266C58.8401 85.0987 60.5049 85.5299 62.1798 85.7452C63.8597 85.966 65.5475 85.9489 67.2213 85.8855C68.4667 85.8341 69.7101 85.6398 70.906 85.2977C72.1061 84.9637 73.2551 84.4974 74.3847 83.9711C76.3822 82.9979 78.2631 81.7068 79.9179 80.1232C80.7614 79.349 81.5271 78.4836 82.2689 77.5949C82.6224 77.136 82.9946 76.6894 83.3217 76.2072C83.4884 75.9686 83.663 75.735 83.8242 75.4919L84.2989 74.7555C85.2966 73.1764 86.3531 71.7493 87.8197 70.5703C88.5005 70.0308 89.4781 70.4182 89.3619 71.3593C89.2108 72.6891 88.8253 74.0319 88.3044 75.314C88.0817 75.8374 87.8235 76.3524 87.5119 76.8408L87.0519 77.5773C86.8901 77.8181 86.7284 78.0587 86.5673 78.2986C86.5851 78.3144 86.6016 78.3292 86.621 78.3465Z" fill="#DDA853"/>
</svg>
