<svg width="243" height="175" viewBox="0 0 243 175" fill="none" xmlns="http://www.w3.org/2000/svg">
<path d="M166.661 173.542C164.177 168.483 161.282 163.917 157.338 161.04C154.52 158.955 151.029 157.989 147.541 158.329C146.472 158.443 145.429 158.728 144.45 159.172C143.439 159.631 142.537 160.301 141.806 161.137L136.121 156.448C137.856 154.397 139.032 151.933 139.537 149.294C140.042 146.656 139.857 143.931 139.002 141.385C138.494 139.934 137.764 138.572 136.837 137.348C134.951 134.847 132.383 132.945 129.442 131.871C128.723 131.61 127.985 131.405 127.234 131.258C126.865 131.177 126.491 131.118 126.115 131.082L125.556 131.017L125.054 131.005C123.657 130.984 122.27 131.248 120.978 131.781C120.348 132.032 119.747 132.348 119.183 132.723C118.927 132.903 118.681 133.098 118.447 133.307L118.112 133.608C118.023 133.717 117.933 133.824 117.839 133.927L117.697 134.081L117.592 134.245C117.522 134.353 117.447 134.458 117.369 134.56C117.322 134.67 117.272 134.776 117.216 134.88L117.131 135.034L117.086 135.194C116.94 135.6 116.869 136.029 116.878 136.461L116.842 136.881C116.754 137.872 116.302 138.796 115.572 139.474C114.842 140.151 113.887 140.533 112.892 140.546C111.896 140.559 110.931 140.201 110.184 139.543C109.437 138.885 108.961 137.973 108.849 136.984C107.986 129.406 102.643 122.32 95.7694 118.738C92.4247 116.932 88.6541 116.065 84.8567 116.227C83.0404 116.32 81.2511 116.706 79.5585 117.372C77.8362 118.05 76.2234 118.979 74.7721 120.128C71.2812 122.891 68.6868 126.627 67.3163 130.863C65.966 135.039 66.0433 139.493 67.7462 143.189C68.1963 144.166 68.2836 145.272 67.9927 146.308C67.7018 147.344 67.0516 148.242 66.1585 148.842C65.2655 149.443 64.1879 149.705 63.1189 149.583C62.0498 149.461 61.0592 148.963 60.3243 148.177L60.2924 148.141C56.9053 144.499 52.6842 141.734 47.9923 140.084C43.3845 138.492 38.4745 138.253 34.1972 139.758C30.2078 141.098 26.7205 144.639 24.9643 148.788C24.0868 150.788 23.6613 152.956 23.7183 155.139C23.7701 157.137 24.4034 159.076 25.5406 160.72L18.1113 165.903C16.3385 163.462 13.8361 161.648 10.9652 160.722C8.05227 159.726 4.90657 159.631 1.93892 160.45L1.51556 160.562C1.37586 160.602 1.24608 160.665 1.1102 160.713L0.29705 161.011L-0.474054 161.386L-0.864074 161.567C-0.990024 161.634 -1.10715 161.717 -1.23016 161.791L-1.97027 162.233L-2.66894 162.756L-3.0245 163.013L-3.35196 163.312L-4.01828 163.904L-4.6298 164.568L-4.94185 164.897L-5.21909 165.261L-5.78569 165.984L-6.28643 166.763L-6.54186 167.152L-6.75842 167.565L-7.20236 168.389L-7.57027 169.252L-7.75937 169.684L-7.90543 170.129C-8.56554 172.077 -9.07145 174.073 -9.41847 176.1C-9.46308 176.318 -9.5065 176.531 -9.54872 176.737C-9.58758 176.945 -9.60499 177.145 -9.63921 177.345C-9.69624 177.742 -9.7868 178.135 -9.84842 178.507C-9.89546 178.875 -9.95426 179.233 -10.0228 179.582C-10.0608 179.76 -10.0975 179.933 -10.1329 180.099C-10.1612 180.267 -10.1884 180.429 -10.2146 180.585C-10.5531 182.451 -11.4323 183.1 -12.8815 181.887C-13.0801 181.719 -13.2685 181.54 -13.4456 181.349C-13.6378 181.115 -13.8168 180.87 -13.9818 180.616C-14.1636 180.341 -14.349 180.036 -14.538 179.701C-14.7193 179.339 -14.881 178.968 -15.0224 178.589C-15.7778 176.609 -16.1071 174.492 -15.9887 172.376C-15.853 169.044 -14.9577 165.787 -13.371 162.854C-11.7843 159.921 -9.54825 157.389 -6.83363 155.452C-4.33364 153.731 -1.49363 152.566 1.49481 152.037C4.39137 151.521 7.35835 151.546 10.2457 152.111C13.1126 152.661 15.8564 153.725 18.3442 155.252C20.8835 156.803 23.0738 158.864 24.7769 161.304L24.796 161.331C25.3339 162.11 25.5404 163.071 25.3702 164.002C25.1999 164.933 24.6668 165.758 23.8881 166.296C23.5025 166.562 23.0682 166.75 22.6101 166.848C22.1519 166.947 21.6788 166.954 21.2179 166.87C20.2869 166.7 19.4616 166.167 18.9237 165.388C17.5559 163.428 16.5849 161.219 16.0655 158.886C15.5661 156.614 15.456 154.273 15.74 151.964C16.1867 148.617 17.289 145.391 18.9837 142.47C20.6784 139.55 22.9322 136.992 25.6163 134.943C27.4562 133.546 29.5043 132.447 31.6855 131.687L33.2882 131.167C33.8225 130.991 34.3763 130.902 34.9213 130.769C36.0137 130.524 37.1198 130.345 38.2336 130.234C40.4427 130.033 42.667 130.074 44.8673 130.355C48.8456 130.846 52.7072 132.031 56.2765 133.855C59.7812 135.596 62.9508 137.943 65.6396 140.786L66.8288 142.084L59.6292 146.866C59.0251 145.376 58.557 143.835 58.2306 142.26C57.9291 140.703 57.7655 139.123 57.7419 137.537C57.7251 134.438 58.2148 131.357 59.1917 128.416C61.1057 122.626 64.6637 117.518 69.4316 113.716C70.6299 112.759 71.9079 111.907 73.2514 111.168C74.6051 110.411 76.0256 109.78 77.4949 109.282C78.9752 108.773 80.5011 108.409 82.0515 108.193C83.583 107.978 85.1304 107.897 86.676 107.952C92.7576 108.236 98.6057 110.378 103.431 114.091C106.923 116.722 109.88 119.998 112.141 123.741C114.453 127.529 115.904 131.779 116.39 136.191L109.297 136.652C109.282 135.103 109.581 133.567 110.176 132.136C110.77 130.785 111.603 129.552 112.635 128.496C113.591 127.52 114.679 126.683 115.867 126.008C116.435 125.678 117.021 125.381 117.622 125.117C118.225 124.882 118.824 124.625 119.444 124.452C121.303 123.861 123.25 123.592 125.199 123.657L126.192 123.709L127.119 123.827C129.562 124.161 131.931 124.908 134.124 126.035C137.177 127.583 139.856 129.777 141.975 132.465C144.107 135.18 145.561 138.365 146.216 141.755C146.533 143.426 146.669 145.126 146.62 146.826C146.554 148.514 146.311 150.19 145.896 151.827C145.065 155.129 143.491 158.198 141.294 160.799L141.284 160.81C140.764 161.438 140.016 161.833 139.204 161.909C138.392 161.985 137.584 161.736 136.956 161.216C136.328 160.695 135.933 159.947 135.857 159.136C135.781 158.324 136.031 157.515 136.551 156.888C138.059 155.068 139.99 153.647 142.175 152.747C144.252 151.897 146.472 151.45 148.716 151.43C153.06 151.376 157.316 152.651 160.915 155.084C164.244 157.45 167.084 160.438 169.279 163.883C171.354 167.125 173.189 170.516 174.768 174.027L170.271 173.748C171.657 171.69 173.409 169.903 175.44 168.477C178.074 166.649 181.11 165.483 184.29 165.078C187.345 164.673 190.452 165.077 193.303 166.248C195.819 167.282 198.054 168.896 199.827 170.96C201.599 173.023 202.858 175.476 203.501 178.12C203.722 178.933 203.733 179.79 203.532 180.609C203.366 181.157 203.097 181.409 202.773 181.402C202.09 181.387 201.399 180.356 200.299 178.559C198.704 175.992 196.409 173.933 193.684 172.623C191.08 171.358 188.127 171 185.296 171.606C181.657 172.331 178.087 174.463 176.09 177.506L176.06 177.552C175.638 178.194 175.053 178.713 174.365 179.055C173.677 179.396 172.91 179.549 172.144 179.496C171.377 179.444 170.639 179.189 170.003 178.757C169.368 178.325 168.859 177.731 168.529 177.038C167.96 175.843 167.389 174.667 166.799 173.53L166.661 173.542Z" fill="#DDA853"/>
</svg>
