<svg width="214" height="149" viewBox="0 0 214 149" fill="none" xmlns="http://www.w3.org/2000/svg">
<path d="M68.886 75.991C71.2793 70.6082 73.7922 65.2768 76.4247 59.9967C77.127 58.5992 77.8305 57.1997 78.5349 55.7982C79.254 54.4046 79.962 53.0068 80.645 51.6014C84.3515 44.128 88.3719 36.7901 92.7916 29.6719C97.2004 22.5277 102.067 15.6652 107.361 9.12554C113.929 1.07074 121.225 -6.38465 129.162 -13.1495C131.121 -14.8703 133.202 -16.4534 135.244 -18.0803C136.279 -18.8764 137.347 -19.633 138.396 -20.4107L139.978 -21.5692C140.513 -21.9452 141.06 -22.3053 141.6 -22.6738L144.854 -24.869L148.192 -26.9419C148.752 -27.2817 149.297 -27.6448 149.869 -27.9653L151.58 -28.9351L153.292 -29.9043C153.864 -30.2241 154.426 -30.5611 155.016 -30.8505C156.425 -31.5742 157.86 -32.2659 159.298 -32.936C160.757 -33.5651 162.235 -34.1424 163.684 -34.728C164.032 -34.8671 164.367 -34.9939 164.69 -35.1086C165.016 -35.2163 165.334 -35.3023 165.638 -35.3836C166.191 -35.5311 166.751 -35.6507 167.317 -35.7421C168.156 -35.8927 169.013 -35.9196 169.86 -35.8219C171.833 -35.5435 170.617 -33.8749 166.933 -32.0587C166.343 -31.7825 165.758 -31.4603 165.156 -31.1547C164.554 -30.8478 163.942 -30.5451 163.323 -30.2477C162.705 -29.9504 162.081 -29.6584 161.457 -29.3728C160.844 -29.066 160.234 -28.7606 159.633 -28.4595C154.049 -25.7581 148.711 -22.5931 143.676 -18.9991C138.641 -15.4135 133.881 -11.4706 129.433 -7.20217L125.777 -3.57014C124.583 -2.33055 123.37 -1.1283 122.145 -0.0158424C118.303 3.6378 114.7 7.52588 111.357 11.6252C108.027 15.7483 104.847 19.9825 101.776 24.2926C97.1767 30.677 93.1103 37.4718 89.2495 44.344C82.3901 56.6568 76.3067 69.3708 71.0334 82.4145C70.4751 83.7053 69.9315 84.9813 69.3607 86.2212C68.7889 87.4608 68.215 88.6732 67.6391 89.8584C67.0652 91.0431 66.4553 92.1852 65.8401 93.2923C65.2352 94.4032 64.6273 95.4781 64.0163 96.517C62.8901 98.4249 62.1276 98.0127 62.6793 95.5255C63.0839 93.7705 63.4747 91.9627 63.9615 90.1652C64.4716 88.3765 65.0021 86.5735 65.5836 84.7912C66.0611 83.3258 66.5665 81.8489 67.142 80.3904C67.7445 78.9427 68.3489 77.49 68.95 76.0462C68.9294 76.0284 68.91 76.0117 68.886 75.991Z" fill="#DDA853"/>
<path d="M48.2799 91.4278C46.4943 84.9632 44.9178 78.4216 43.6778 71.7945C43.3586 70.0357 43.0647 68.2671 42.7657 66.5009L42.3627 63.8417C42.2221 62.957 42.0732 62.0743 41.9604 61.1855L41.4628 57.6353L41.084 54.0653C40.9368 52.8772 40.8919 51.6773 40.7985 50.4824L40.6744 48.6878C40.6357 48.0894 40.6327 47.4883 40.6102 46.8886C40.3987 42.064 40.5635 37.2306 41.1033 32.4307C42.1303 22.7388 44.8251 13.288 49.0729 4.48049C51.7385 -0.990479 55.1262 -6.0934 59.1488 -10.6968C63.2125 -15.3432 67.9939 -19.3352 73.3186 -22.5272L75.329 -23.6944C76.006 -24.0701 76.7052 -24.4021 77.3928 -24.757C78.7595 -25.4889 80.1931 -26.0646 81.6032 -26.6951C84.4456 -27.8644 87.3595 -28.8586 90.328 -29.6722C93.2687 -30.4853 96.2493 -31.1521 99.2584 -31.6702C100.758 -31.9021 102.255 -32.1737 103.757 -32.3456L106.009 -32.6306L108.261 -32.8571C111.871 -33.1635 115.498 -33.2338 119.118 -33.0678C120.557 -33.0361 121.987 -32.8316 123.376 -32.4588C124.349 -32.1926 125.267 -31.7604 126.088 -31.182C127.075 -30.4542 127.066 -29.6945 126.227 -29.0665C125.388 -28.434 123.716 -27.9565 121.368 -27.7125C119.879 -27.5762 118.331 -27.4401 116.765 -27.3708C115.207 -27.2588 113.627 -27.2264 112.102 -27.1376C108.595 -26.9973 105.099 -26.6687 101.628 -26.1535C99.8947 -25.9195 98.1896 -25.5728 96.482 -25.2368L93.947 -24.6446C93.1014 -24.4485 92.2781 -24.187 91.4435 -23.9596C91.0287 -23.8387 90.6092 -23.7302 90.1988 -23.5984L88.9739 -23.1868C88.1607 -22.9044 87.3326 -22.6576 86.5428 -22.3231C85.7465 -22.0043 84.9453 -21.6963 84.1555 -21.3664L81.8314 -20.2883C81.44 -20.1168 81.066 -19.9142 80.6925 -19.7105L79.5694 -19.106C79.1968 -18.9022 78.819 -18.707 78.4515 -18.4962L77.373 -17.8254C75.9265 -16.9552 74.5348 -16.0003 73.2053 -14.966C71.7223 -13.8498 70.3243 -12.5733 68.9429 -11.3115C68.2748 -10.6543 67.5767 -10.0361 66.9286 -9.37657C66.5952 -9.05633 66.2636 -8.73792 65.9339 -8.42132C65.6121 -8.09652 65.2876 -7.7784 64.9604 -7.46695C60.8029 -3.35994 57.3652 1.39272 54.7861 6.59914C52.1738 11.8511 50.1116 17.3496 48.6311 23.0103C48.0587 25.1115 47.5759 27.2431 47.2001 29.3964C46.9938 30.4701 46.8491 31.5545 46.6827 32.6357C46.553 33.7221 46.4012 34.8065 46.3093 35.8976C46.0891 38.0762 45.9673 40.2649 45.9161 42.4538C45.8775 43.5463 45.894 44.6468 45.9066 45.7472L45.9191 47.3972L45.9238 48.2221L45.9607 49.0471L46.0905 51.9903C46.1051 52.4812 46.1398 52.9715 46.1843 53.4615L46.3037 54.9322C46.4334 56.8954 46.6821 58.8517 46.9071 60.8107C47.0041 61.7917 47.1829 62.7651 47.3167 63.7431C47.4703 64.7189 47.5842 65.6999 47.7697 66.6722C48.1175 68.6199 48.4436 70.5718 48.8637 72.5106C50.4358 80.2839 52.5562 87.9753 54.8981 95.617C55.8325 98.6664 56.6855 101.65 57.3781 104.556C58.0483 107.469 58.5577 110.305 58.8996 113.022C59.2359 115.515 58.2873 115.664 56.82 113.129L56.049 111.772C55.8007 111.314 55.596 110.838 55.3699 110.366C54.9346 109.416 54.4961 108.46 54.0543 107.496C53.8406 107.012 53.6264 106.526 53.4115 106.04C53.2122 105.548 53.0125 105.055 52.8123 104.562C52.417 103.573 52.0234 102.583 51.6515 101.583C51.0357 99.9415 50.4644 98.2661 49.9374 96.5569C49.6739 95.7049 49.4101 94.8521 49.146 93.9984C48.8897 93.1418 48.6338 92.2864 48.3783 91.4322C48.3468 91.4305 48.3168 91.4294 48.2799 91.4278Z" fill="#DDA853"/>
<path d="M77.1687 106.853C82.2645 103.587 87.4639 100.559 92.6619 97.5771C95.4167 95.9979 98.1944 94.437 100.881 92.782C108.06 88.367 115.126 83.8921 121.834 79.0111C128.53 74.2261 134.768 68.8538 140.472 62.9604C143.909 59.3634 147.005 55.4663 149.722 51.3175L150.701 49.7519C151.026 49.2298 151.365 48.7118 151.655 48.18C151.957 47.6519 152.263 47.1259 152.541 46.5841C152.829 46.0476 153.114 45.5102 153.376 44.9606C154.455 42.7763 155.396 40.5286 156.192 38.2304C157.794 33.6425 158.786 28.8712 159.145 24.0344C159.518 19.2483 159.126 14.4343 157.983 9.76702C157.328 6.97084 156.467 4.22502 155.407 1.55119C155.275 1.236 155.157 0.929187 155.053 0.630763C154.945 0.334453 154.834 0.0550251 154.746 -0.222343C154.568 -0.776995 154.436 -1.29922 154.322 -1.77983C154.225 -2.23459 154.161 -2.69552 154.131 -3.15915C154.096 -3.56282 154.099 -3.9688 154.14 -4.3719C154.256 -5.48456 154.86 -5.96072 155.824 -5.70049C156.783 -5.44546 158.132 -4.45208 159.4 -2.60227C161.053 -0.156623 162.299 2.53178 163.09 5.36193C164.012 8.54641 164.625 11.8094 164.92 15.1072C165.22 18.3678 165.246 21.6471 164.998 24.9119C164.764 28.1622 164.288 31.3912 163.573 34.5731C162.87 37.7623 161.943 40.8997 160.798 43.963C160.178 45.6624 159.469 47.3749 158.665 49.0337C157.887 50.6684 156.96 52.2308 155.896 53.702C152.658 58.2519 149.106 62.5787 145.266 66.6522C141.458 70.6805 137.32 74.3962 132.894 77.762C129.632 80.2535 126.292 82.633 122.909 84.9362C119.525 87.2378 116.09 89.4561 112.6 91.5517C100.179 99.0429 87.4537 105.772 75.7752 113.96C71.1162 117.224 66.7034 120.215 62.3253 122.575C61.3268 123.127 60.7258 123.256 60.5372 122.948C60.4922 122.85 60.471 122.743 60.4751 122.636C60.4865 122.474 60.5188 122.314 60.5711 122.159C60.7388 121.656 60.9764 121.178 61.2773 120.739C61.5488 120.352 61.8217 119.963 62.0962 119.572C62.2351 119.381 62.3909 119.202 62.5619 119.038L63.0523 118.526C63.7108 117.845 64.3777 117.157 65.0652 116.484C66.4614 115.166 67.8916 113.845 69.3861 112.618C71.8199 110.561 74.5516 108.765 77.1984 106.945L77.1687 106.853Z" fill="#DDA853"/>
</svg>
