<svg width="116" height="117" viewBox="0 0 116 117" fill="none" xmlns="http://www.w3.org/2000/svg">
<path d="M35.8069 21.5537C36.7535 23.1332 37.8671 24.6238 39.1709 25.9131C39.8205 26.5589 40.5049 27.165 41.238 27.7055C41.9712 28.2437 42.7391 28.7258 43.5418 29.14C44.2192 29.4933 44.9268 29.7741 45.6437 30.0221L45.7203 30.0479C46.4859 30.3146 46.8942 31.157 46.6297 31.9292C46.4952 32.3247 46.2075 32.6266 45.8595 32.7904C44.667 33.3473 43.4629 33.8387 42.3099 34.3394C41.3053 34.777 40.3402 35.2099 39.4447 35.7037C38.5468 36.1927 37.7279 36.759 36.9646 37.4072C36.7744 37.5686 36.5841 37.7324 36.4055 37.9103L36.1317 38.17C36.0436 38.2566 35.9832 38.3385 35.909 38.4204C35.7652 38.5865 35.6144 38.7363 35.4798 38.9446C35.3429 39.1435 35.1968 39.3213 35.0668 39.5366L34.6771 40.1777C34.5495 40.3954 34.4335 40.6294 34.3128 40.854L34.1319 41.1933L33.9648 41.549L33.6308 42.258C32.7816 44.1908 32.0787 46.2313 31.4894 48.2999C31.2064 49.3365 30.9303 50.3778 30.7145 51.4214C30.4988 52.4604 30.3039 53.5111 30.2088 54.5032C30.116 55.4743 29.2599 56.1857 28.2971 56.0921C27.564 56.0195 26.9793 55.5024 26.7844 54.8285L26.7798 54.8074C26.4156 53.5391 26.1859 52.334 25.9608 51.1383L25.3321 47.6026C24.9888 45.6861 24.6222 43.7954 24.1141 42.031C23.8543 41.1582 23.5504 40.3205 23.1954 39.5974L22.9147 39.0967C22.8033 38.9258 22.6804 38.7503 22.5644 38.5772C22.3138 38.2355 22.054 37.8962 21.7616 37.5733C21.1886 36.9228 20.546 36.3074 19.8569 35.7294C19.1632 35.1584 18.4278 34.6226 17.6622 34.1242C16.131 33.1297 14.4768 32.2873 12.7832 31.6204C11.832 31.246 11.3611 30.1625 11.7346 29.2031C11.9248 28.7094 12.3007 28.3444 12.7508 28.1572L12.767 28.1501C14.1056 27.5979 15.442 27.0433 16.6878 26.3905C17.9568 25.7633 19.1238 25.0286 20.198 24.2119L20.9844 23.5801L21.706 22.8898C21.9588 22.6699 22.163 22.4078 22.3834 22.1597C22.5945 21.9047 22.8358 21.673 23.0168 21.3899L23.5991 20.5779C23.7824 20.2971 23.9424 19.9976 24.1164 19.7121L24.374 19.2769C24.4528 19.1248 24.5224 18.968 24.5967 18.8159L25.0398 17.8916C25.7984 16.1225 26.462 14.2225 27.028 12.3037C27.1533 11.8403 27.2879 11.4191 27.4317 11.0401C27.5036 10.8505 27.5779 10.6703 27.6544 10.4995C27.6753 10.448 27.6869 10.4363 27.7032 10.4129C27.7171 10.3919 27.7333 10.3708 27.7496 10.3521C27.782 10.3123 27.8168 10.2749 27.8563 10.2374C28.0094 10.0877 28.2205 9.93323 28.4247 9.71795C28.6312 9.50501 28.8237 9.24059 28.9768 8.96213C29.4223 8.13611 29.4826 7.64237 29.768 7.96295C29.8376 8.04485 29.9211 8.18291 30.0139 8.39819C30.1067 8.61113 30.2064 8.90831 30.2784 9.28739C30.3503 9.66413 30.3851 10.1181 30.3688 10.5931C30.3642 10.7101 30.3572 10.8365 30.3503 10.9465C30.3433 11.026 30.3387 11.1079 30.3317 11.1922C30.3178 11.3606 30.2992 11.5338 30.276 11.714C30.2204 12.1703 30.1531 12.6336 30.0788 13.1039C30 13.5743 29.8793 14.047 29.7703 14.522C29.5684 15.4744 29.2274 16.4197 28.9212 17.3323C28.7611 17.7442 28.5848 18.1513 28.4177 18.5608L28.1648 19.1739L27.8679 19.7729C27.6637 20.1707 27.4781 20.5756 27.2577 20.964L26.5594 22.1176C25.5688 23.6246 24.3693 25.0075 23.0121 26.1822L21.9681 27.0223C21.6132 27.289 21.2443 27.5277 20.88 27.7828C20.5204 28.0448 20.1423 28.2578 19.7664 28.4824C19.3906 28.7047 19.0194 28.9411 18.6343 29.1306L17.4905 29.7343L16.3352 30.2866L15.7575 30.5603L15.1775 30.8154L14.0152 31.3279L14.0012 28.4216C15.7714 29.0744 17.4743 29.8677 19.1122 30.8131C20.1771 31.4285 21.2396 32.1141 22.2349 32.9097C23.2302 33.703 24.1559 34.6085 24.9122 35.6335C25.1581 35.9891 25.4156 36.3284 25.6384 36.7052C25.752 36.8947 25.8727 37.0609 25.9794 37.2715L26.2972 37.8845C26.4132 38.0905 26.4759 38.2894 26.5664 38.4929C26.6476 38.6942 26.7404 38.8978 26.81 39.0967C26.9399 39.4945 27.0976 39.8969 27.2044 40.2901C27.6776 41.8719 27.9978 43.4257 28.2924 44.9654C28.5824 46.5051 28.833 48.0331 29.0905 49.5354C29.3504 51.033 29.6102 52.5283 29.9675 53.8784L26.8981 54.1499C27.0373 52.919 27.2809 51.7771 27.5547 50.6399C27.8864 49.2827 28.2692 47.9536 28.6938 46.6315C29.116 45.3094 29.5777 43.999 30.1113 42.7049C30.6449 41.4109 31.2156 40.1263 31.9488 38.8744C32.3176 38.2496 32.712 37.6295 33.1876 37.0258C33.2456 36.9509 33.299 36.8737 33.364 36.7988L33.5658 36.5765L33.9741 36.1366C34.111 35.9891 34.2432 35.8838 34.3801 35.7575C34.517 35.6358 34.6469 35.5094 34.7884 35.3948C35.5285 34.756 36.3382 34.1873 37.1757 33.6889C38.0132 33.1905 38.8763 32.7716 39.73 32.3972C41.4422 31.6531 43.094 31.0447 44.667 30.2983L44.8503 32.6546C43.3191 32.1586 41.8668 31.4542 40.5258 30.5978C39.1918 29.7296 37.9715 28.7117 36.8648 27.5932C35.7652 26.4677 34.7838 25.2368 33.9138 23.9358C33.0461 22.6371 32.313 21.2308 31.6959 19.8127C30.9094 17.9899 30.3642 16.1506 30.0116 14.3652C29.6543 12.5798 29.4919 10.8435 29.4896 9.19613C29.4919 8.57603 29.6241 8.20163 29.8167 8.09867L29.6056 8.63687C29.5545 8.68367 29.478 8.72579 29.4014 8.74451C29.3248 8.76323 29.2529 8.76323 29.2019 8.75855C29.0975 8.74685 29.058 8.73281 29.0488 8.74685C29.0441 8.75855 29.072 8.80301 29.188 8.84747C29.246 8.86853 29.3295 8.88725 29.4269 8.87789C29.5244 8.87087 29.6311 8.83577 29.71 8.78663L29.993 8.06357C30.2436 8.09165 30.5382 8.48711 30.7888 9.25229C31.5381 11.5455 32.313 13.9183 33.2178 16.1764C33.9556 18.0296 34.7258 19.904 35.7489 21.556C35.7652 21.5513 35.7814 21.5467 35.8023 21.542L35.8069 21.5537Z" fill="#DDA853"/>
<path d="M76.2908 45.3658C76.604 46.283 76.9381 47.1933 77.2861 48.0895C77.3742 48.3095 77.4624 48.5435 77.5505 48.7494C77.6387 48.9436 77.7153 49.1449 77.8127 49.3367C78.0006 49.7205 78.2071 50.0972 78.4368 50.4576C79.3578 51.9061 80.6385 53.1463 82.1534 54.115C83.4433 54.9598 84.9026 55.615 86.4199 56.111C87.1855 56.3614 87.6031 57.1898 87.3572 57.9596C87.2365 58.3364 86.979 58.6289 86.6612 58.802L86.6217 58.8231C86.3016 58.9963 85.9768 59.153 85.6682 59.3496C83.8888 60.4283 82.2903 61.8862 80.9006 63.5218C79.5086 65.1598 78.3254 66.992 77.3742 68.9249C76.4253 70.8577 75.7038 72.9005 75.3233 74.9714C74.9452 77.0377 74.9081 79.1413 75.3767 81.0508L71.9269 81.7621C71.5626 79.731 71.2077 77.7139 70.7761 75.7413C70.3887 73.9652 69.9479 72.2173 69.3957 70.5278C68.8413 68.8406 68.1777 67.2097 67.3704 65.6746C67.1662 65.2955 66.9505 64.9165 66.737 64.5467C66.5189 64.1864 66.2939 63.833 66.0526 63.4961C65.5724 62.8175 65.0481 62.188 64.482 61.6358C63.3475 60.5266 62.0367 59.7848 60.6934 59.6047C59.6819 59.4689 58.9697 58.5306 59.1042 57.5104C59.1831 56.9183 59.5265 56.4293 59.9974 56.1485L60.0113 56.1415C61.2386 55.4207 62.3731 54.562 63.3545 53.537C63.6097 53.2913 63.8324 53.0129 64.0713 52.7508C64.2917 52.47 64.5237 52.2009 64.7302 51.9084C65.1594 51.3374 65.5422 50.7244 65.8972 50.0926C67.3217 47.5607 68.1754 44.6404 68.709 41.6405C69.0547 39.6772 69.3888 37.6601 69.6324 35.6548C69.7461 34.6954 69.9154 33.9021 70.1265 33.2516C70.2309 32.9263 70.3493 32.6362 70.4769 32.3788C70.5395 32.1728 70.623 31.9435 70.7228 31.7727C70.8225 31.5949 70.9339 31.4638 71.0244 31.3819C71.5441 30.9818 71.145 31.6861 71.7645 32.2571C71.9153 32.3858 72.1357 32.4302 72.2795 32.4092C72.3514 32.4068 72.4048 32.3811 72.4396 32.3998C72.4721 32.5098 72.5045 32.6245 72.5324 32.7485C72.653 33.2422 72.7319 33.853 72.7574 34.569C72.8201 36.3825 72.6762 38.3738 72.3793 40.2435C72.0939 42.043 71.7273 43.8354 71.2239 45.6091C70.971 46.4936 70.6903 47.3758 70.3585 48.2416C70.0314 49.1098 69.6649 49.9685 69.2426 50.8039C68.4097 52.4794 67.3588 54.0752 66.0921 55.4956C65.4541 56.2023 64.7697 56.8669 64.0365 57.4799C63.2988 58.0837 62.5216 58.6359 61.7119 59.1367L61.1296 56.1812C62.8116 56.3708 64.3961 57.0611 65.7 57.9924C66.7973 58.7716 67.7717 59.71 68.5837 60.7279C68.9967 61.2356 69.3656 61.7645 69.6997 62.305L69.9433 62.7122C70.0175 62.8479 70.0894 62.9836 70.1637 63.1193C70.3052 63.3908 70.4513 63.6599 70.5766 63.9337C71.8874 66.73 72.7992 69.6316 73.5161 72.5261C74.2306 75.4254 74.7457 78.3293 75.2189 81.1935L75.2236 81.2216C75.3651 82.085 74.7874 82.904 73.929 83.0468C73.1031 83.1848 72.3189 82.6443 72.1357 81.83C71.783 80.2481 71.6879 78.6429 71.8155 77.0868C72.0614 74.1712 72.8781 71.3959 74.0404 68.8102C75.2143 66.2292 76.7409 63.8237 78.6038 61.6966C80.5016 59.5345 82.7566 57.6297 85.4246 56.331L85.6033 58.7459C84.7588 58.451 83.9166 58.1468 83.0977 57.7607C82.2764 57.391 81.476 56.9558 80.7034 56.4667C79.9285 55.9847 79.1954 55.4207 78.5064 54.8053C77.8173 54.1899 77.1793 53.5043 76.6225 52.7555C76.0634 52.009 75.5762 51.2064 75.1795 50.3617C75.0867 50.1511 74.98 49.9334 74.8965 49.7299L74.6482 49.1238C74.4835 48.719 74.3281 48.3142 74.1726 47.907C73.5578 46.2807 72.9941 44.6427 72.4837 42.9813C71.9153 41.128 71.4768 39.2818 71.2425 37.4729C71.0151 35.6711 70.9687 33.881 71.3237 32.2664C71.435 31.8523 71.5742 31.5761 71.7204 31.4451L71.6879 31.2602C71.674 31.176 71.6299 31.0754 71.5649 30.9958C71.5 30.9139 71.4257 30.8578 71.3677 30.818C71.2517 30.7384 71.1914 30.6963 71.1798 30.6495C71.1729 30.6074 71.203 30.5489 71.3886 30.5348C71.4791 30.5302 71.6229 30.5489 71.783 30.6355C71.9431 30.7174 72.0916 30.8695 72.1821 31.0122L72.2702 31.5036C72.3468 31.5995 72.4117 31.7399 72.4651 31.9178C72.5208 32.098 72.5417 32.3086 72.5904 32.5847C72.6345 32.8608 72.6553 33.1299 72.7157 33.413C72.769 33.6938 72.8224 33.977 72.8781 34.2601C73.0126 34.8334 73.1356 35.4067 73.2957 35.9894C73.5996 37.15 73.9476 38.327 74.3257 39.497C74.9382 41.4205 75.5321 43.4259 76.2513 45.3587C76.2699 45.3587 76.2861 45.3587 76.307 45.3587L76.2908 45.3658Z" fill="#DDA853"/>
<path d="M46.27 79.6701C46.8453 81.3339 47.8197 82.7355 49.2187 83.737C49.3486 83.847 49.5017 83.9289 49.6479 84.0178L50.091 84.2869C50.4019 84.4461 50.7267 84.5818 51.0469 84.7269L51.1605 84.7783C51.889 85.1083 52.2138 85.9694 51.8867 86.7042C51.7243 87.0715 51.4227 87.3383 51.077 87.4717C50.8218 87.57 50.5689 87.6682 50.323 87.7712C49.8126 87.9841 49.3277 88.1971 48.8985 88.4264C48.4693 88.6581 48.0935 88.9014 47.7571 89.1916C47.0889 89.7672 46.4997 90.5675 46.0032 91.4403C45.5113 92.3178 45.1077 93.2632 44.8664 94.1875C44.6205 95.1024 44.5717 96.0267 44.7573 96.5907L41.3562 97.4494C41.0941 96.2935 40.8157 95.1703 40.4746 94.1032C39.9503 92.4652 39.2636 90.9606 38.2961 89.7532C37.331 88.5387 36.0945 87.6144 34.7767 87.2564C33.793 86.9896 33.213 85.9694 33.4775 84.9772C33.6074 84.4929 33.916 84.1044 34.3127 83.8657L34.3962 83.8166L34.8463 83.5475L35.0713 83.4141L35.2848 83.2597L35.7163 82.9531L36.1246 82.6068L36.3288 82.4337L36.5213 82.2441L36.9088 81.8627L37.2707 81.4509L37.4517 81.2449C37.5097 81.1747 37.5653 81.0975 37.621 81.025C38.5374 79.8597 39.2961 78.5165 39.8923 77.0751C40.2751 76.1695 40.7252 75.2592 41.1126 74.3279C41.3098 73.888 41.5256 73.5323 41.7993 73.2609C42.0615 72.9847 42.3608 72.7858 42.6833 72.6478C43.1519 72.4465 43.5765 72.5214 43.8688 72.849C44.1588 73.1743 44.3305 73.7569 44.2423 74.5174C44.1356 75.4792 43.834 76.4994 43.4326 77.419C43.247 77.8777 43.0243 78.327 42.8201 78.7786L42.4837 79.4455L42.3144 79.7778L42.1311 80.1054C41.6625 80.9852 41.1103 81.8323 40.5187 82.6513C39.9248 83.4726 39.2381 84.2401 38.5003 84.9655C37.7463 85.6792 36.9065 86.3157 36.0017 86.8773L35.6722 83.9125C36.3891 84.0763 37.0851 84.3291 37.7393 84.6496C39.0316 85.2721 40.2473 86.1894 41.0059 87.3126C41.5209 88.0567 41.9617 88.8429 42.3469 89.6268C42.732 90.4107 43.0521 91.2087 43.3375 92.0043C43.8989 93.6001 44.2933 95.196 44.5973 96.7591L44.6042 96.7989C44.7713 97.6554 44.2191 98.4884 43.37 98.6569C42.5603 98.8183 41.7715 98.3152 41.5534 97.5267C41.3284 96.7053 41.3214 95.9214 41.4049 95.2007C41.5047 94.356 41.7135 93.5791 41.9687 92.842C42.2262 92.1049 42.5371 91.4052 42.8921 90.729C43.247 90.055 43.6461 89.4069 44.1101 88.7844C44.5764 88.1643 45.1007 87.5653 45.7433 87.0411C46.4208 86.4772 47.2003 86.0373 47.9381 85.7167C48.6828 85.3867 49.3857 85.1457 50.0725 84.8953L50.1003 87.3266C48.3371 86.6386 46.6783 85.5014 45.4441 84.0061C45.2956 83.8166 45.1564 83.62 45.0125 83.4258L44.8014 83.1333C44.7365 83.0327 44.6785 82.9297 44.6158 82.8268L44.2516 82.2114L43.943 81.5725L43.7899 81.2543L43.6623 80.929L43.4094 80.2762L43.2029 79.614C43.1333 79.394 43.0661 79.174 43.0173 78.9494C42.9547 78.6967 42.8967 78.444 42.8457 78.1936C42.8062 77.9432 42.7691 77.6928 42.7389 77.4448C42.7041 77.1967 42.6879 76.951 42.6809 76.7077C42.6717 76.4643 42.6647 76.2233 42.6693 75.9846C42.7018 75.0299 42.8457 74.122 43.1403 73.2749C43.4071 72.4957 44.1797 72.5167 44.4093 73.3568C44.7411 74.5479 45.0357 75.7647 45.3652 76.9159C45.6273 77.8636 45.8431 78.8207 46.2073 79.6842C46.2236 79.6795 46.2398 79.6771 46.2584 79.6725L46.27 79.6701Z" fill="#DDA853"/>
<path d="M100.259 21.7409C100.468 22.471 100.753 23.1707 101.085 23.8423C101.173 24.0061 101.247 24.1816 101.347 24.3383L101.632 24.8204C101.841 25.1246 102.045 25.4405 102.282 25.7213C102.623 26.1612 103.02 26.5496 103.437 26.9077L103.456 26.924C104.082 27.4599 104.161 28.4053 103.63 29.0394C103.546 29.14 103.444 29.2313 103.342 29.3038C103.159 29.4325 102.976 29.5636 102.797 29.6969C101.637 30.6704 100.679 31.9574 100.013 33.3824C99.6766 34.0915 99.4051 34.8332 99.2242 35.5703C99.1847 35.7528 99.1314 35.9377 99.1082 36.1179C99.078 36.2981 99.0432 36.4806 99.0316 36.6514L99.0061 36.9088V37.1475L98.9991 37.2668C98.9991 37.3043 99.0061 37.337 99.0084 37.3698C99.0154 37.4377 99.02 37.5055 99.0223 37.5734L99.027 37.6553C99.0687 38.6217 98.3263 39.443 97.3682 39.4852C96.5956 39.5203 95.9158 39.0359 95.6606 38.3432C95.4147 37.6717 95.2059 37.0024 95.0296 36.3753C94.8509 35.7505 94.6909 35.1398 94.5122 34.5969C94.4705 34.4588 94.4264 34.3255 94.38 34.2014C94.3336 34.0751 94.2918 33.944 94.2431 33.8223C94.141 33.5884 94.0482 33.3426 93.9322 33.1391C93.8302 32.9144 93.6979 32.7342 93.5819 32.5354C93.517 32.4441 93.445 32.3622 93.3801 32.2733L93.2803 32.1422L93.1643 32.0276C92.575 31.4028 91.77 30.9301 90.777 30.6095C89.8096 30.2983 89.276 29.2547 89.5846 28.2789C89.7261 27.8296 90.023 27.4739 90.3942 27.2493L90.4847 27.1955L90.9394 26.9217C91.016 26.8749 91.0925 26.8328 91.1668 26.786L91.3779 26.6292C91.5171 26.5239 91.6656 26.428 91.8025 26.318L92.1969 25.974C92.7003 25.4896 93.1805 24.9725 93.5587 24.3594C93.9461 23.758 94.2895 23.1098 94.5494 22.4078C94.6978 22.0685 94.793 21.6965 94.9159 21.3385L95.0597 20.7815L95.1317 20.5031L95.1874 20.2176C95.3637 19.4337 95.5794 18.6217 95.7836 17.8074C95.8253 17.6108 95.888 17.433 95.9646 17.2692C96.0458 17.0914 96.127 17.0258 96.2499 16.6702C96.3752 16.3917 96.5376 16.1741 96.6977 16.0454C96.8577 15.9143 97.0062 15.8629 97.1269 15.8629C97.4772 15.8746 97.5607 16.3589 97.9064 16.7521C98.0688 16.9486 98.3194 17.1031 98.5421 17.1101C98.6511 17.1171 98.7393 17.0937 98.7926 17.0726L98.8019 17.068C98.8019 17.068 98.8089 17.068 98.8089 17.0797L98.8228 17.1335C98.8298 17.1686 98.839 17.206 98.846 17.2435C98.8599 17.3183 98.8715 17.3956 98.8808 17.4775C98.9017 17.681 98.9156 17.8916 98.9226 18.1022C98.9226 18.3152 98.9109 18.5305 98.8947 18.7457C98.8715 19.1763 98.788 19.6092 98.7022 20.0281C98.4818 20.9875 98.2405 21.9445 97.8948 22.8852C97.5561 23.8235 97.1663 24.7549 96.649 25.637C95.6537 27.4131 94.2083 29.016 92.459 30.1743C92.3593 30.2422 92.2618 30.3124 92.1597 30.3802L91.886 27.1861C92.3918 27.3406 92.9114 27.4576 93.4149 27.7079C93.6678 27.8226 93.916 27.9373 94.1503 28.1034C94.2686 28.1806 94.3823 28.2602 94.496 28.3444C94.6097 28.424 94.7187 28.5106 94.8185 28.6135C95.5052 29.2313 96.0852 29.9801 96.5469 30.7453C97.0132 31.5175 97.331 32.3201 97.5816 33.0806C97.8345 33.8411 98.0294 34.5829 98.208 35.2732C98.389 35.9635 98.5653 36.6163 98.7532 37.2294L95.7511 37.915C95.7442 37.6108 95.7256 37.2856 95.7604 37.0118C95.8138 36.2817 95.9599 35.6312 96.1339 34.9923L96.2685 34.5197L96.4262 34.0587C96.526 33.7475 96.6536 33.455 96.7719 33.1555C97.2661 31.9691 97.911 30.8576 98.7045 29.849C99.5814 28.7469 100.63 27.7547 101.855 26.9942L101.772 29.1096C100.542 28.0823 99.5211 26.8421 98.7717 25.4849L98.491 24.9748L98.2405 24.453L98.1152 24.1933L98.0062 23.9265L97.7881 23.393C97.5259 22.6746 97.2893 21.9492 97.1199 21.2098C96.707 19.5109 96.7974 17.8051 97.4586 16.4104C97.5468 16.2232 97.6767 16.0945 97.8182 16.0337C97.8438 16.022 97.8553 15.9939 97.8438 15.9682C97.8438 15.9635 97.8391 15.9588 97.8345 15.9541L97.621 15.7178C97.5329 15.6195 97.3728 15.568 97.2754 15.5493C97.1733 15.5282 97.1129 15.5119 97.0897 15.4721C97.0689 15.4346 97.0805 15.3691 97.1965 15.2919C97.2545 15.2545 97.3449 15.2147 97.4656 15.2006C97.5839 15.1843 97.7278 15.2006 97.8554 15.2404L98.3472 16.0337C98.5142 16.1132 98.6558 16.277 98.723 16.5204C98.9945 17.4915 99.252 18.472 99.535 19.4197C99.7647 20.1965 99.9318 21.0038 100.206 21.7643C100.222 21.7597 100.238 21.7573 100.257 21.7526L100.259 21.7409Z" fill="#DDA853"/>
<path d="M95.4519 92.6243C95.4959 92.8161 95.54 93.015 95.5887 93.1976C95.6119 93.2935 95.6375 93.3801 95.6607 93.4596C95.6839 93.5415 95.7071 93.6258 95.7372 93.7053C95.8463 94.0306 95.9831 94.3535 96.1479 94.6507C96.4773 95.2497 96.9088 95.7786 97.4099 96.16C97.6883 96.3683 97.9876 96.5344 98.3055 96.6397L98.4075 96.6748C99.1662 96.9275 99.5791 97.7535 99.3263 98.5187C99.2079 98.8791 98.9597 99.1646 98.6558 99.3354C98.331 99.5179 98.0247 99.7262 97.7487 99.9695C97.1756 100.477 96.6977 101.095 96.2476 101.813C96.0226 102.171 95.8022 102.555 95.5795 102.955L95.2384 103.568C95.134 103.76 95.0459 103.924 94.96 104.109C94.619 104.827 94.3707 105.576 94.2663 106.311C94.1573 107.046 94.1851 107.755 94.3522 108.398L90.9487 109.142C90.6819 107.93 90.3966 106.758 90.0254 105.66C89.5823 104.343 89.0185 103.138 88.2575 102.132C87.4989 101.121 86.5616 100.311 85.5292 99.8642C84.5943 99.4571 84.1604 98.3619 84.5641 97.4189C84.7427 97.0001 85.0559 96.6818 85.4318 96.4923L85.5199 96.4478L85.9399 96.2349L86.151 96.1319L86.3505 96.0079L86.7495 95.7599L87.1254 95.4744L87.3156 95.334L87.4919 95.1725L87.8446 94.8543L88.1694 94.5009C88.2227 94.4424 88.2807 94.3863 88.3318 94.3254L88.4803 94.1336C88.58 94.0049 88.6821 93.8808 88.7795 93.7498L89.0533 93.3403C89.1484 93.2069 89.2296 93.0618 89.3108 92.9168C89.392 92.7717 89.4779 92.6289 89.5544 92.4815C89.6936 92.175 89.856 91.8825 89.972 91.5596C90.0347 91.4004 90.0996 91.246 90.1599 91.0845L90.32 90.5955C90.5567 89.8163 90.8722 89.0324 91.0972 88.218C91.2132 87.8343 91.3687 87.502 91.5914 87.2563C91.6795 87.3031 91.8559 87.4107 92.0832 87.392C92.3106 87.378 92.5194 87.2165 92.6238 87.0129C92.9207 86.3975 92.6702 85.8921 93.0112 85.8312C93.0971 85.8219 93.2339 85.85 93.4172 85.9833C93.5982 86.112 93.8139 86.3718 93.9392 86.697C94.0042 86.8585 94.0483 87.027 94.0784 87.1908C94.09 87.2657 94.1016 87.3405 94.1132 87.4178C94.1225 87.4529 94.1318 87.488 94.1411 87.5254C94.1759 87.6728 94.1991 87.8319 94.2107 88.0051C94.2501 88.4427 94.2037 88.899 94.1527 89.3553C94.1179 89.5823 94.0691 89.8092 94.0204 90.0339C93.9949 90.1462 93.9694 90.2585 93.9415 90.3685C93.9067 90.4785 93.8743 90.5885 93.8418 90.6961C93.2873 92.5096 92.4776 94.2552 91.3431 95.8254C90.7747 96.6093 90.1066 97.3277 89.3735 97.9852C88.6287 98.6357 87.7959 99.1809 86.9143 99.656L86.905 96.6444C87.2855 96.7941 87.6659 96.9533 88.0255 97.1451C89.1438 97.7208 90.211 98.5328 90.8606 99.5296C92.7537 102.422 93.6655 105.539 94.1805 108.492L94.1967 108.581C94.3452 109.432 93.7815 110.247 92.9347 110.397C92.0995 110.544 91.3037 109.989 91.139 109.156C91.0671 108.794 91.016 108.426 90.9998 108.064C90.9255 106.573 91.2248 105.148 91.7306 103.866C91.9835 103.224 92.2943 102.604 92.6447 102.031C92.9532 101.526 93.2711 100.997 93.6307 100.466C94.0784 99.8034 94.5911 99.1295 95.2036 98.5211C95.8091 97.908 96.5191 97.3838 97.2591 96.9626L97.5631 99.2956C96.7186 99.0288 95.953 98.5842 95.3196 98.0297C94.6816 97.4774 94.1666 96.8269 93.7559 96.1366C93.5471 95.7903 93.3731 95.4299 93.2131 95.0625C93.0623 94.6975 92.9254 94.3044 92.8279 93.9487C92.6215 93.2256 92.4707 92.519 92.3384 91.8076C92.1783 90.9348 92.1087 90.076 92.1621 89.2406C92.2155 88.4076 92.3848 87.5933 92.7305 86.8725C92.8094 86.7158 92.9138 86.6011 93.0298 86.5356L93.0251 86.573C93.0483 86.6011 93.0483 86.669 93.0135 86.7298C92.9787 86.793 92.9184 86.8398 92.8743 86.8702C92.7815 86.931 92.7328 86.9661 92.7259 87.0246C92.7259 87.0761 92.7491 87.1674 92.9439 87.2048C93.0391 87.2212 93.1991 87.2048 93.3592 87.0995C93.5193 86.9989 93.633 86.8234 93.6771 86.6947L93.691 86.5637C93.8302 86.6526 93.9346 86.7977 93.9903 87.0106C94.2547 87.9957 94.5331 89.0277 94.8092 90.0549C95.0366 90.9044 95.1642 91.8029 95.3962 92.6313C95.4124 92.6289 95.4287 92.6266 95.4472 92.6243H95.4519Z" fill="#DDA853"/>
</svg>
