<svg width="206" height="160" viewBox="0 0 206 160" fill="none" xmlns="http://www.w3.org/2000/svg">
<g clip-path="url(#clip0_2342_1006)">
<path d="M101.667 169.84L99.5351 170.72C98.8215 171.006 98.1005 171.272 97.3836 171.548L93.0704 173.19C92.3256 173.459 91.4969 173.748 90.5462 173.938C90.0712 174.031 89.5645 174.098 89.0335 174.111C88.5043 174.127 87.942 174.079 87.4203 173.973C86.3645 173.765 85.4434 173.345 84.6575 172.876C83.8657 172.405 83.1952 171.878 82.578 171.363C77.8402 167.331 73.9448 162.619 70.3607 157.808C68.5675 155.398 66.8499 152.968 65.1349 150.543C63.4177 148.116 61.7141 145.681 60.0169 143.241C56.624 138.36 53.2671 133.456 49.9352 128.534C46.4017 123.317 42.8897 118.069 39.3844 112.82C37.6322 110.195 35.8802 107.571 34.1295 104.949C33.2534 103.639 32.3776 102.329 31.5024 101.02L30.1881 99.0582L29.5267 98.0711C29.299 97.7282 29.0649 97.365 28.8391 96.9711C28.5028 96.3814 28.1738 95.7195 27.9612 94.929C27.7435 94.1524 27.6713 93.2057 27.8814 92.2943C28.0858 91.3827 28.5195 90.5991 28.9757 89.9785C29.4352 89.3532 29.9243 88.8454 30.3784 88.3929L33.0006 85.8413C33.8722 84.9942 34.7416 84.1449 35.6252 83.3101L38.2654 80.7949L40.9267 78.3016C42.6964 76.6345 44.4972 75.0006 46.2893 73.3574C53.4845 66.8133 60.8563 60.4607 68.3755 54.2859C75.9115 48.1318 83.583 42.139 91.4264 36.3759L94.3705 34.2185L97.3328 32.0862L98.8156 31.0221L99.5759 30.4798C99.857 30.2851 100.182 30.0674 100.582 29.8592C100.979 29.6531 101.462 29.4492 102.043 29.3442C102.618 29.233 103.295 29.2634 103.836 29.4123C104.388 29.5563 104.831 29.7821 105.196 30.0022C105.562 30.2249 105.858 30.4498 106.115 30.6496C109.921 33.6377 113.492 36.8773 116.825 40.3621C117.622 41.1965 117.57 42.531 116.707 43.3428C116.683 43.3651 116.659 43.3867 116.635 43.4076L116.621 43.4192C105.146 53.2325 93.6701 63.0468 82.1927 72.8621L65.0939 87.4814C65.0119 87.559 65.002 87.5928 65.0476 87.5184C65.0912 87.4539 65.1739 87.2279 65.1662 87.049C65.165 86.8668 65.1179 86.778 65.1263 86.7935C65.1298 86.8039 65.1793 86.8913 65.2695 87.012L66.9303 89.1128L70.3588 93.4211C72.6531 96.2865 74.9504 99.1497 77.2649 101.999C83.7676 110.018 90.3528 117.971 97.0192 125.856L102.034 131.757L104.553 134.698L105.816 136.166C106.235 136.652 106.665 137.16 107.056 137.597C107.844 138.482 108.648 139.235 109.377 139.609C109.739 139.799 110.061 139.897 110.36 139.926C110.514 139.927 110.655 139.939 110.816 139.913C110.977 139.889 111.157 139.846 111.354 139.78C112.139 139.529 113.192 138.853 114.333 138.133C115.446 137.429 116.568 136.742 117.668 136.018C126.519 130.315 135.038 124.094 143.166 117.403C147.23 114.057 151.197 110.594 155.058 107.019C156.028 106.13 156.975 105.217 157.934 104.317C158.888 103.411 159.824 102.487 160.77 101.573C161.711 100.659 162.543 99.8089 163.094 98.9825C163.368 98.5728 163.577 98.1789 163.687 97.8177C163.8 97.4524 163.845 97.129 163.82 96.7633C163.791 96.3981 163.693 95.9916 163.521 95.5516C163.344 95.1106 163.1 94.6426 162.809 94.1594C162.23 93.2067 161.438 92.11 160.722 91.052C159.26 88.9288 157.793 86.8097 156.31 84.7011C153.348 80.4812 150.346 76.2901 147.301 72.1293C144.259 67.9674 141.173 63.8369 138.05 59.7345L136.876 58.1982L136.314 57.4678C136.148 57.2605 136 57.0942 135.886 56.989C135.77 56.8774 135.696 56.8407 135.687 56.8358C135.677 56.8353 135.737 56.8468 135.739 56.8464C135.744 56.8473 135.69 56.8446 135.564 56.8919C135.441 56.9374 135.265 57.022 135.062 57.141C134.858 57.2603 134.632 57.4098 134.37 57.5898L133.548 58.1527L131.905 59.2786L128.617 61.5303L102.364 79.5164C101.91 79.8372 101.577 80.1452 101.459 80.3179C101.397 80.4036 101.387 80.4395 101.383 80.4446C101.383 80.4517 101.382 80.4419 101.387 80.4989C101.387 80.6035 101.526 80.9651 101.797 81.3919C101.931 81.6076 102.096 81.8505 102.283 82.1205L102.825 82.9091C104.276 85.0099 105.761 87.0875 107.304 89.1222C110.38 93.198 113.628 97.1457 117.044 100.943C119.99 104.228 123.062 107.42 126.229 110.516L123.179 110.461C129.474 105.191 135.644 99.7784 141.578 94.2795C142.119 93.7703 142.717 93.2419 143.1 92.8463C143.296 92.643 143.458 92.4541 143.565 92.297C143.673 92.1392 143.733 92.0168 143.764 91.9298C143.791 91.8425 143.803 91.7813 143.798 91.674C143.794 91.5702 143.754 91.4198 143.68 91.243C143.531 90.8843 143.238 90.4462 142.89 89.9725C141.443 87.9938 140.162 86.1909 139.031 84.5506C136.77 81.2698 135.112 78.6392 133.937 76.5522C132.226 73.5133 132.671 73.1837 134.866 75.2377C135.963 76.2646 137.498 77.8874 139.419 80.0655C140.379 81.1543 141.436 82.3821 142.583 83.7435C143.154 84.4269 143.75 85.1411 144.371 85.8854C144.679 86.2595 144.994 86.6412 145.314 87.0303C145.633 87.424 145.951 87.7946 146.324 88.2891C146.753 88.8751 147.237 89.5823 147.509 90.5906C147.639 91.0929 147.692 91.6737 147.62 92.2476C147.551 92.821 147.367 93.366 147.135 93.8214C146.663 94.7375 146.072 95.3642 145.554 95.8952C145.308 96.1359 145.062 96.377 144.815 96.6186C144.576 96.851 144.336 97.0836 144.096 97.3168C142.169 99.1773 140.194 101.038 138.189 102.886C134.179 106.579 130.044 110.21 125.935 113.668L125.909 113.691C125.1 114.372 123.918 114.325 123.194 113.619C122.754 113.187 122.332 112.772 121.912 112.359C117.376 107.874 113.078 103.16 109.035 98.2421C107.014 95.7833 105.057 93.2733 103.166 90.7155C102.22 89.4369 101.291 88.1461 100.379 86.8429C99.9179 86.1955 99.4743 85.5355 99.024 84.8804C98.7978 84.5475 98.5811 84.2408 98.3372 83.8645C98.0969 83.488 97.8472 83.0761 97.6295 82.5782C97.4138 82.0874 97.2246 81.4954 97.1861 80.8126C97.1395 80.1316 97.2913 79.381 97.5849 78.7596C97.8782 78.1368 98.275 77.6425 98.6637 77.2494C99.0551 76.8564 99.4505 76.5408 99.8236 76.2687C100.012 76.1303 100.193 76.0059 100.37 75.8841L100.872 75.5412L101.874 74.8573L103.877 73.4892L111.885 68.0137C117.22 64.3573 122.553 60.7019 127.885 57.047L131.881 54.302C132.207 54.0788 132.584 53.8144 133.013 53.5647C133.441 53.314 133.936 53.0641 134.533 52.8817C134.838 52.7946 135.164 52.7244 135.517 52.6963C135.87 52.6726 136.242 52.6819 136.607 52.7545C137.345 52.891 137.989 53.2453 138.45 53.6146C138.924 53.9874 139.263 54.3748 139.556 54.7289C139.85 55.0911 140.07 55.3886 140.313 55.7032L141.752 57.579L144.613 61.343C148.412 66.373 152.16 71.4414 155.847 76.5534C157.691 79.1092 159.521 81.675 161.337 84.2506L164.05 88.1214L165.398 90.063C165.846 90.7059 166.323 91.3975 166.771 92.1584C167.216 92.9244 167.639 93.7693 167.926 94.7487C168.064 95.2407 168.176 95.7573 168.217 96.3046C168.256 96.8495 168.248 97.4163 168.155 97.9712C167.981 99.0841 167.541 100.103 167.02 100.957C166.498 101.82 165.896 102.546 165.298 103.205C164.695 103.866 164.098 104.449 163.525 105.013L161.785 106.725C160.618 107.859 159.441 108.983 158.258 110.102C155.64 112.563 152.946 114.998 150.202 117.397C147.443 119.778 144.647 122.137 141.792 124.406C138.938 126.674 136.058 128.893 133.14 130.998C131.693 132.067 130.217 133.081 128.765 134.106C127.292 135.101 125.843 136.11 124.371 137.056C123.202 137.822 122.033 138.587 120.848 139.329L119.078 140.453L117.293 141.552L115.496 142.656C114.867 143.032 114.169 143.433 113.35 143.772C112.535 144.107 111.567 144.381 110.518 144.392C109.48 144.403 108.466 144.145 107.617 143.754C106.759 143.364 106.062 142.854 105.446 142.332C104.831 141.807 104.301 141.257 103.813 140.714C103.572 140.445 103.335 140.17 103.114 139.91L102.458 139.137L101.144 137.591C99.3966 135.524 97.6492 133.457 95.9014 131.39C88.9271 123.106 82.0153 114.757 75.1871 106.338C71.7731 102.128 68.38 97.9007 65.0106 93.6552L62.488 90.4676L62.1729 90.069L61.8314 89.6308C61.5804 89.2852 61.2657 88.8574 61.0418 88.17C60.9339 87.8284 60.8619 87.4101 60.8892 86.9645C60.9128 86.5194 61.0477 86.0678 61.2256 85.7078C61.5933 84.9808 62.0381 84.5826 62.3628 84.2817L68.7512 78.8397C77.2301 71.649 85.705 64.4618 94.1698 57.283C100.783 51.6842 107.406 46.0775 114.06 40.4443L113.883 43.1166C111.879 41.0045 109.78 38.9796 107.592 37.0514C106.497 36.0886 105.383 35.1467 104.244 34.2326C103.965 34.0111 103.657 33.7581 103.419 33.5791C103.178 33.397 102.971 33.2716 102.841 33.2176C102.776 33.1898 102.733 33.1788 102.71 33.1746C102.686 33.1712 102.687 33.1718 102.663 33.1737C102.624 33.1762 102.487 33.2115 102.281 33.3246C101.888 33.5358 101.185 34.0703 100.582 34.4912L98.7262 35.8138C97.4855 36.6911 96.2551 37.5831 95.0282 38.48C92.5638 40.2596 90.1293 42.0807 87.6928 43.8993C82.8322 47.5534 78.0373 51.2958 73.2953 55.1013C70.9204 56.9994 68.576 58.9342 66.2284 60.8643C63.8986 62.8157 61.5654 64.7622 59.2638 66.7444C53.6844 71.5235 48.1991 76.4112 42.8124 81.4036C41.4596 82.6453 40.1248 83.9059 38.7909 85.1675C37.4507 86.4225 36.1276 87.6953 34.8068 88.9703L32.8347 90.8728C32.2154 91.4771 31.7205 92.0509 31.4819 92.5493C31.3677 92.7992 31.3039 93.0107 31.2919 93.242C31.2778 93.4733 31.3074 93.7323 31.3899 94.0238C31.5569 94.6106 31.9383 95.2848 32.3997 95.9899C40.3247 107.915 48.2727 119.874 56.37 131.691C60.4191 137.602 64.5107 143.483 68.6646 149.317C72.8189 155.149 76.9589 160.956 81.9771 165.879C82.2891 166.188 82.6026 166.495 82.9258 166.79C83.2471 167.088 83.563 167.392 83.8943 167.678C84.5515 168.261 85.2042 168.844 85.8567 169.312C86.5099 169.785 87.176 170.16 87.8345 170.356C88.1648 170.454 88.4871 170.507 88.8173 170.517C89.1514 170.524 89.5039 170.494 89.8767 170.419C90.6213 170.277 91.4249 169.989 92.2827 169.666L94.843 168.683L97.4034 167.699C97.8317 167.539 98.2558 167.369 98.6768 167.19L99.9437 166.663L102.478 165.61L103.745 165.084C104.166 164.905 104.581 164.712 104.999 164.527C106.668 163.776 108.344 163.041 110.007 162.276L114.958 159.899C116.599 159.088 118.219 158.234 119.851 157.403C121.159 156.751 122.425 156.029 123.701 155.34C124.338 154.993 124.974 154.647 125.609 154.301L126.56 153.783L127.497 153.245C128.744 152.525 129.986 151.808 131.223 151.094L132.151 150.56L133.062 150.004C133.669 149.634 134.275 149.264 134.88 148.896C135.484 148.528 136.088 148.16 136.69 147.794L137.593 147.245L138.479 146.675C139.661 145.917 140.836 145.162 142.006 144.411L142.884 143.849L143.746 143.269C144.319 142.881 144.89 142.495 145.461 142.109C146.032 141.724 146.601 141.34 147.169 140.957C147.737 140.575 148.308 140.198 148.858 139.797C157.795 133.55 166.009 127.08 173.478 120.64C176.867 117.632 178.633 116.394 178.62 116.848C178.614 117.075 178.162 117.726 177.245 118.791C176.787 119.324 176.212 119.96 175.519 120.699C175.171 121.067 174.799 121.466 174.387 121.88C173.968 122.286 173.52 122.719 173.045 123.18C162.292 133.633 149.829 143.414 136.565 151.79C133.859 153.547 131.041 155.16 128.233 156.817C125.379 158.392 122.528 160.003 119.595 161.472L117.408 162.598C116.681 162.977 115.933 163.316 115.196 163.677C113.716 164.384 112.243 165.111 110.755 165.801C109.258 166.473 107.762 167.144 106.267 167.815L105.145 168.315L104.012 168.789C103.257 169.104 102.503 169.42 101.749 169.735C101.724 169.77 101.7 169.802 101.667 169.84Z" fill="#DDA853"/>
</g>
<defs>
<clipPath id="clip0_2342_1006">
<rect width="149" height="145" fill="white" transform="translate(0 85.1279) rotate(-34.843)"/>
</clipPath>
</defs>
</svg>
