<svg width="156" height="204" viewBox="0 0 156 204" fill="none" xmlns="http://www.w3.org/2000/svg">
<g clip-path="url(#clip0_2342_1008)">
<path d="M46.7052 110.104L48.5959 110.152C49.2263 110.165 49.8565 110.126 50.4873 110.116L51.4336 110.091C51.7486 110.076 52.0624 110.044 52.3769 110.021L54.2637 109.868C55.5106 109.69 56.7711 109.573 58.003 109.309L58.932 109.136C59.2424 109.08 59.5522 109.022 59.8558 108.941L61.6887 108.492C61.9969 108.425 62.2951 108.328 62.5949 108.235L63.495 107.959L64.3957 107.684C64.6957 107.591 64.9835 107.469 65.2782 107.363C65.8632 107.141 66.4536 106.93 67.0357 106.701L68.7437 105.934C69.3011 105.691 69.8444 105.418 70.3713 105.115C70.896 104.821 71.407 104.498 71.9076 104.16C72.9069 103.475 73.8512 102.713 74.7319 101.879C76.5972 100.148 78.085 98.0423 79.1033 95.6923C79.5786 94.5607 79.8818 93.3604 80.0028 92.1316C80.1104 90.9389 79.9994 89.7327 79.6754 88.5733C79.6347 88.412 79.5861 88.2528 79.5297 88.0961L79.3635 87.6242L79.3452 87.5725C79.2303 87.2461 79.2092 86.895 79.2843 86.5601C79.3595 86.2253 79.5279 85.9207 79.7697 85.6819C80.0115 85.4431 80.3168 85.2801 80.6497 85.212C80.9827 85.1439 81.3296 85.1734 81.6497 85.2972C83.8376 86.1432 86.3395 86.0174 88.5925 85.1266C90.8759 84.2181 92.8425 82.6619 94.259 80.6426C94.9519 79.657 95.4829 78.5633 95.832 77.4027C96.0028 76.827 96.1182 76.2351 96.1768 75.6352L96.2383 75.1813C96.2507 75.0288 96.2484 74.8743 96.2549 74.7211C96.2577 74.4138 96.2882 74.1083 96.2731 73.8C96.2264 72.5566 96.0214 71.3218 95.6633 70.126C95.2857 68.9164 94.7723 67.7525 94.1333 66.6571C92.8349 64.4494 91.0702 62.5545 88.968 61.1104C87.9173 60.406 86.7994 59.8118 85.6321 59.3371C84.4384 58.8757 83.207 58.5258 81.9536 58.292C76.8946 57.3866 71.4947 58.3876 66.8531 60.7315L66.8438 60.7361C66.4857 60.9169 66.0792 60.9803 65.68 60.9176C65.2808 60.855 64.9085 60.6692 64.6141 60.386C64.3198 60.1027 64.1178 59.7358 64.0358 59.3355C63.9539 58.9352 63.996 58.5211 64.1565 58.1501C64.6574 56.9516 64.7184 55.6051 64.3287 54.3502C64.1308 53.6726 63.8463 53.0226 63.4825 52.417C63.1041 51.7938 62.658 51.2146 62.1526 50.6905C61.1528 49.6372 59.9155 48.8454 58.5504 48.3852L58.3014 48.3062L58.0307 48.2412L57.4903 48.1075L56.9392 48.0163C56.7558 47.9803 56.5705 47.9558 56.3845 47.943L55.8251 47.8915C55.6375 47.882 55.4483 47.8835 55.26 47.878C54.8805 47.87 54.5013 47.8832 54.124 47.9178C51.7974 48.1246 49.4783 48.9229 47.2831 50.0136C46.1787 50.5655 45.1111 51.1881 44.0866 51.8777C43.5555 52.1876 43.0565 52.5462 42.5472 52.8905L41.8082 53.4398C41.6835 53.529 41.5643 53.6258 41.4513 53.7296C41.3246 53.8161 41.2027 53.9095 41.0862 54.0094C40.8455 54.2 40.6063 54.3924 40.383 54.6003C40.1566 54.8051 39.9225 55.004 39.7007 55.2136C39.2666 55.6384 38.855 56.0862 38.4677 56.5552C37.6903 57.4621 37.0147 58.4541 36.4531 59.5132C36.3843 59.6434 36.3063 59.7704 36.2444 59.903L36.0669 60.3035C35.9398 60.5653 35.8277 60.8343 35.7311 61.1095L35.4493 61.9294L35.2457 62.7637C35.0345 63.8752 34.9947 65.0159 35.1275 66.1455L35.1295 66.1629C35.1873 66.6535 35.0502 67.144 34.7486 67.5264C34.4469 67.9088 34.0054 68.1518 33.521 68.2019C33.3234 68.2216 33.1233 68.2094 32.9284 68.1659C31.5165 67.8447 30.1011 67.5612 28.6832 67.3283C27.2653 67.104 25.8468 66.9191 24.4302 66.7949C23.0141 66.6827 21.6003 66.6179 20.1957 66.6327C18.7995 66.6529 17.4069 66.7508 16.024 66.926C14.6591 67.1127 13.3093 67.3897 11.9831 67.7551C10.6824 68.1265 9.41565 68.6053 8.19553 69.1867C6.98969 69.7816 5.83785 70.4801 4.75249 71.2746C3.67975 72.0713 2.68353 72.9675 1.77646 73.9518C1.53856 74.1857 1.34677 74.4573 1.12869 74.7071L0.810193 75.0887C0.705941 75.2172 0.616439 75.356 0.518594 75.4888C0.329989 75.7592 0.12676 76.0205 -0.0519273 76.2962L-0.564119 77.1367C-1.2145 78.2598 -1.73072 79.4584 -2.10215 80.7081C-2.20215 81.0154 -2.25002 81.3352 -2.32891 81.6473L-2.4366 82.1181L-2.49858 82.5966C-2.5305 82.9134 -2.61267 83.2371 -2.63 83.5455L-2.66647 84.009L-2.67623 84.4769C-2.67938 85.7515 -2.48529 87.0221 -2.101 88.2427C-1.97185 88.8884 -1.78909 89.5229 -1.55467 90.1393C-1.3286 90.7669 -1.02041 91.3622 -0.638401 91.9092C0.0840264 93.024 0.973044 94.0202 1.99624 94.8615C4.03577 96.5133 6.56067 97.3868 8.97388 97.1506C9.34562 97.1142 9.72142 97.193 10.0515 97.3766C10.3817 97.5601 10.6506 97.8398 10.8227 98.1785C10.9948 98.5173 11.062 98.8991 11.0154 99.2736C10.9688 99.6481 10.8106 99.9976 10.5617 100.276L10.4871 100.358C9.73683 101.192 9.07508 102.103 8.51244 103.078C8.37964 103.326 8.22652 103.562 8.10862 103.819L7.74291 104.579L7.42735 105.362C7.31708 105.621 7.2464 105.894 7.15231 106.158C6.31813 108.47 6.06202 110.963 6.40649 113.419L6.57701 114.319L6.81812 115.201C6.90915 115.49 7.02392 115.765 7.12292 116.05C7.22237 116.334 7.37566 116.598 7.49714 116.876C8.05128 117.971 8.76559 118.978 9.61557 119.861C10.0081 120.27 10.4211 120.657 10.8529 121.023C11.0668 121.188 11.2785 121.347 11.4818 121.509C11.6815 121.678 11.9042 121.796 12.1061 121.941C12.5091 122.235 12.9311 122.438 13.318 122.675C13.5162 122.781 13.716 122.867 13.9078 122.964C14.0927 123.062 14.2827 123.15 14.4768 123.228C15.7063 123.739 16.9868 124.109 18.2939 124.331C19.7915 124.514 19.9831 124.879 18.6312 125.43C18.2055 125.572 17.7683 125.678 17.3241 125.746C17.0585 125.778 16.7692 125.792 16.4563 125.81C16.3003 125.814 16.1364 125.833 15.9704 125.823L15.4548 125.791C13.7048 125.654 11.9984 125.137 10.4521 124.276C8.03097 122.96 6.00922 120.994 4.6137 118.599L4.10648 117.656C3.96069 117.329 3.82177 116.997 3.6817 116.666C3.60906 116.503 3.54696 116.336 3.49579 116.165L3.33143 115.66C3.27886 115.491 3.219 115.323 3.17354 115.153L3.05103 114.638C2.72056 113.283 2.5749 111.892 2.61812 110.504C2.64693 109.317 2.7934 108.138 3.05532 106.985C3.16431 106.405 3.35225 105.85 3.50764 105.285C3.60002 105.007 3.7055 104.735 3.80963 104.462C3.90766 104.187 4.0265 103.921 4.14914 103.657C5.09597 101.534 6.41007 99.6041 8.03053 97.9561L9.26354 100.57C6.68969 100.679 4.13096 99.9911 1.9287 98.5984C1.39285 98.265 0.876434 97.9003 0.382148 97.506C0.132476 97.3144 -0.101178 97.1044 -0.342761 96.9036C-0.571374 96.6891 -0.805751 96.4801 -1.02672 96.2583C-1.90921 95.3738 -2.70179 94.4022 -3.39216 93.3586C-3.73687 92.8376 -4.0406 92.2936 -4.37688 91.7627C-4.69538 91.2187 -4.98629 90.659 -5.24846 90.0859C-5.52327 89.5122 -5.73912 88.9124 -5.89255 88.2959C-6.06088 87.6798 -6.19402 87.055 -6.29131 86.4246C-6.49051 85.151 -6.52272 83.8591 -6.38708 82.5826C-6.32765 81.9543 -6.22728 81.3314 -6.08664 80.7178L-5.87744 79.7983C-5.79025 79.4977 -5.69044 79.2013 -5.59656 78.9028C-4.82613 76.5385 -3.62315 74.3481 -2.04955 72.4441C-0.509489 70.5645 1.29442 68.9239 3.30645 67.573C3.55032 67.3954 3.807 67.2377 4.06556 67.0832L4.83781 66.6141C5.36043 66.3152 5.89948 66.0447 6.43276 65.7648C6.98478 65.5226 7.52622 65.2556 8.08889 65.0367L8.93688 64.7172L9.36143 64.5595L9.78913 64.4257C12.0585 63.7042 14.4011 63.2289 16.7777 63.0076C19.6356 62.7527 22.5159 62.7793 25.3781 63.0868C28.1763 63.3879 30.9542 63.8815 33.6922 64.5643L31.5038 66.5749C31.4762 66.1571 31.449 65.7444 31.4221 65.3369C31.4074 65.1341 31.4076 64.9307 31.4226 64.7283L31.4511 64.1248C31.6282 61.7325 32.339 59.4209 33.5301 57.3628L33.7386 56.9814L33.9702 56.6185L34.435 55.8938C34.7657 55.43 35.0998 54.9674 35.4524 54.5249C35.8198 54.0975 36.1652 53.6451 36.5591 53.2471C36.7498 53.0413 36.9446 52.8395 37.1296 52.6278C37.3206 52.4227 37.5223 52.2302 37.7186 52.0309C38.5063 51.2407 39.3417 50.5005 40.2201 49.8146C40.6616 49.4775 41.1084 49.1467 41.5617 48.8254C41.784 48.658 42.0262 48.5205 42.2593 48.3697C42.4933 48.2186 42.7307 48.0775 42.9701 47.9417C43.9241 47.38 44.9073 46.8695 45.9156 46.4123C46.932 45.9414 47.9793 45.5396 49.0505 45.2095C50.1367 44.8667 51.25 44.6137 52.3795 44.4531C53.5313 44.2943 54.6964 44.2391 55.8612 44.2882C57.048 44.3558 58.2259 44.5565 59.3732 44.8866C60.5535 45.2488 61.6753 45.79 62.6999 46.4915C64.7526 47.8772 66.3781 49.8236 67.3829 52.0988C67.8979 53.2811 68.1922 54.5464 68.2509 55.8299C68.3069 57.1598 68.068 58.4806 67.5515 59.6953L65.14 57.3868C67.366 56.2537 69.7248 55.4013 72.1642 54.8483C75.8893 53.9992 79.7644 53.9693 83.529 54.7605C85.4358 55.1752 87.2842 55.8422 89.0262 56.7441C91.6564 58.1419 93.9617 60.1 95.7802 62.4808C97.5986 64.8616 98.886 67.6074 99.552 70.5253C99.9776 72.5114 100.039 74.5536 99.7341 76.5498C99.5925 77.5664 99.3319 78.5604 98.9579 79.511C98.5916 80.4556 98.1292 81.3579 97.5781 82.2034C95.7902 84.9465 93.2215 87.0713 90.2032 88.304C89.4484 88.614 88.6675 88.8573 87.8691 89.0312C87.0644 89.2139 86.2431 89.3187 85.4162 89.3444C84.5812 89.3742 83.7439 89.3204 82.9166 89.1837C82.0855 89.0402 81.2688 88.8153 80.4782 88.5123L82.5354 86.4186C83.036 87.7506 83.3271 89.1505 83.3983 90.5669C83.4604 91.9651 83.3191 93.3615 82.9789 94.7114C82.6504 96.0297 82.1674 97.3012 81.54 98.4992C80.9305 99.6764 80.2128 100.792 79.3964 101.831C77.7791 103.878 75.8609 105.661 73.7068 107.12C73.1683 107.48 72.6217 107.828 72.0563 108.147C71.7749 108.308 71.4913 108.466 71.2008 108.612C70.9121 108.769 70.6245 108.9 70.3369 109.029L68.6106 109.815C68.326 109.954 68.0271 110.055 67.7333 110.17L66.8492 110.507C65.6806 110.987 64.4645 111.318 63.2666 111.704C62.664 111.883 62.0491 112.018 61.4411 112.177C60.8314 112.33 60.2242 112.494 59.6045 112.599L57.7546 112.957C57.1373 113.072 56.5118 113.138 55.891 113.23C54.6509 113.431 53.3944 113.502 52.1441 113.616C49.6354 113.778 47.1155 113.763 44.603 113.57C43.3446 113.508 42.0938 113.308 40.8412 113.153C40.2161 113.063 39.5958 112.926 38.9729 112.814L38.0399 112.638C37.7298 112.574 37.4232 112.486 37.1147 112.411C34.0029 111.694 30.9999 110.537 28.1954 108.973L29.6789 107.405C30.1421 108.243 30.4895 109.14 30.7109 110.07C30.9255 110.987 31.0022 111.929 30.9385 112.865C30.784 114.636 30.2087 116.335 29.2612 117.819C27.5449 120.497 25.0274 122.545 22.0674 123.671C21.3997 123.939 20.6863 124.078 19.9639 124.081C19.4999 124.048 19.2966 123.928 19.3268 123.762C19.3887 123.409 20.3613 122.982 22.0644 121.878C24.3034 120.449 26.0923 118.409 27.2294 115.988C27.7418 114.868 27.9901 113.639 27.955 112.396C27.9297 111.81 27.8271 111.229 27.65 110.668C27.4574 110.101 27.2039 109.557 26.8942 109.044C26.6609 108.652 26.5558 108.197 26.5943 107.745C26.6328 107.293 26.8129 106.868 27.1084 106.531C27.4039 106.194 27.7995 105.962 28.2378 105.87C28.6762 105.778 29.1345 105.83 29.5464 106.018L29.6921 106.086L31.1699 106.773C33.5908 107.828 36.1042 108.642 38.6739 109.203C41.3073 109.749 43.9775 110.071 46.6566 110.168C46.6718 110.146 46.6862 110.126 46.7052 110.104Z" fill="#DDA853"/>
<path d="M45.5374 127.578C46.2333 127.387 46.9416 127.242 47.6577 127.143C49.7677 126.874 51.9156 127.009 53.9893 127.543C54.7136 127.727 55.4271 127.955 56.1256 128.226C56.9241 128.537 57.6778 128.958 58.3651 129.477C58.8274 129.819 59.2514 130.212 59.629 130.647C60.0246 131.093 60.3631 131.586 60.6365 132.116C60.779 132.39 60.9041 132.672 61.0111 132.961C61.1149 133.261 61.1977 133.567 61.2588 133.877C61.3219 134.194 61.3601 134.514 61.3729 134.835C61.381 135.158 61.3662 135.48 61.3284 135.799C61.158 136.989 60.6986 138.112 59.991 139.07C59.3788 139.91 58.6647 140.668 57.865 141.326C55.6252 143.232 52.9897 144.609 50.1455 145.359C49.1949 145.603 48.2261 145.772 47.2475 145.865C46.1504 145.982 45.0398 145.941 43.949 145.742C43.3518 145.604 42.7728 145.391 42.2252 145.109C41.6353 144.825 41.0863 144.459 40.5945 144.023L42.8724 144.125C42.0873 144.723 41.2396 145.234 40.344 145.648C39.4515 146.053 38.5184 146.364 37.5595 146.574C36.6026 146.785 35.6243 146.892 34.6415 146.892C34.1497 146.894 33.6576 146.868 33.1678 146.814L32.7829 146.77C32.5949 146.742 32.409 146.7 32.2268 146.644C31.9067 146.544 31.5979 146.41 31.3057 146.242C30.79 145.941 30.3167 145.57 29.8992 145.14C29.4907 144.707 29.1452 144.218 28.8734 143.688C28.6069 143.166 28.4166 142.608 28.3084 142.033C28.1969 141.468 28.165 140.891 28.2138 140.319C28.3134 139.185 28.7012 138.1 29.3397 137.171C29.4844 136.958 29.6401 136.753 29.8062 136.557C29.9617 136.37 30.1272 136.187 30.2941 136.007C30.6385 135.642 31.0101 135.305 31.4059 134.999C32.0296 134.503 32.734 134.121 33.4889 133.866C34.2487 133.609 35.0512 133.495 35.8565 133.532C36.4778 133.552 37.0876 133.725 37.6337 134.034C37.8266 134.146 38.0045 134.282 38.1631 134.44C38.2282 134.592 38.3039 134.739 38.3897 134.881C38.6794 135.346 38.9572 135.647 38.5423 135.854C38.4036 135.914 38.2551 135.949 38.1037 135.956C37.9992 135.964 37.8942 135.965 37.7893 135.96C37.7482 135.956 37.7069 135.959 37.6671 135.969L37.5623 135.984C37.4104 136.003 37.2572 136.011 37.1038 136.009C36.9316 136.025 36.7584 136.03 36.5852 136.023C36.1244 136.036 35.6656 136.082 35.2125 136.161C34.7569 136.253 34.3131 136.394 33.8886 136.582C33.3811 136.816 32.9129 137.127 32.4998 137.504C32.283 137.699 32.0765 137.906 31.881 138.123C31.7808 138.231 31.6889 138.35 31.592 138.462C31.4991 138.576 31.4409 138.673 31.3611 138.777C31.0829 139.201 30.9043 139.684 30.8387 140.19C30.7731 140.697 30.8223 141.214 30.9825 141.702C31.1339 142.17 31.3907 142.598 31.7326 142.952C31.899 143.124 32.0851 143.275 32.2868 143.402C32.4694 143.527 32.6688 143.624 32.8784 143.691C32.949 143.712 33.022 143.724 33.0954 143.726C33.1121 143.725 33.129 143.725 33.1457 143.726L33.256 143.73L33.4763 143.738C33.6227 143.747 33.7698 143.743 33.9164 143.74C34.063 143.739 34.2092 143.736 34.3554 143.722C34.939 143.687 35.5172 143.598 36.0828 143.456C36.7068 143.294 37.3158 143.081 37.9037 142.818C38.4898 142.561 39.0506 142.28 39.6031 142.019C40.0029 141.828 40.387 141.605 40.7519 141.354L40.878 141.27C41.1772 141.072 41.5348 140.983 41.8941 141.015C42.2533 141.047 42.5937 141.2 42.861 141.448L43.0319 141.608C43.0964 141.654 43.1534 141.709 43.2221 141.753C43.3583 141.852 43.509 141.93 43.6686 141.981C43.7513 142.012 43.8357 142.039 43.9213 142.06C44.009 142.086 44.0979 142.107 44.1877 142.123C44.2798 142.144 44.373 142.159 44.4666 142.168C44.5576 142.192 44.6571 142.203 44.7531 142.22C45.6084 142.324 46.4723 142.298 47.3156 142.142C49.1296 141.843 50.8894 141.29 52.5443 140.498C53.2412 140.17 53.9103 139.787 54.5454 139.351C55.1746 138.922 55.7681 138.442 56.32 137.916C56.815 137.452 57.2353 136.913 57.5663 136.318C57.8381 135.838 57.9697 135.289 57.946 134.732C57.9201 133.815 57.2767 132.773 56.3499 132.062C56.2372 131.969 56.1118 131.893 55.9935 131.807C55.8664 131.737 55.7467 131.649 55.6154 131.589C55.4886 131.52 55.358 131.459 55.2242 131.406C55.1047 131.352 54.9301 131.289 54.7699 131.234C54.1141 131.008 53.4446 130.828 52.766 130.694C50.0494 130.136 47.1823 130.339 44.6971 131.551C42.723 132.523 40.9696 133.707 39.0931 134.807C38.9736 134.899 38.8311 134.957 38.6808 134.973C38.6027 134.987 38.5538 134.902 38.5318 134.797C38.5257 134.77 38.5208 134.74 38.5166 134.708L38.5107 134.659L38.508 134.633L38.5068 134.62L38.5062 134.613L38.506 134.61L38.5058 134.608L38.5057 134.607L38.4991 134.588C38.4884 134.506 38.4755 134.411 38.4553 134.31C38.4347 134.204 38.406 134.101 38.3695 133.999C38.3379 133.902 38.2717 133.789 38.2629 133.742C38.2284 133.727 38.2972 133.608 38.3395 133.514L38.4774 133.222C38.5727 133.028 38.6593 132.824 38.767 132.633C38.8684 132.438 38.9868 132.252 39.1208 132.079C39.2447 131.898 39.39 131.732 39.5286 131.559C39.803 131.211 40.1151 130.889 40.4283 130.564C40.7544 130.248 41.0975 129.95 41.4559 129.673C42.058 129.207 42.7092 128.808 43.398 128.485C44.0955 128.162 44.8117 127.88 45.543 127.641L45.5374 127.578Z" fill="#DDA853"/>
<path d="M32.5538 163.164C33.6027 162.527 34.7443 162.058 35.9392 161.772C36.5529 161.62 37.1703 161.517 37.7915 161.389C38.6862 161.188 39.6107 161.144 40.5252 161.259C41.0675 161.333 41.5962 161.494 42.0912 161.736C42.6658 162.019 43.1693 162.433 43.5618 162.945C43.9628 163.473 44.231 164.091 44.3429 164.743C44.4426 165.328 44.4353 165.925 44.3215 166.503C44.1167 167.496 43.6852 168.422 43.0612 169.209C42.7191 169.651 42.3266 170.051 41.8916 170.4C41.6822 170.574 41.4657 170.732 41.2471 170.885C41.0057 171.055 40.7527 171.208 40.4899 171.343C40.2315 171.474 39.9638 171.594 39.715 171.693C39.4888 171.782 39.2605 171.867 39.0302 171.947C38.5694 172.108 38.0972 172.244 37.6183 172.371C36.6337 172.642 35.6178 172.79 34.5934 172.811C34.3245 172.817 34.0551 172.81 33.7864 172.788C33.6498 172.777 33.5145 172.769 33.3759 172.748L33.1693 172.72L33.0661 172.705L32.9293 172.677C32.187 172.529 31.5021 172.16 30.964 171.616C30.6551 171.296 30.4138 170.916 30.2553 170.5C30.0968 170.084 30.0246 169.64 30.043 169.197C30.044 168.849 30.1732 168.515 30.4055 168.261C30.5027 168.161 30.6166 168.08 30.742 168.02C30.8641 167.968 30.9937 167.934 31.1263 167.921C31.2963 167.912 31.4668 167.938 31.6279 167.997C31.7889 168.056 31.9374 168.146 32.0645 168.263C32.2658 168.416 32.4369 168.605 32.5685 168.822C32.661 169.013 32.7426 169.209 32.8126 169.409C32.8581 169.522 32.9265 169.625 33.0133 169.71C33.1 169.794 33.2032 169.86 33.3161 169.903C33.3454 169.913 33.3771 169.918 33.4072 169.928C33.4236 169.934 33.4403 169.939 33.4572 169.943L33.5384 169.955C33.6471 169.974 33.7567 169.987 33.8666 169.994C34.0927 170.014 34.3197 170.016 34.5456 170.001C35.507 169.92 36.4371 169.634 37.2751 169.162C37.5136 169.029 37.7488 168.877 37.9858 168.736C38.105 168.669 38.2234 168.599 38.3458 168.543C38.4432 168.497 38.5435 168.457 38.646 168.423C38.799 168.374 38.9462 168.308 39.0849 168.227C39.1458 168.194 39.2292 168.131 39.3043 168.077C39.3815 168.023 39.4555 167.965 39.526 167.903C39.8011 167.666 40.0484 167.398 40.2632 167.104C40.6183 166.632 40.8546 166.079 40.9521 165.492C40.9774 165.363 40.9709 165.229 40.9332 165.103C40.9057 165.006 40.8513 164.92 40.7766 164.853C40.488 164.638 40.145 164.51 39.7894 164.487C38.7744 164.396 37.7553 164.521 36.7979 164.854C36.288 165.017 35.7936 165.223 35.3199 165.472C34.8567 165.724 34.4184 166.019 34.0107 166.353C33.8538 166.49 33.6811 166.609 33.5182 166.736C33.4338 166.797 33.3441 166.854 33.2514 166.909C33.1613 166.97 33.0673 167.026 32.9699 167.075C32.7636 167.175 32.5634 167.284 32.3391 167.388L31.6248 167.706C31.512 167.762 31.387 167.788 31.2606 167.784C31.1342 167.78 31.0102 167.745 30.8994 167.681C30.7885 167.618 30.6941 167.529 30.6244 167.421C30.5546 167.313 30.5116 167.19 30.499 167.063L30.4556 166.725C30.455 166.62 30.4666 166.515 30.4901 166.414C30.5258 166.21 30.5688 166.003 30.62 165.795C30.6824 165.595 30.7519 165.395 30.8287 165.194C30.9135 165.001 31.0147 164.816 31.1313 164.642C31.5262 164.081 32.0193 163.598 32.5869 163.217L32.5538 163.164Z" fill="#DDA853"/>
</g>
<defs>
<clipPath id="clip0_2342_1008">
<rect width="148" height="151" fill="white" transform="translate(-46 70.2285) rotate(-28.328)"/>
</clipPath>
</defs>
</svg>
